<svg xmlns="http://www.w3.org/2000/svg" xmlns:xlink="http://www.w3.org/1999/xlink"><symbol fill="none" viewBox="0 0 24 24" id="arrow-drop-down" xmlns="http://www.w3.org/2000/svg"><mask id="amask0_2473_9598" width="24" height="24" x="0" y="0" maskUnits="userSpaceOnUse" style="mask-type:alpha"><rect width="24" height="24" fill="#D9D9D9"/></mask><g mask="url(#amask0_2473_9598)"><path fill="currentColor" d="M10.78 17.473 2.348 8.99a1.2 1.2 0 0 1-.262-.38A1.1 1.1 0 0 1 2 8.17q0-.468.32-.819T3.163 7h17.674q.524 0 .843.351.32.35.32.82 0 .116-.349.818l-8.43 8.484a1.8 1.8 0 0 1-.582.41A1.7 1.7 0 0 1 12 18q-.35 0-.64-.117a1.8 1.8 0 0 1-.58-.41"/></g></symbol><symbol fill="none" viewBox="0 0 24 24" id="close" xmlns="http://www.w3.org/2000/svg"><path fill="currentColor" d="m12 14.13-7.452 7.452Q4.128 22 3.483 22q-.647 0-1.065-.418Q2 21.162 2 20.517q0-.646.418-1.064L9.871 12 2.418 4.548Q2 4.128 2 3.483q0-.647.418-1.065Q2.838 2 3.483 2q.646 0 1.065.418L12 9.871l7.453-7.453Q19.87 2 20.517 2t1.065.418q.418.42.418 1.065 0 .646-.418 1.065L14.129 12l7.453 7.453q.418.417.418 1.064t-.418 1.065q-.42.418-1.065.418-.646 0-1.064-.418z"/></symbol><symbol fill="none" viewBox="0 0 24 24" id="filter" xmlns="http://www.w3.org/2000/svg"><mask id="cmask0_2473_9592" width="24" height="24" x="0" y="0" maskUnits="userSpaceOnUse" style="mask-type:alpha"><rect width="24" height="24" fill="#D9D9D9"/></mask><g mask="url(#cmask0_2473_9592)"><path fill="currentColor" d="M12 22q-.473 0-.792-.32a1.08 1.08 0 0 1-.32-.791v-4.445q0-.471.32-.791t.792-.32q.473 0 .792.32t.32.791v1.112h7.777q.473 0 .792.319.318.32.319.792 0 .471-.32.791-.318.32-.791.32H13.11v1.11q0 .474-.32.793-.318.318-.791.319M3.11 19.778q-.473 0-.792-.32A1.08 1.08 0 0 1 2 18.667q0-.473.32-.792.318-.32.791-.32h4.445q.471 0 .791.32t.32.792q0 .471-.32.791t-.791.32zm4.445-4.445q-.473 0-.792-.32a1.08 1.08 0 0 1-.32-.79V13.11H3.111q-.473 0-.792-.32A1.08 1.08 0 0 1 2 12q0-.473.32-.792.318-.32.791-.32h3.333v-1.11q0-.473.32-.792t.792-.32q.471 0 .791.32t.32.792v4.444q0 .473-.32.792t-.791.32M12 13.111q-.473 0-.792-.32a1.08 1.08 0 0 1-.32-.791q0-.473.32-.792t.792-.32h8.889q.473 0 .792.32.318.32.319.792 0 .473-.32.792-.318.32-.791.32zm4.444-4.444q-.471 0-.791-.32a1.08 1.08 0 0 1-.32-.791V3.11q0-.473.32-.792T16.444 2t.792.32q.32.318.32.791v1.111h3.333q.473 0 .792.32.318.32.319.791 0 .473-.32.792-.318.32-.791.32h-3.333v1.11q0 .473-.32.792t-.792.32M3.111 6.444q-.473 0-.792-.319A1.08 1.08 0 0 1 2 5.333q0-.471.32-.791.318-.32.791-.32H12q.473 0 .792.32t.32.791-.32.792-.792.32z"/></g></symbol><symbol fill="none" viewBox="0 0 24 24" id="info" xmlns="http://www.w3.org/2000/svg"><path fill="currentColor" d="M11 17h2v-6h-2zm1-8q.424 0 .713-.287A.97.97 0 0 0 13 8a.97.97 0 0 0-.287-.713A.97.97 0 0 0 12 7a.97.97 0 0 0-.713.287A.97.97 0 0 0 11 8q0 .424.287.713Q11.576 9 12 9m0 13a9.7 9.7 0 0 1-3.9-.788 10.1 10.1 0 0 1-3.175-2.137q-1.35-1.35-2.137-3.175A9.7 9.7 0 0 1 2 12q0-2.075.788-3.9a10.1 10.1 0 0 1 2.137-3.175q1.35-1.35 3.175-2.137A9.7 9.7 0 0 1 12 2q2.075 0 3.9.788a10.1 10.1 0 0 1 3.175 2.137q1.35 1.35 2.137 3.175A9.7 9.7 0 0 1 22 12a9.7 9.7 0 0 1-.788 3.9 10.1 10.1 0 0 1-2.137 3.175q-1.35 1.35-3.175 2.137A9.7 9.7 0 0 1 12 22m0-2q3.35 0 5.675-2.325T20 12t-2.325-5.675T12 4 6.325 6.325 4 12t2.325 5.675T12 20"/></symbol><symbol fill="none" viewBox="0 0 24 24" id="sad-emoticon" xmlns="http://www.w3.org/2000/svg"><path fill="currentColor" d="M15.5 11q.624 0 1.062-.437Q17 10.125 17 9.5t-.438-1.062A1.45 1.45 0 0 0 15.499 8q-.624 0-1.062.438A1.45 1.45 0 0 0 14 9.5q0 .624.437 1.063.438.437 1.063.437m-7 0q.624 0 1.062-.437Q10 10.125 10 9.5t-.438-1.062A1.45 1.45 0 0 0 8.5 8q-.625 0-1.063.438A1.45 1.45 0 0 0 7 9.5q0 .624.437 1.063Q7.875 11 8.5 11m3.5 2.5q-1.7 0-3.088.963A5.5 5.5 0 0 0 6.9 17h1.65a4.1 4.1 0 0 1 1.462-1.463A3.85 3.85 0 0 1 11.999 15q1.076 0 1.988.537A4.1 4.1 0 0 1 15.45 17h1.65a5.5 5.5 0 0 0-2.013-2.537 5.3 5.3 0 0 0-3.088-.963m0 8.5a9.7 9.7 0 0 1-3.9-.788 10.1 10.1 0 0 1-3.175-2.137q-1.35-1.35-2.138-3.175A9.7 9.7 0 0 1 2 12q0-2.075.787-3.9a10.1 10.1 0 0 1 2.138-3.175q1.35-1.35 3.175-2.137A9.7 9.7 0 0 1 12 2q2.075 0 3.9.788a10.1 10.1 0 0 1 3.175 2.137q1.35 1.35 2.137 3.175A9.7 9.7 0 0 1 22 12a9.7 9.7 0 0 1-.788 3.9 10.1 10.1 0 0 1-2.137 3.175q-1.35 1.35-3.175 2.137A9.7 9.7 0 0 1 12 22m0-2q3.35 0 5.674-2.325T20 12t-2.326-5.675T12 4 6.325 6.325 4 12t2.325 5.675T11.999 20"/></symbol><symbol fill="none" viewBox="0 0 24 24" id="sort" xmlns="http://www.w3.org/2000/svg"><mask id="fmask0_2473_9595" width="24" height="24" x="0" y="0" maskUnits="userSpaceOnUse" style="mask-type:alpha"><rect width="24" height="24" fill="#212121"/></mask><g mask="url(#fmask0_2473_9595)"><path fill="currentColor" d="M8.832 13.044q-.45 0-.753-.3A1 1 0 0 1 7.776 12V5.55l-1.98 1.96a1 1 0 0 1-.727.286q-.434 0-.752-.287A1 1 0 0 1 4 6.765q0-.43.317-.744l3.775-3.734a.9.9 0 0 1 .344-.222A1.2 1.2 0 0 1 8.832 2q.21 0 .396.065a.9.9 0 0 1 .343.222l3.802 3.76a.95.95 0 0 1 .304.731 1.05 1.05 0 0 1-.33.731 1.12 1.12 0 0 1-.74.3.97.97 0 0 1-.739-.3l-1.98-1.958V12q0 .444-.304.744-.303.3-.752.3M15.168 22a1.2 1.2 0 0 1-.396-.065.9.9 0 0 1-.343-.222l-3.802-3.76a.95.95 0 0 1-.304-.731q.015-.418.33-.731a1.12 1.12 0 0 1 .74-.3.97.97 0 0 1 .739.3l1.98 1.958V12q0-.444.304-.744.303-.3.752-.3.45 0 .753.3t.303.744v6.45l1.98-1.96a1 1 0 0 1 .727-.286q.434 0 .752.287.317.314.317.744t-.317.744l-3.775 3.734a.9.9 0 0 1-.344.222 1.2 1.2 0 0 1-.396.065"/></g></symbol></svg>