<svg xmlns="http://www.w3.org/2000/svg" xmlns:xlink="http://www.w3.org/1999/xlink"><symbol fill="none" viewBox="0 0 24 24" id="arrow-drop-down" xmlns="http://www.w3.org/2000/svg"><mask id="amask0_2473_9598" width="24" height="24" x="0" y="0" maskUnits="userSpaceOnUse" style="mask-type:alpha"><rect width="24" height="24" fill="#D9D9D9"/></mask><g mask="url(#amask0_2473_9598)"><path fill="currentColor" d="M10.78 17.473 2.348 8.99a1.2 1.2 0 0 1-.262-.38A1.1 1.1 0 0 1 2 8.17q0-.468.32-.819T3.163 7h17.674q.524 0 .843.351.32.35.32.82 0 .116-.349.818l-8.43 8.484a1.8 1.8 0 0 1-.582.41A1.7 1.7 0 0 1 12 18q-.35 0-.64-.117a1.8 1.8 0 0 1-.58-.41"/></g></symbol><symbol fill="none" viewBox="0 0 24 24" id="ball-fire" xmlns="http://www.w3.org/2000/svg"><path fill="currentColor" d="M16.164 5.758C20.13 5.758 23 8.283 23 12.457v.043q-.001.086-.005.172c-.093 4.21-2.93 6.502-6.83 6.517-1.6.005-2.45-.473-4.165-1.908-2.844-2.379-2.627 1.954-4.764-.18-.943-.91-1.132-1.38-1.132-1.38 2.986 2.165 3.898-1.852 1.289-1.224-2.64.69-3.647-1.882-6.382-.345-.187.124 2.138-3.075 3.49-1.789.974.91 2.326-.314.974-.345 1.414-1.005 1.604 1.097 2.452.941.849-.157.315-1.003-.313-.878-.032.03.377-.784 1.131-.188 1.07.846 1.98-1.507-.566-1.162-1.163.126-1.415-.659-1.415-.659.031 0 .126.126.724-.093 1.1-.44-.284-2.04-1.07-.158-.534 1.223-3.046-.437-2.924-.44 2.232.158 2.641-1.819 4.245-1.098 4.464 2.071 3.93-2.525 8.425-2.525M16.5 7a5.5 5.5 0 1 0 0 11 5.5 5.5 0 0 0 0-11"/><circle cx="16.5" cy="12.5" r="4.95" fill="currentColor"/></symbol><symbol fill="none" viewBox="0 0 24 24" id="ball-moving" xmlns="http://www.w3.org/2000/svg"><path fill="currentColor" d="M5.21 12.208a.785.785 0 0 1-.407-1.517l10.38-3.078.407 1.517z"/><path fill="currentColor" d="M2.989 16.055a.785.785 0 1 1-.407-1.517l8.864-2.671.406 1.516z"/><path fill="currentColor" d="M6.835 18.276a.785.785 0 1 1-.406-1.517l8.863-2.671.407 1.516z"/><path fill="currentColor" d="M21.767 10.036a6.792 6.792 0 1 1-13.121 3.516 6.792 6.792 0 0 1 13.12-3.516"/></symbol><symbol fill="none" viewBox="0 0 24 24" id="ball-rotate-left" xmlns="http://www.w3.org/2000/svg"><circle cx="6.70342" cy="6.70342" r="6.70342" fill="currentColor" transform="matrix(-1 0 0 1 17.4067 7.59314)"/><path fill="currentColor" d="M14.203 5.25h-.143v1.174a.67.67 0 0 1-.368.597.7.7 0 0 1-.348.08.9.9 0 0 1-.39-.1L9.968 5.13a.66.66 0 0 1-.327-.577c0-.239.123-.458.327-.577l3.008-1.87a.71.71 0 0 1 .717-.02c.225.12.368.358.368.597v1.174h.143c4.298.02 7.797 3.421 7.797 7.6a.715.715 0 0 1-.716.695.715.715 0 0 1-.716-.696c.02-3.422-2.845-6.207-6.365-6.207"/></symbol><symbol fill="none" viewBox="0 0 24 24" id="ball-rotate-right" xmlns="http://www.w3.org/2000/svg"><circle cx="13.2967" cy="14.2966" r="6.70342" fill="currentColor"/><path fill="currentColor" d="M9.797 5.25h.143v1.174a.67.67 0 0 0 .368.597.7.7 0 0 0 .348.08c.143 0 .266-.04.39-.1l2.987-1.87a.66.66 0 0 0 .327-.577.66.66 0 0 0-.327-.577l-3.008-1.87a.71.71 0 0 0-.717-.02.69.69 0 0 0-.368.597v1.174h-.143C5.499 3.878 2 7.279 2 11.458c0 .377.327.695.716.695a.715.715 0 0 0 .716-.696C3.412 8.035 6.277 5.25 9.797 5.25"/></symbol><symbol fill="none" viewBox="0 0 24 24" id="bat-lhb" xmlns="http://www.w3.org/2000/svg"><path fill="currentColor" d="m2.494 3.19-.361.416a.55.55 0 0 0 .054.77l4.906 4.266-.686.79c-.37.427-.324 1.08.102 1.45l5.075 4.414 1.644 1.43 3.46 3.007 1.164 1.013a1.03 1.03 0 0 0 1.45-.101l2.448-2.82a1.03 1.03 0 0 0-.103-1.45L10.305 6.512a1.03 1.03 0 0 0-1.45.101l-.686.79-4.908-4.267a.545.545 0 0 0-.767.054"/></symbol><symbol fill="none" viewBox="0 0 24 24" id="bat-rhb" xmlns="http://www.w3.org/2000/svg"><path fill="currentColor" d="m21.507 3.19.36.416a.55.55 0 0 1-.054.77l-4.906 4.266.686.79c.37.427.324 1.08-.102 1.45l-5.075 4.414-1.644 1.43-3.46 3.007-1.164 1.013a1.03 1.03 0 0 1-1.45-.101l-2.448-2.82a1.03 1.03 0 0 1 .103-1.45l11.342-9.863a1.03 1.03 0 0 1 1.45.101l.686.79 4.907-4.267a.545.545 0 0 1 .768.054"/></symbol><symbol fill="none" viewBox="0 0 24 24" id="close" xmlns="http://www.w3.org/2000/svg"><path fill="currentColor" d="m12 14.13-7.452 7.452Q4.128 22 3.483 22q-.647 0-1.065-.418Q2 21.162 2 20.517q0-.646.418-1.064L9.871 12 2.418 4.548Q2 4.128 2 3.483q0-.647.418-1.065Q2.838 2 3.483 2q.646 0 1.065.418L12 9.871l7.453-7.453Q19.87 2 20.517 2t1.065.418q.418.42.418 1.065 0 .646-.418 1.065L14.129 12l7.453 7.453q.418.417.418 1.064t-.418 1.065q-.42.418-1.065.418-.646 0-1.064-.418z"/></symbol><symbol fill="none" viewBox="0 0 24 24" id="copy" xmlns="http://www.w3.org/2000/svg"><path fill="currentColor" d="M16.263 2H4.895C3.853 2 3 2.818 3 3.818v12.728h1.895V3.818h11.368zm2.842 3.636H8.685c-1.043 0-1.896.819-1.896 1.819v12.727c0 1 .853 1.818 1.895 1.818h10.421C20.147 22 21 21.182 21 20.182V7.455c0-1-.853-1.819-1.895-1.819m0 14.546H8.685V7.455h10.42z"/></symbol><symbol fill="none" viewBox="0 0 24 24" id="emoticon-sad" xmlns="http://www.w3.org/2000/svg"><path fill="currentColor" d="M15.5 11q.624 0 1.062-.437Q17 10.125 17 9.5t-.438-1.062A1.45 1.45 0 0 0 15.499 8q-.624 0-1.062.438A1.45 1.45 0 0 0 14 9.5q0 .624.437 1.063.438.437 1.063.437m-7 0q.624 0 1.062-.437Q10 10.125 10 9.5t-.438-1.062A1.45 1.45 0 0 0 8.5 8q-.625 0-1.063.438A1.45 1.45 0 0 0 7 9.5q0 .624.437 1.063Q7.875 11 8.5 11m3.5 2.5q-1.7 0-3.088.963A5.5 5.5 0 0 0 6.9 17h1.65a4.1 4.1 0 0 1 1.462-1.463A3.85 3.85 0 0 1 11.999 15q1.076 0 1.988.537A4.1 4.1 0 0 1 15.45 17h1.65a5.5 5.5 0 0 0-2.013-2.537 5.3 5.3 0 0 0-3.088-.963m0 8.5a9.7 9.7 0 0 1-3.9-.788 10.1 10.1 0 0 1-3.175-2.137q-1.35-1.35-2.138-3.175A9.7 9.7 0 0 1 2 12q0-2.075.787-3.9a10.1 10.1 0 0 1 2.138-3.175q1.35-1.35 3.175-2.137A9.7 9.7 0 0 1 12 2q2.075 0 3.9.788a10.1 10.1 0 0 1 3.175 2.137q1.35 1.35 2.137 3.175A9.7 9.7 0 0 1 22 12a9.7 9.7 0 0 1-.788 3.9 10.1 10.1 0 0 1-2.137 3.175q-1.35 1.35-3.175 2.137A9.7 9.7 0 0 1 12 22m0-2q3.35 0 5.674-2.325T20 12t-2.326-5.675T12 4 6.325 6.325 4 12t2.325 5.675T11.999 20"/></symbol><symbol fill="none" viewBox="0 0 24 24" id="filter" xmlns="http://www.w3.org/2000/svg"><mask id="kmask0_2473_9592" width="24" height="24" x="0" y="0" maskUnits="userSpaceOnUse" style="mask-type:alpha"><rect width="24" height="24" fill="#D9D9D9"/></mask><g mask="url(#kmask0_2473_9592)"><path fill="currentColor" d="M12 22q-.473 0-.792-.32a1.08 1.08 0 0 1-.32-.791v-4.445q0-.471.32-.791t.792-.32q.473 0 .792.32t.32.791v1.112h7.777q.473 0 .792.319.318.32.319.792 0 .471-.32.791-.318.32-.791.32H13.11v1.11q0 .474-.32.793-.318.318-.791.319M3.11 19.778q-.473 0-.792-.32A1.08 1.08 0 0 1 2 18.667q0-.473.32-.792.318-.32.791-.32h4.445q.471 0 .791.32t.32.792q0 .471-.32.791t-.791.32zm4.445-4.445q-.473 0-.792-.32a1.08 1.08 0 0 1-.32-.79V13.11H3.111q-.473 0-.792-.32A1.08 1.08 0 0 1 2 12q0-.473.32-.792.318-.32.791-.32h3.333v-1.11q0-.473.32-.792t.792-.32q.471 0 .791.32t.32.792v4.444q0 .473-.32.792t-.791.32M12 13.111q-.473 0-.792-.32a1.08 1.08 0 0 1-.32-.791q0-.473.32-.792t.792-.32h8.889q.473 0 .792.32.318.32.319.792 0 .473-.32.792-.318.32-.791.32zm4.444-4.444q-.471 0-.791-.32a1.08 1.08 0 0 1-.32-.791V3.11q0-.473.32-.792T16.444 2t.792.32q.32.318.32.791v1.111h3.333q.473 0 .792.32.318.32.319.791 0 .473-.32.792-.318.32-.791.32h-3.333v1.11q0 .473-.32.792t-.792.32M3.111 6.444q-.473 0-.792-.319A1.08 1.08 0 0 1 2 5.333q0-.471.32-.791.318-.32.791-.32H12q.473 0 .792.32t.32.791-.32.792-.792.32z"/></g></symbol><symbol fill="none" viewBox="0 0 24 24" id="info" xmlns="http://www.w3.org/2000/svg"><path fill="currentColor" d="M11 17h2v-6h-2zm1-8q.424 0 .713-.287A.97.97 0 0 0 13 8a.97.97 0 0 0-.287-.713A.97.97 0 0 0 12 7a.97.97 0 0 0-.713.287A.97.97 0 0 0 11 8q0 .424.287.713Q11.576 9 12 9m0 13a9.7 9.7 0 0 1-3.9-.788 10.1 10.1 0 0 1-3.175-2.137q-1.35-1.35-2.137-3.175A9.7 9.7 0 0 1 2 12q0-2.075.788-3.9a10.1 10.1 0 0 1 2.137-3.175q1.35-1.35 3.175-2.137A9.7 9.7 0 0 1 12 2q2.075 0 3.9.788a10.1 10.1 0 0 1 3.175 2.137q1.35 1.35 2.137 3.175A9.7 9.7 0 0 1 22 12a9.7 9.7 0 0 1-.788 3.9 10.1 10.1 0 0 1-2.137 3.175q-1.35 1.35-3.175 2.137A9.7 9.7 0 0 1 12 22m0-2q3.35 0 5.675-2.325T20 12t-2.325-5.675T12 4 6.325 6.325 4 12t2.325 5.675T12 20"/></symbol><symbol fill="none" viewBox="0 0 24 24" id="sort" xmlns="http://www.w3.org/2000/svg"><mask id="mmask0_2473_9595" width="24" height="24" x="0" y="0" maskUnits="userSpaceOnUse" style="mask-type:alpha"><rect width="24" height="24" fill="#212121"/></mask><g mask="url(#mmask0_2473_9595)"><path fill="currentColor" d="M8.832 13.044q-.45 0-.753-.3A1 1 0 0 1 7.776 12V5.55l-1.98 1.96a1 1 0 0 1-.727.286q-.434 0-.752-.287A1 1 0 0 1 4 6.765q0-.43.317-.744l3.775-3.734a.9.9 0 0 1 .344-.222A1.2 1.2 0 0 1 8.832 2q.21 0 .396.065a.9.9 0 0 1 .343.222l3.802 3.76a.95.95 0 0 1 .304.731 1.05 1.05 0 0 1-.33.731 1.12 1.12 0 0 1-.74.3.97.97 0 0 1-.739-.3l-1.98-1.958V12q0 .444-.304.744-.303.3-.752.3M15.168 22a1.2 1.2 0 0 1-.396-.065.9.9 0 0 1-.343-.222l-3.802-3.76a.95.95 0 0 1-.304-.731q.015-.418.33-.731a1.12 1.12 0 0 1 .74-.3.97.97 0 0 1 .739.3l1.98 1.958V12q0-.444.304-.744.303-.3.752-.3.45 0 .753.3t.303.744v6.45l1.98-1.96a1 1 0 0 1 .727-.286q.434 0 .752.287.317.314.317.744t-.317.744l-3.775 3.734a.9.9 0 0 1-.344.222 1.2 1.2 0 0 1-.396.065"/></g></symbol></svg>