<svg width="24" height="24" viewBox="0 0 24 24" fill="none" xmlns="http://www.w3.org/2000/svg">
<path d="M2 18C2.12121 16.3179 2.61364 14.7587 3.47727 13.3226C4.34091 11.8864 5.48485 10.7478 6.90909 9.90677L5.20455 6.8361C5.15909 6.69328 5.1553 6.55046 5.19318 6.40764C5.23106 6.26482 5.31061 6.15373 5.43182 6.07439C5.56818 5.99504 5.71591 5.97917 5.875 6.02678C6.03409 6.07439 6.15152 6.1696 6.22727 6.31242L7.90909 9.33548C9.21212 8.74833 10.5758 8.45475 12 8.45475C13.4242 8.45475 14.7879 8.74833 16.0909 9.33548L17.7955 6.31242C17.8712 6.1696 17.9886 6.07439 18.1477 6.02678C18.3068 5.97917 18.4545 5.99504 18.5909 6.07439C18.7121 6.15373 18.7992 6.26878 18.8523 6.41954C18.9053 6.5703 18.8939 6.70915 18.8182 6.8361L17.0909 9.90677C18.5152 10.7478 19.6591 11.8864 20.5227 13.3226C21.3864 14.7587 21.8788 16.3179 22 18H2ZM7.45455 15.3816C7.75758 15.3816 8.02273 15.2626 8.25 15.0245C8.47727 14.7865 8.59091 14.5088 8.59091 14.1914C8.59091 13.874 8.47727 13.5963 8.25 13.3583C8.02273 13.1203 7.75758 13.0012 7.45455 13.0012C7.15152 13.0012 6.88636 13.1203 6.65909 13.3583C6.43182 13.5963 6.31818 13.874 6.31818 14.1914C6.31818 14.5088 6.43182 14.7865 6.65909 15.0245C6.88636 15.2626 7.15152 15.3816 7.45455 15.3816ZM16.5455 15.3816C16.8485 15.3816 17.1136 15.2626 17.3409 15.0245C17.5682 14.7865 17.6818 14.5088 17.6818 14.1914C17.6818 13.874 17.5682 13.5963 17.3409 13.3583C17.1136 13.1203 16.8485 13.0012 16.5455 13.0012C16.2424 13.0012 15.9773 13.1203 15.75 13.3583C15.5227 13.5963 15.4091 13.874 15.4091 14.1914C15.4091 14.5088 15.5227 14.7865 15.75 15.0245C15.9773 15.2626 16.2424 15.3816 16.5455 15.3816Z" fill="black"/>
</svg>
