<svg width="24" height="24" viewBox="0 0 24 24" fill="none" xmlns="http://www.w3.org/2000/svg">
<path fill-rule="evenodd" clip-rule="evenodd" d="M22 11.75C22 11.1977 21.5523 10.75 21 10.75H6.75L13.0429 4.45711C13.4334 4.06658 13.4334 3.43342 13.0429 3.04289L12.7071 2.70711C12.3166 2.31658 11.6834 2.31658 11.2929 2.70711L2.70711 11.2929C2.31658 11.6834 2.31658 12.3166 2.70711 12.7071L11.2929 21.2929C11.6834 21.6834 12.3166 21.6834 12.7071 21.2929L13.0429 20.9571C13.4334 20.5666 13.4334 19.9334 13.0429 19.5429L6.75 13.25H21C21.5523 13.25 22 12.8023 22 12.25V11.75Z" fill="black"/>
</svg>
