<svg width="24" height="24" viewBox="0 0 24 24" fill="none" xmlns="http://www.w3.org/2000/svg">
<path d="M13.2209 7.52659L21.6512 16.0106C21.7674 16.1277 21.8547 16.2544 21.9128 16.391C21.9709 16.5275 22 16.6738 22 16.8298C22 17.1418 21.8934 17.4149 21.6802 17.6489C21.4671 17.883 21.186 18 20.8372 18L3.16279 18C2.81395 18 2.53295 17.883 2.31977 17.6489C2.10659 17.4149 2 17.1418 2 16.8298C2 16.7518 2.11628 16.4787 2.34884 16.0106L10.7791 7.52659C10.9729 7.33156 11.1667 7.19503 11.3605 7.11702C11.5543 7.03901 11.7674 7 12 7C12.2326 7 12.4457 7.03901 12.6395 7.11702C12.8333 7.19503 13.0271 7.33156 13.2209 7.52659Z" fill="black"/>
</svg>
