<svg width="24" height="24" viewBox="0 0 24 24" fill="none" xmlns="http://www.w3.org/2000/svg">
<path fill-rule="evenodd" clip-rule="evenodd" d="M2 12.25C2 12.8023 2.44771 13.25 3 13.25L17.25 13.25L10.9571 19.5429C10.5666 19.9334 10.5666 20.5666 10.9571 20.9571L11.2929 21.2929C11.6834 21.6834 12.3166 21.6834 12.7071 21.2929L21.2929 12.7071C21.6834 12.3166 21.6834 11.6834 21.2929 11.2929L12.7071 2.70711C12.3166 2.31658 11.6834 2.31658 11.2929 2.70711L10.9571 3.04289C10.5666 3.43342 10.5666 4.06658 10.9571 4.45711L17.25 10.75L3 10.75C2.44771 10.75 2 11.1977 2 11.75L2 12.25Z" fill="black"/>
</svg>
