<svg width="24" height="24" viewBox="0 0 24 24" fill="none" xmlns="http://www.w3.org/2000/svg">
<path fill-rule="evenodd" clip-rule="evenodd" d="M20 11.7914C20 11.3304 19.6343 10.9568 19.1831 10.9568H7.54199L12.6828 5.70493C13.0018 5.37902 13.0018 4.8506 12.6828 4.52468L12.4085 4.24444C12.0894 3.91852 11.5722 3.91852 11.2532 4.24444L4.23927 11.4099C3.92024 11.7358 3.92024 12.2642 4.23927 12.5901L11.2532 19.7556C11.5722 20.0815 12.0894 20.0815 12.4085 19.7556L12.6828 19.4753C13.0018 19.1494 13.0018 18.621 12.6828 18.2951L7.54199 13.0432H19.1831C19.6343 13.0432 20 12.6696 20 12.2086V11.7914Z" fill="black"/>
</svg>
