<svg width="24" height="24" viewBox="0 0 24 24" fill="none" xmlns="http://www.w3.org/2000/svg">
<path d="M10.7791 17.4734L2.34884 8.98936C2.23256 8.87234 2.14535 8.74557 2.08721 8.60904C2.02907 8.47252 2 8.32624 2 8.17021C2 7.85816 2.10659 7.58511 2.31977 7.35106C2.53295 7.11702 2.81395 7 3.16279 7H20.8372C21.186 7 21.4671 7.11702 21.6802 7.35106C21.8934 7.58511 22 7.85816 22 8.17021C22 8.24823 21.8837 8.52128 21.6512 8.98936L13.2209 17.4734C13.0271 17.6684 12.8333 17.805 12.6395 17.883C12.4457 17.961 12.2326 18 12 18C11.7674 18 11.5543 17.961 11.3605 17.883C11.1667 17.805 10.9729 17.6684 10.7791 17.4734Z" fill="black"/>
</svg>
