<svg width="24" height="24" viewBox="0 0 24 24" fill="none" xmlns="http://www.w3.org/2000/svg">
<path fill-rule="evenodd" clip-rule="evenodd" d="M4 12.2086C4 12.6696 4.36575 13.0432 4.81692 13.0432L16.458 13.0432L11.3172 18.2951C10.9982 18.621 10.9982 19.1494 11.3172 19.4753L11.5915 19.7556C11.9106 20.0815 12.4278 20.0815 12.7468 19.7556L19.7607 12.5901C20.0798 12.2642 20.0798 11.7358 19.7607 11.4099L12.7468 4.24444C12.4278 3.91852 11.9106 3.91852 11.5915 4.24444L11.3172 4.52468C10.9982 4.85059 10.9982 5.37901 11.3172 5.70493L16.458 10.9568L4.81692 10.9568C4.36575 10.9568 4 11.3304 4 11.7914L4 12.2086Z" fill="black"/>
</svg>
