<svg width="24" height="24" viewBox="0 0 24 24" fill="none" xmlns="http://www.w3.org/2000/svg">
<path d="M5.20953 12.2079C4.79065 12.3201 4.36009 12.0715 4.24785 11.6526C4.13561 11.2337 4.3842 10.8032 4.80308 10.6909L15.1836 7.61336L15.59 9.13027L5.20953 12.2079Z" fill="black"/>
<path d="M2.98863 16.0546C2.56975 16.1668 2.13919 15.9183 2.02695 15.4994C1.91471 15.0805 2.16329 14.6499 2.58218 14.5377L11.4458 11.8666L11.8522 13.3835L2.98863 16.0546Z" fill="black"/>
<path d="M6.83534 18.2755C6.41646 18.3878 5.9859 18.1392 5.87367 17.7203C5.76143 17.3014 6.01001 16.8708 6.42889 16.7586L15.2925 14.0875L15.6989 15.6044L6.83534 18.2755Z" fill="black"/>
<path d="M21.7669 10.0358C22.7377 13.6592 20.5875 17.3835 16.9642 18.3544C13.3409 19.3253 9.61653 17.175 8.64566 13.5517C7.67479 9.92834 9.82504 6.20399 13.4484 5.23312C17.0717 4.26225 20.796 6.4125 21.7669 10.0358Z" fill="black"/>
</svg>
