<svg width="24" height="24" viewBox="0 0 24 24" fill="none" xmlns="http://www.w3.org/2000/svg">
<path d="M16.1642 5.75781C20.13 5.75781 22.9999 8.28342 23.0001 12.457C23.0001 12.4647 22.9991 12.4728 22.9991 12.4805C22.9991 12.487 23.0001 12.4935 23.0001 12.5C23.0001 12.5575 22.9967 12.6147 22.9952 12.6719C22.902 16.8811 20.0643 19.1745 16.1642 19.1885C14.5652 19.1942 13.7151 18.7159 12.0001 17.2812C9.15632 14.9023 9.37331 19.2355 7.23548 17.1016C6.29256 16.1917 6.10365 15.7207 6.10365 15.7207C9.09034 17.8861 10.0021 13.8694 7.39271 14.4971C4.75199 15.1873 3.74601 12.6147 1.0109 14.1523C0.823662 14.2761 3.1486 11.0774 4.50014 12.3633C5.47474 13.2734 6.82662 12.049 5.47475 12.0176C6.88926 11.0135 7.07839 13.1151 7.92688 12.959C8.77556 12.8021 8.24202 11.9559 7.61341 12.0811C7.58226 12.1119 7.99097 11.2966 8.74524 11.8926C9.81401 12.7391 10.7251 10.3863 8.17884 10.7314C7.01568 10.8569 6.7638 10.0723 6.7638 10.0723C6.79524 10.0723 6.89014 10.1982 7.48743 9.97852C8.58764 9.53912 7.20405 7.93842 6.4181 9.82129C5.88388 11.0442 3.37201 9.38397 3.49429 9.38184C5.72624 9.53873 6.13538 7.56197 7.73841 8.2832C12.2026 10.3544 11.6686 5.75797 16.1642 5.75781ZM16.5001 7C13.4625 7 11.0001 9.46243 11.0001 12.5C11.0001 15.5376 13.4625 18 16.5001 18C19.5376 17.9999 22.0001 15.5375 22.0001 12.5C22.0001 9.4625 19.5376 7.0001 16.5001 7Z" fill="black"/>
<path d="M21.45 12.5C21.45 15.2339 19.2339 17.45 16.5 17.45C13.7662 17.45 11.55 15.2339 11.55 12.5C11.55 9.76624 13.7662 7.55005 16.5 7.55005C19.2339 7.55005 21.45 9.76624 21.45 12.5Z" fill="black"/>
</svg>
