<svg width="24" height="24" viewBox="0 0 24 24" fill="none" xmlns="http://www.w3.org/2000/svg">
<path d="M20.0001 14.2966C20.0001 17.9988 16.9989 21 13.2967 21C9.59448 21 6.59326 17.9988 6.59326 14.2966C6.59326 10.5944 9.59448 7.59314 13.2967 7.59314C16.9989 7.59314 20.0001 10.5944 20.0001 14.2966Z" fill="black"/>
<path d="M9.79678 5.25028H9.94003V6.42402C9.94003 6.68264 10.0833 6.90147 10.3084 7.02083C10.4107 7.08051 10.5335 7.1004 10.6563 7.1004C10.7995 7.1004 10.9223 7.06062 11.0451 7.00094L14.0328 5.13092C14.2375 5.01156 14.3603 4.79273 14.3603 4.554C14.3603 4.31528 14.2375 4.09645 14.0328 3.97708L11.0246 2.10707C10.7995 1.96782 10.5335 1.96782 10.3084 2.08718C10.0833 2.20654 9.94003 2.44527 9.94003 2.68399V3.85772H9.79678C5.49934 3.87762 2 7.27945 2 11.4571C2 11.8351 2.32742 12.1534 2.71624 12.1534C3.10506 12.1534 3.43248 11.8351 3.43248 11.4571C3.41202 8.03541 6.27697 5.25028 9.79678 5.25028Z" fill="black"/>
</svg>
