<svg width="24" height="24" viewBox="0 0 24 24" fill="none" xmlns="http://www.w3.org/2000/svg">
<circle cx="6.70342" cy="6.70342" r="6.70342" transform="matrix(-1 0 0 1 17.4067 7.59314)" fill="black"/>
<path d="M14.2032 5.25028H14.06V6.42402C14.06 6.68264 13.9167 6.90147 13.6916 7.02083C13.5893 7.08051 13.4665 7.1004 13.3437 7.1004C13.2005 7.1004 13.0777 7.06062 12.9549 7.00094L9.96718 5.13092C9.76254 5.01156 9.63975 4.79273 9.63975 4.554C9.63975 4.31528 9.76254 4.09645 9.96718 3.97708L12.9754 2.10707C13.2005 1.96782 13.4665 1.96782 13.6916 2.08718C13.9167 2.20654 14.06 2.44527 14.06 2.68399V3.85772H14.2032C18.5007 3.87762 22 7.27945 22 11.4571C22 11.8351 21.6726 12.1534 21.2838 12.1534C20.8949 12.1534 20.5675 11.8351 20.5675 11.4571C20.588 8.03541 17.723 5.25028 14.2032 5.25028Z" fill="black"/>
</svg>
