<svg width="24" height="24" viewBox="0 0 24 24" fill="none" xmlns="http://www.w3.org/2000/svg">
<path d="M21.5065 3.1902L21.8673 3.60618C22.0636 3.83224 22.0393 4.1785 21.8132 4.3754L16.9068 8.64172L17.5932 9.43228C17.9635 9.85904 17.9173 10.5116 17.4911 10.8826L12.4163 15.2958L10.7724 16.7252L7.31273 19.7334L6.14844 20.7458C5.72147 21.1172 5.06929 21.0714 4.69852 20.6446L2.25036 17.8257C1.8798 17.3987 1.92607 16.7461 2.35282 16.3747L13.6953 6.51194C14.1221 6.14054 14.7745 6.18596 15.1452 6.61314L15.831 7.40286L20.7385 3.1359C20.9648 2.93921 21.3104 2.96372 21.5065 3.1902Z" fill="black"/>
</svg>
