<svg width="24" height="24" viewBox="0 0 24 24" fill="none" xmlns="http://www.w3.org/2000/svg">
<path d="M2.49353 3.1902L2.13269 3.60618C1.93642 3.83224 1.96072 4.1785 2.18677 4.3754L7.09323 8.64172L6.40682 9.43228C6.03647 9.85904 6.08274 10.5116 6.50887 10.8826L11.5837 15.2958L13.2276 16.7252L16.6873 19.7334L17.8516 20.7458C18.2785 21.1172 18.9307 21.0714 19.3015 20.6446L21.7496 17.8257C22.1202 17.3987 22.0739 16.7461 21.6472 16.3747L10.3047 6.51194C9.87794 6.14054 9.22554 6.18596 8.85477 6.61314L8.169 7.40286L3.26149 3.1359C3.03522 2.93921 2.68959 2.96372 2.49353 3.1902Z" fill="black"/>
</svg>
