<svg width="24" height="24" viewBox="0 0 24 24" fill="none" xmlns="http://www.w3.org/2000/svg">
<path d="M5.20943 12.2079C4.79054 12.3201 4.35998 12.0715 4.24774 11.6526C4.1355 11.2337 4.38409 10.8032 4.80297 10.6909L15.1835 7.61336L15.59 9.13027L5.20943 12.2079Z" fill="black"/>
<path d="M2.98851 16.0546C2.56963 16.1668 2.13907 15.9183 2.02683 15.4994C1.91459 15.0805 2.16317 14.6499 2.58205 14.5377L11.4457 11.8666L11.8521 13.3835L2.98851 16.0546Z" fill="black"/>
<path d="M6.83525 18.2755C6.41636 18.3878 5.9858 18.1392 5.87356 17.7203C5.76132 17.3014 6.00991 16.8708 6.42879 16.7586L15.2924 14.0875L15.6989 15.6044L6.83525 18.2755Z" fill="black"/>
<path d="M21.7669 10.0358C22.7378 13.6592 20.5875 17.3835 16.9641 18.3544C13.3408 19.3253 9.61645 17.175 8.64558 13.5517C7.6747 9.92834 9.82496 6.20399 13.4483 5.23312C17.0717 4.26225 20.796 6.4125 21.7669 10.0358Z" fill="black"/>
</svg>
