<svg width="24" height="24" viewBox="0 0 24 24" fill="none" xmlns="http://www.w3.org/2000/svg">
<path d="M16.1643 5.75781C20.1302 5.75781 23.0001 8.28342 23.0002 12.457C23.0002 12.4647 22.9993 12.4728 22.9993 12.4805C22.9993 12.487 23.0002 12.4935 23.0002 12.5C23.0002 12.5575 22.9968 12.6147 22.9954 12.6719C22.9022 16.8811 20.0645 19.1745 16.1643 19.1885C14.5653 19.1942 13.7152 18.7159 12.0002 17.2812C9.15645 14.9023 9.37344 19.2355 7.2356 17.1016C6.29267 16.1917 6.10376 15.7207 6.10376 15.7207C9.09046 17.8861 10.0023 13.8694 7.39282 14.4971C4.7521 15.1873 3.74611 12.6147 1.01099 14.1523C0.82375 14.2761 3.1487 11.0774 4.50024 12.3633C5.47485 13.2734 6.82673 12.049 5.47485 12.0176C6.88937 11.0135 7.07851 13.1151 7.927 12.959C8.77568 12.8021 8.24214 11.9559 7.61353 12.0811C7.58238 12.1119 7.99109 11.2966 8.74536 11.8926C9.81413 12.7391 10.7252 10.3863 8.17896 10.7314C7.01579 10.8569 6.76392 10.0723 6.76392 10.0723C6.79535 10.0723 6.89026 10.1982 7.48755 9.97852C8.58777 9.53912 7.20417 7.93842 6.41821 9.82129C5.88399 11.0442 3.37211 9.38397 3.49438 9.38184C5.72635 9.53873 6.13549 7.56197 7.73853 8.2832C12.2028 10.3544 11.6688 5.75797 16.1643 5.75781ZM16.5002 7C13.4627 7 11.0002 9.46243 11.0002 12.5C11.0002 15.5376 13.4627 18 16.5002 18C19.5377 17.9999 22.0002 15.5375 22.0002 12.5C22.0002 9.4625 19.5377 7.0001 16.5002 7Z" fill="black"/>
<circle cx="16.5" cy="12.5" r="4.95" fill="black"/>
</svg>
