<svg width="24" height="24" viewBox="0 0 24 24" fill="none" xmlns="http://www.w3.org/2000/svg">
<path d="M4 21C3.45 21 2.97917 20.8145 2.5875 20.4434C2.19583 20.0724 2 19.6263 2 19.1053V8.68421C2 8.16316 2.19583 7.71711 2.5875 7.34605C2.97917 6.975 3.45 6.78947 4 6.78947H8V4.89474C8 4.37368 8.19583 3.92763 8.5875 3.55658C8.97917 3.18553 9.45 3 10 3H14C14.55 3 15.0208 3.18553 15.4125 3.55658C15.8042 3.92763 16 4.37368 16 4.89474V6.78947H20C20.55 6.78947 21.0208 6.975 21.4125 7.34605C21.8042 7.71711 22 8.16316 22 8.68421V19.1053C22 19.6263 21.8042 20.0724 21.4125 20.4434C21.0208 20.8145 20.55 21 20 21H4ZM4 19.1053H20V8.68421H4V19.1053ZM10 6.78947H14V4.89474H10V6.78947Z" fill="black"/>
</svg>
