<svg width="24" height="24" viewBox="0 0 24 24" fill="none" xmlns="http://www.w3.org/2000/svg">
<path d="M16.6615 10.3939C17.7965 10.394 18.1903 11.0767 17.9668 12.6413L17.9727 12.653C17.755 14.2176 17.1729 14.8821 16.0319 14.8822C14.8908 14.8822 14.4966 14.2059 14.7201 12.6413C14.9436 11.0766 15.5262 10.3939 16.6615 10.3939Z" fill="black"/>
<path fill-rule="evenodd" clip-rule="evenodd" d="M22 18C22 20.2091 20.2091 22 18 22H6C3.79086 22 2 20.2091 2 18V6C2 3.79086 3.79086 2 6 2H18C20.2091 2 22 3.79086 22 6V18ZM8.23763 8.80013C5.46135 8.80019 4.12648 9.98252 3.74414 12.6413C3.36184 15.3 4.38511 16.4766 7.1556 16.4766C9.50244 16.4765 10.7142 15.6177 11.2201 13.612H9.03776C8.96053 13.9879 8.74997 14.3233 8.44531 14.5566C8.14061 14.79 7.76197 14.9056 7.37891 14.8822C6.14376 14.8821 5.70883 14.2059 5.92643 12.6413C6.14407 11.0766 6.77317 10.3939 8.01432 10.3939C8.88487 10.3939 9.2733 10.7765 9.30859 11.6647H11.4909C11.5556 9.65883 10.5905 8.80013 8.23763 8.80013ZM13.4733 6L12.0202 16.3294H13.7318L14.1198 15.6354C14.5727 16.2119 15.3142 16.4766 16.3906 16.4766C18.6434 16.4707 19.7609 15.3058 20.1374 12.6413C20.5138 9.97657 19.7197 8.80013 17.4609 8.80013C16.6427 8.75183 15.833 8.98656 15.1673 9.46484L15.6556 6H13.4733Z" fill="black"/>
</svg>
