<svg width="54" height="36" viewBox="0 0 54 36" fill="none" xmlns="http://www.w3.org/2000/svg">
<path d="M34.4752 10.4161L31.4812 14.0431H34.7148L32.9662 24.976H36.0061L38.4492 10.4161H34.4752Z" fill="#00B489"/>
<path d="M41.6275 10.4161L38.6335 14.0431H41.8669L40.1185 24.976H43.1583L45.6013 10.4161H41.6275Z" fill="#00B489"/>
<path d="M29.363 17.6906C29.363 25.4934 23.0376 31.8187 15.2348 31.8187C7.43207 31.8187 1.10669 25.4934 1.10669 17.6906C1.10669 9.88788 7.43207 3.5625 15.2348 3.5625C23.0376 3.5625 29.363 9.88788 29.363 17.6906Z" fill="#F8F9FB"/>
<path fill-rule="evenodd" clip-rule="evenodd" d="M29.9065 17.6905C29.9065 25.7935 23.3378 32.3621 15.235 32.3621C7.13214 32.3621 0.563477 25.7935 0.563477 17.6905C0.563477 9.58771 7.13214 3.01904 15.235 3.01904C23.3378 3.01904 29.9065 9.58771 29.9065 17.6905ZM15.235 31.8187C23.0378 31.8187 29.3632 25.4933 29.3632 17.6905C29.3632 9.88781 23.0378 3.56243 15.235 3.56243C7.43225 3.56243 1.10687 9.88781 1.10687 17.6905C1.10687 25.4933 7.43225 31.8187 15.235 31.8187Z" fill="#737373"/>
<path fill-rule="evenodd" clip-rule="evenodd" d="M2.20126 15.3594L1.85824 14.5233C1.75105 15.0378 1.64386 15.5738 1.60098 16.1097L1.944 16.7529C2.00832 16.2813 2.09407 15.8096 2.20126 15.3594ZM14.0998 3.954C14.4427 3.91113 14.7858 3.91113 15.1288 3.91113L15.043 4.12551C14.6787 4.1684 14.3142 4.21127 13.9711 4.27559L14.0998 3.954ZM12.8778 4.12551C13.1565 4.06121 13.4352 4.01832 13.7139 4.01832L13.5639 4.38278C13.1994 4.4471 12.8349 4.55429 12.4704 4.64004L12.6634 4.1684C12.7276 4.14696 12.792 4.12551 12.8778 4.12551ZM8.74008 5.54048C9.23317 5.26178 9.7477 5.02595 10.2837 4.833L9.96208 5.6048C9.49044 5.84061 9.04023 6.09788 8.59 6.37659L8.74008 5.54048ZM10.8625 4.61861C11.2913 4.46853 11.7415 4.33991 12.1917 4.25415L11.9773 4.76868C11.5057 4.91876 11.034 5.09027 10.5838 5.30465L10.8625 4.61861ZM7.94685 6.80537C7.53951 7.1055 7.13217 7.40565 6.76771 7.74867L6.8106 6.80537C7.21792 6.48378 7.66815 6.18363 8.09691 5.92637L7.94685 6.80537ZM4.92399 8.62766C5.33131 8.156 5.76009 7.72722 6.21031 7.3199L6.16743 8.34896C5.7601 8.73485 5.39563 9.16362 5.05261 9.5924L4.92399 8.62766ZM15.5148 3.93257L15.4504 4.10408H17.5728C16.8868 3.99689 16.2007 3.93257 15.5148 3.93257ZM1.75105 20.0331L1.92256 20.3331L1.944 20.2904C1.98688 20.762 2.07264 21.2336 2.15839 21.6839C1.98688 21.1479 1.85824 20.5905 1.75105 20.0331ZM1.55811 17.1603L1.81537 17.7819V19.0898L1.55811 18.5967V17.1603ZM2.17983 13.4728C2.3299 12.9797 2.52285 12.4866 2.73723 12.015L3.03738 12.9154C2.84443 13.3656 2.67292 13.8373 2.52285 14.3089L2.17983 13.4728ZM3.18745 11.136C3.50902 10.5357 3.89493 9.95685 4.30227 9.39945L4.47378 10.4499C4.10931 10.9645 3.78774 11.5004 3.50902 12.0364L3.18745 11.136ZM12.3847 5.09027C12.7491 4.96163 13.1136 4.87587 13.4781 4.76868L13.2208 5.3904C12.8349 5.51904 12.4489 5.69055 12.0846 5.84061L12.3847 5.09027ZM13.9497 5.13314C14.4213 4.98306 14.8716 4.87587 15.3646 4.76868L15.5362 4.36134C15.0859 4.42566 14.6358 4.48998 14.1855 4.57574L13.9497 5.13314ZM2.50141 18.7896L2.11551 17.9535V17.975C2.07264 18.4895 2.05119 18.9825 2.05119 19.497V19.8615L2.39422 20.3546C2.41566 19.8186 2.45853 19.3041 2.50141 18.7896ZM9.55475 6.33371C8.99734 6.65529 8.46138 7.01975 7.9254 7.42709L7.86109 8.47758C8.28987 8.09168 8.76151 7.72722 9.23317 7.3842L9.55475 6.33371ZM10.2193 6.76248C10.5838 6.5481 10.9054 6.35514 11.2698 6.1622L11.6343 5.32608C11.1627 5.49759 10.7124 5.71199 10.2622 5.94782L9.98351 6.91256C10.0693 6.84824 10.1336 6.80537 10.2193 6.76248ZM17.187 4.29702H16.1151L15.9649 4.66149C16.0078 4.66149 16.0293 4.64004 16.0722 4.64004C16.3938 4.57574 16.7796 4.51142 17.1226 4.51142L17.2299 4.27559H17.187V4.29702ZM5.88873 10.5571C6.3175 10.0212 6.76771 9.52808 7.26081 9.05643L7.32513 7.94162C6.78915 8.39183 6.29607 8.88492 5.82441 9.42089L5.88873 10.5571ZM2.6086 17.7392C2.71579 17.1603 2.84443 16.5815 3.01594 16.0026L2.6086 15.1451C2.43709 15.7239 2.30845 16.3028 2.20126 16.9029L2.6086 17.7392ZM2.69436 23.9778C2.50141 23.0559 2.39421 22.1126 2.35134 21.1694L2.05119 20.7405C2.15839 21.8339 2.37277 22.9272 2.69436 23.9778ZM19.7167 4.48998C19.7382 4.48998 19.7811 4.48998 19.8025 4.48998V4.51142C19.7811 4.48998 19.7382 4.48998 19.7167 4.48998ZM19.7167 4.48998C19.1164 4.38278 18.5161 4.29702 17.9158 4.27559L17.8515 4.4471H18.6234C18.7948 4.4471 18.9877 4.46853 19.2022 4.46853C19.3522 4.46853 19.5453 4.48998 19.7167 4.48998ZM4.40946 12.7868C4.70959 12.2508 5.03118 11.7577 5.3742 11.2646L5.30988 10.0426C4.8811 10.5786 4.49521 11.1146 4.15219 11.6934L4.40946 12.7868ZM3.31608 15.2307C3.50902 14.6734 3.74485 14.116 4.02355 13.58L3.74485 12.5081C3.42327 13.1298 3.14457 13.7515 2.90874 14.4161L3.31608 15.2307Z" fill="#00B489"/>
<path fill-rule="evenodd" clip-rule="evenodd" d="M8.69706 23.849C12.02 23.849 13.7137 22.6269 14.4427 19.797H11.3555C11.2483 20.333 10.9481 20.8046 10.5194 21.1262C10.0906 21.4478 9.55461 21.6194 9.01864 21.5765C7.28211 21.5765 6.66039 20.6117 6.96053 18.4035C7.26068 16.1954 8.16109 15.2306 9.89763 15.2306C11.1196 15.2306 11.677 15.7665 11.7199 17.0315H14.8072C14.8928 14.2015 13.5422 12.9795 10.2192 12.9795C6.29592 12.9795 4.40931 14.6517 3.87335 18.4035C3.33738 22.1553 4.79522 23.849 8.69706 23.849ZM18.5374 22.6698C19.1806 23.4845 20.231 23.849 21.7318 23.849C24.9047 23.849 26.4913 22.1981 27.0272 18.4464C27.5632 14.6946 26.4484 13.0224 23.254 13.0224C22.0963 12.9581 20.96 13.2796 20.0167 13.9657L20.7028 9.07764H17.6156L15.5575 23.6559H17.98L18.5374 22.6698ZM22.1177 15.2735C23.7256 15.2735 24.283 16.2381 23.9614 18.4464V18.4679C23.6614 20.676 22.8251 21.6194 21.2173 21.6194C19.6094 21.6194 19.052 20.6546 19.3736 18.4464C19.6951 16.2381 20.5099 15.2735 22.1177 15.2735Z" fill="#00B489"/>
<path d="M47.3171 4.72412L46.8011 3.13477H46.7683L46.2512 4.72412H47.3171Z" fill="#A1A1A1"/>
<path d="M50.7622 5.61422H50.1982V2.93591H50.7643C51.0268 2.93591 51.2476 2.9824 51.4267 3.07537C51.6058 3.16834 51.7405 3.31325 51.8307 3.51013C51.9223 3.707 51.9681 3.96062 51.9681 4.27097C51.9681 4.58405 51.9223 4.83971 51.8307 5.03797C51.7405 5.23484 51.6051 5.38045 51.4246 5.47478C51.2455 5.56775 51.0247 5.61422 50.7622 5.61422Z" fill="#A1A1A1"/>
<path fill-rule="evenodd" clip-rule="evenodd" d="M45 0C44.1716 0 43.5 0.671572 43.5 1.5V6.75C43.5 7.57842 44.1716 8.25 45 8.25H52.5C53.3284 8.25 54 7.57842 54 6.75V1.5C54 0.671572 53.3284 0 52.5 0H45ZM44.7627 6.37492H45.7143L46.0258 5.4172H47.5422L47.8531 6.37492H48.8047L47.357 2.17492H46.2126L44.7627 6.37492ZM49.3103 6.37492H50.7992C51.2258 6.37492 51.5922 6.29085 51.8983 6.12268C52.206 5.95452 52.4418 5.71321 52.6059 5.39875C52.7713 5.08429 52.854 4.70832 52.854 4.27083C52.854 3.83469 52.7713 3.46008 52.6059 3.147C52.4418 2.83391 52.2073 2.59396 51.9025 2.42718C51.5976 2.25901 51.234 2.17492 50.8114 2.17492H49.3103V6.37492Z" fill="#A1A1A1"/>
</svg>
