<svg width="54" height="36" viewBox="0 0 54 36" fill="none" xmlns="http://www.w3.org/2000/svg">
<path d="M39.7174 9.77283L36.3606 13.7295H39.986L38.0256 25.6563H41.4339L44.173 9.77283H39.7174Z" fill="#00B489"/>
<path d="M47.7367 9.77283L44.3799 13.7295H48.0053L46.0449 25.6563H49.4532L52.1924 9.77283H47.7367Z" fill="#00B489"/>
<path d="M18.1453 33.4179C27.0621 33.4179 34.2906 26.3847 34.2906 17.7089C34.2906 9.03313 27.0621 2 18.1453 2C9.2285 2 2 9.03313 2 17.7089C2 26.3847 9.2285 33.4179 18.1453 33.4179Z" fill="#F8F9FB" stroke="#737373" stroke-width="0.790385"/>
<path fill-rule="evenodd" clip-rule="evenodd" d="M3.53142 15.1655L3.14682 14.2533C3.02664 14.8146 2.90644 15.3993 2.85837 15.984L3.24297 16.6857C3.31509 16.1711 3.41123 15.6566 3.53142 15.1655ZM16.8722 2.72317C17.2567 2.67639 17.6413 2.67639 18.026 2.67639L17.9298 2.91028C17.5212 2.95705 17.1126 3.00382 16.7279 3.07399L16.8722 2.72317ZM15.502 2.91028C15.8146 2.84011 16.127 2.79334 16.4395 2.79334L16.2713 3.19092C15.8625 3.26109 15.4539 3.37803 15.0453 3.47158L15.2616 2.95705C15.3338 2.93366 15.4059 2.91028 15.502 2.91028ZM10.8628 4.45386C11.4157 4.14983 11.9926 3.89256 12.5935 3.68206L12.233 4.52402C11.7041 4.78129 11.1994 5.06194 10.6946 5.36599L10.8628 4.45386ZM13.2425 3.44819C13.7232 3.28448 14.2281 3.14416 14.7329 3.0506L14.4925 3.61191C13.9636 3.77562 13.4348 3.96272 12.9301 4.19659L13.2425 3.44819ZM9.97343 5.83374C9.51673 6.16117 9.06002 6.48859 8.65138 6.8628L8.69945 5.83374C9.15616 5.48292 9.66095 5.1555 10.1417 4.87484L9.97343 5.83374ZM6.58416 7.82169C7.04087 7.30716 7.52162 6.83941 8.0264 6.39505L7.97834 7.51765C7.52163 7.93864 7.11299 8.40639 6.72838 8.87414L6.58416 7.82169ZM18.4587 2.69978L18.3865 2.88689H20.7662C19.9971 2.76995 19.2278 2.69978 18.4587 2.69978ZM3.02664 20.264L3.21893 20.5913L3.24297 20.5446C3.29105 21.0591 3.38719 21.5737 3.48334 22.0649C3.29105 21.4801 3.14682 20.872 3.02664 20.264ZM2.8103 17.13L3.09874 17.8082V19.2349L2.8103 18.6969V17.13ZM3.50738 13.1073C3.67564 12.5694 3.89197 12.0314 4.13235 11.517L4.46887 12.4992C4.25254 12.9904 4.06024 13.505 3.89197 14.0194L3.50738 13.1073ZM4.63714 10.5581C4.9977 9.9032 5.43038 9.27173 5.88708 8.66365L6.07938 9.80965C5.67075 10.371 5.31018 10.9556 4.9977 11.5404L4.63714 10.5581ZM14.9492 3.96272C15.3578 3.8224 15.7665 3.72884 16.1751 3.61191L15.8866 4.29015C15.4539 4.43047 15.0213 4.61758 14.6126 4.78129L14.9492 3.96272ZM16.7039 4.00949C17.2327 3.84578 17.7375 3.72884 18.2903 3.61191L18.4827 3.16753C17.9779 3.2377 17.4731 3.30787 16.9683 3.40142L16.7039 4.00949ZM3.86795 18.9074L3.43527 17.9954V18.0187C3.38719 18.5801 3.36316 19.1179 3.36316 19.6793V20.0769L3.74776 20.6147C3.77179 20.0301 3.81987 19.4688 3.86795 18.9074ZM11.7762 5.31921C11.1513 5.67003 10.5503 6.06761 9.94939 6.51198L9.87729 7.65798C10.358 7.237 10.8868 6.83941 11.4157 6.4652L11.7762 5.31921ZM12.5214 5.78696C12.9301 5.55308 13.2906 5.3426 13.6992 5.13211L14.1078 4.21998C13.5791 4.40709 13.0742 4.64097 12.5694 4.89823L12.257 5.95068C12.3531 5.88052 12.4252 5.83374 12.5214 5.78696ZM20.3335 3.09738H19.1317L18.9634 3.49496C19.0115 3.49496 19.0355 3.47158 19.0836 3.47158C19.4441 3.40142 19.8768 3.33125 20.2614 3.33125L20.3816 3.07399H20.3335V3.09738ZM7.66585 9.92659C8.14659 9.34189 8.65138 8.80397 9.20424 8.28944L9.27635 7.07329C8.67542 7.56443 8.12255 8.10235 7.59373 8.68704L7.66585 9.92659ZM3.98813 17.7615C4.10832 17.13 4.25254 16.4986 4.44484 15.8671L3.98813 14.9316C3.79583 15.563 3.6516 16.1945 3.53142 16.8494L3.98813 17.7615ZM4.08428 24.5673C3.86795 23.5617 3.74776 22.5325 3.69968 21.5035L3.36316 21.0357C3.48334 22.2285 3.72372 23.4213 4.08428 24.5673ZM23.1699 3.30787C23.194 3.30787 23.2421 3.30787 23.2661 3.30787V3.33125C23.2421 3.30787 23.194 3.30787 23.1699 3.30787ZM23.1699 3.30787C22.4969 3.19092 21.8238 3.09738 21.1508 3.07399L21.0787 3.26109H21.9441C22.1364 3.26109 22.3527 3.28448 22.5931 3.28448C22.7613 3.28448 22.9776 3.30787 23.1699 3.30787ZM6.00726 12.3589C6.34379 11.7743 6.70436 11.2363 7.08895 10.6984L7.01683 9.36528C6.53609 9.94998 6.10342 10.5347 5.71883 11.1661L6.00726 12.3589ZM4.78136 15.0251C4.9977 14.417 5.26211 13.8089 5.5746 13.2243L5.26211 12.0548C4.90155 12.7331 4.58907 13.4114 4.32465 14.1364L4.78136 15.0251Z" fill="#00B489"/>
<path fill-rule="evenodd" clip-rule="evenodd" d="M10.8145 24.4269C14.5403 24.4269 16.4392 23.0938 17.2565 20.0066H13.7951C13.6749 20.5913 13.3385 21.1058 12.8577 21.4567C12.3769 21.8074 11.776 21.9945 11.175 21.9477C9.22803 21.9477 8.53095 20.8953 8.86748 18.4864C9.20399 16.0775 10.2136 15.025 12.1606 15.025C13.5308 15.025 14.1557 15.6097 14.2038 16.9896H17.6652C17.7612 13.9024 16.2469 12.5693 12.5211 12.5693C8.12231 12.5693 6.00703 14.3936 5.40609 18.4864C4.80515 22.5793 6.4397 24.4269 10.8145 24.4269ZM21.8477 23.1406C22.5688 24.0293 23.7466 24.4269 25.4293 24.4269C28.9867 24.4269 30.7655 22.626 31.3665 18.5331C31.9674 14.4404 30.7175 12.6161 27.1359 12.6161C25.8379 12.5459 24.5638 12.8968 23.5062 13.6451L24.2754 8.31274H20.8141L18.5065 24.2164H21.2227L21.8477 23.1406ZM25.8619 15.0718C27.6646 15.0718 28.2897 16.1243 27.9291 18.5331V18.5565C27.5926 20.9655 26.6551 21.9945 24.8523 21.9945C23.0495 21.9945 22.4245 20.9421 22.7852 18.5331C23.1457 16.1243 24.0591 15.0718 25.8619 15.0718Z" fill="#00B489"/>
</svg>
