<svg width="24" height="24" viewBox="0 0 24 24" fill="none" xmlns="http://www.w3.org/2000/svg">
<path d="M20.1818 4H3.81818C2.81818 4 2 4.85 2 5.88889V8.72222H3.81818V5.88889H20.1818V19.1111H13.8182V21H20.1818C21.1818 21 22 20.15 22 19.1111V5.88889C22 4.85 21.1818 4 20.1818 4ZM2 18.1667V21H4.72727C4.72727 19.4322 3.50909 18.1667 2 18.1667ZM2 14.3889V16.2778C4.50909 16.2778 6.54545 18.3933 6.54545 21H8.36364C8.36364 17.345 5.51818 14.3889 2 14.3889ZM2 10.6111V12.5C6.51818 12.5 10.1818 16.3061 10.1818 21H12C12 15.2578 7.51818 10.6111 2 10.6111Z" fill="black"/>
</svg>
