<svg width="24" height="24" viewBox="0 0 24 24" fill="none" xmlns="http://www.w3.org/2000/svg">
<path d="M7 12.675H17V11.175H7V12.675ZM12 22C10.6333 22 9.34167 21.7375 8.125 21.2125C6.90833 20.6875 5.84583 19.9708 4.9375 19.0625C4.02917 18.1542 3.3125 17.0917 2.7875 15.875C2.2625 14.6583 2 13.3667 2 12C2 10.6167 2.2625 9.31667 2.7875 8.1C3.3125 6.88333 4.02917 5.825 4.9375 4.925C5.84583 4.025 6.90833 3.3125 8.125 2.7875C9.34167 2.2625 10.6333 2 12 2C13.3833 2 14.6833 2.2625 15.9 2.7875C17.1167 3.3125 18.175 4.025 19.075 4.925C19.975 5.825 20.6875 6.88333 21.2125 8.1C21.7375 9.31667 22 10.6167 22 12C22 13.3667 21.7375 14.6583 21.2125 15.875C20.6875 17.0917 19.975 18.1542 19.075 19.0625C18.175 19.9708 17.1167 20.6875 15.9 21.2125C14.6833 21.7375 13.3833 22 12 22ZM12 20.5C14.3667 20.5 16.375 19.6708 18.025 18.0125C19.675 16.3542 20.5 14.35 20.5 12C20.5 9.63333 19.675 7.625 18.025 5.975C16.375 4.325 14.3667 3.5 12 3.5C9.65 3.5 7.64583 4.325 5.9875 5.975C4.32917 7.625 3.5 9.63333 3.5 12C3.5 14.35 4.32917 16.3542 5.9875 18.0125C7.64583 19.6708 9.65 20.5 12 20.5Z" fill="black"/>
<path d="M21.7002 12C21.7002 10.6557 21.4456 9.39622 20.9375 8.21875C20.4269 7.03544 19.7354 6.00881 18.8633 5.13672C17.9912 4.26463 16.9646 3.57311 15.7812 3.0625C14.6038 2.55443 13.3443 2.2998 12 2.2998C10.673 2.2998 9.42197 2.55432 8.24414 3.0625C7.06063 3.57319 6.02918 4.26506 5.14844 5.1377C4.26836 6.0097 3.57286 7.03602 3.0625 8.21875C2.55443 9.39622 2.2998 10.6557 2.2998 12C2.2998 13.327 2.55432 14.578 3.0625 15.7559C3.57296 16.9388 4.26874 17.9699 5.14941 18.8506C6.03009 19.7313 7.06117 20.427 8.24414 20.9375C9.42197 21.4457 10.673 21.7002 12 21.7002C13.3443 21.7002 14.6038 21.4456 15.7812 20.9375C16.964 20.4271 17.9903 19.7316 18.8623 18.8516C19.7349 17.9708 20.4268 16.9394 20.9375 15.7559C21.4457 14.578 21.7002 13.327 21.7002 12ZM20.2002 12C20.2002 9.71163 19.4053 7.78035 17.8125 6.1875C16.2197 4.59465 14.2884 3.7998 12 3.7998C9.72896 3.7998 7.80102 4.59382 6.19922 6.1875C4.59821 7.78046 3.7998 9.71211 3.7998 12C3.7998 14.2706 4.59728 16.1988 6.19922 17.8008C7.80116 19.4027 9.72938 20.2002 12 20.2002C14.2879 20.2002 16.2195 19.4018 17.8125 17.8008C19.4062 16.199 20.2002 14.271 20.2002 12ZM17.2998 10.875V12.9746H6.7002V10.875H17.2998ZM7.2998 12.375H16.7002V11.4746H7.2998V12.375ZM20.7998 12C20.7998 14.4289 19.9435 16.5088 18.2373 18.2236C16.5303 19.9393 14.4454 20.7998 12 20.7998C9.57062 20.7998 7.49011 19.9393 5.77539 18.2246C4.06067 16.5099 3.2002 14.4294 3.2002 12C3.2002 9.55455 4.06071 7.46973 5.77637 5.7627C7.49119 4.05651 9.57113 3.2002 12 3.2002C14.445 3.2002 16.5302 4.05554 18.2373 5.7627C19.9445 7.46985 20.7998 9.55504 20.7998 12ZM22.2998 12C22.2998 13.4062 22.03 14.7388 21.4883 15.9941C20.949 17.2438 20.2153 18.3376 19.2881 19.2734C18.3601 20.21 17.2692 20.9486 16.0186 21.4883C14.7628 22.0301 13.4222 22.2998 12 22.2998C10.5938 22.2998 9.26125 22.03 8.00586 21.4883C6.75555 20.9487 5.66155 20.2104 4.72559 19.2744C3.78962 18.3385 3.05125 17.2445 2.51172 15.9941C1.97001 14.7388 1.7002 13.4062 1.7002 12C1.7002 10.5778 1.96992 9.23718 2.51172 7.98145C3.05136 6.73084 3.78997 5.63991 4.72656 4.71191C5.66241 3.78467 6.75617 3.05099 8.00586 2.51172C9.26125 1.97001 10.5938 1.7002 12 1.7002C13.4222 1.7002 14.7628 1.96992 16.0186 2.51172C17.2686 3.05111 18.3592 3.78498 19.2871 4.71289C20.215 5.6408 20.9489 6.73142 21.4883 7.98145C22.0301 9.23718 22.2998 10.5778 22.2998 12Z" fill="black"/>
</svg>
