<svg width="24" height="24" viewBox="0 0 24 24" fill="none" xmlns="http://www.w3.org/2000/svg">
<path d="M20.2665 4.63153C21.2241 4.63153 21.9999 5.40838 21.9999 6.36591V17.6345C21.9999 18.592 21.2241 19.3688 20.2665 19.3688H3.73431C2.77679 19.3688 1.99994 18.592 1.99994 17.6345V6.36591C1.99994 5.40838 2.77679 4.63153 3.73431 4.63153H20.2665ZM7.21088 8.54266C6.85315 8.54266 6.53904 8.6686 6.28802 8.91962C6.03701 9.17063 5.91107 9.48474 5.91107 9.84247V13.4743C5.91113 13.8319 6.03707 14.1462 6.28802 14.3972C6.53902 14.6481 6.85321 14.7741 7.21088 14.7741H9.84271C10.2003 14.774 10.5146 14.6481 10.7656 14.3972C11.0165 14.1462 11.1425 13.8319 11.1425 13.4743V12.7263H9.75287V13.3454C9.75233 13.3466 9.74817 13.354 9.73529 13.3669C9.72241 13.3798 9.71502 13.3839 9.71381 13.3845H7.33978L7.31732 13.3669C7.30474 13.3542 7.30125 13.3466 7.30072 13.3454V9.97137L7.31732 9.94891C7.3302 9.93604 7.33857 9.93285 7.33978 9.93231H9.71381C9.71501 9.93285 9.72264 9.93633 9.73529 9.94891C9.74817 9.96179 9.75233 9.97016 9.75287 9.97137V10.6159H11.1425V9.84247C11.1425 9.4848 11.0165 9.17061 10.7656 8.91962C10.5146 8.66866 10.2003 8.54272 9.84271 8.54266H7.21088ZM13.7636 8.54266C13.4015 8.54266 13.0858 8.67689 12.8359 8.93817C12.5933 9.19193 12.4638 9.49719 12.4638 9.84247V13.4743C12.4639 13.8195 12.5933 14.1249 12.8359 14.3786C13.0858 14.6399 13.4015 14.7741 13.7636 14.7741H16.3691C16.7307 14.774 17.0477 14.6404 17.3046 14.3835C17.5573 14.1308 17.6952 13.824 17.6953 13.4743V12.7263H16.2792V13.3454C16.2787 13.3466 16.2745 13.354 16.2617 13.3669C16.2488 13.3798 16.2414 13.3839 16.2402 13.3845H13.8915C13.8899 13.3837 13.8824 13.3792 13.8701 13.3669C13.8574 13.3542 13.854 13.3466 13.8535 13.3454V9.97137L13.8701 9.94891C13.8821 9.93685 13.8897 9.93318 13.8915 9.93231H16.2402C16.2414 9.93285 16.249 9.93631 16.2617 9.94891C16.2745 9.96179 16.2787 9.97016 16.2792 9.97137V10.6159H17.6953V9.84247C17.6953 9.49273 17.5573 9.18604 17.3046 8.93329C17.0477 8.67639 16.7307 8.54274 16.3691 8.54266H13.7636Z" fill="black"/>
</svg>
