<svg width="24" height="24" viewBox="0 0 24 24" fill="none" xmlns="http://www.w3.org/2000/svg">
<path d="M21.0001 6.36493C20.9999 5.95997 20.6716 5.63172 20.2667 5.63153H3.73346C3.3285 5.63172 3.00025 5.95997 3.00006 6.36493V17.6345C3.00006 18.0396 3.32838 18.3686 3.73346 18.3688H20.2667C20.6717 18.3686 21.0001 18.0396 21.0001 17.6345V6.36493ZM23.0001 17.6345C23.0001 19.1442 21.7763 20.3686 20.2667 20.3688H3.73346C2.22381 20.3686 1.00006 19.1442 1.00006 17.6345V6.36493C1.00025 4.8554 2.22393 3.63172 3.73346 3.63153H20.2667C21.7762 3.63172 22.9999 4.8554 23.0001 6.36493V17.6345Z" fill="black"/>
<path d="M7.21051 14.4738H9.84209C10.1228 14.4738 10.3596 14.3773 10.5526 14.1843C10.7456 13.9913 10.8421 13.7545 10.8421 13.4738V13.0264H10.0526V13.3422C10.0526 13.4299 10.0175 13.5089 9.94735 13.5791C9.87718 13.6492 9.79823 13.6843 9.71051 13.6843H7.34209C7.25437 13.6843 7.17542 13.6492 7.10525 13.5791C7.03507 13.5089 6.99998 13.4299 6.99998 13.3422V9.9738C6.99998 9.88608 7.03507 9.80714 7.10525 9.73696C7.17542 9.66679 7.25437 9.6317 7.34209 9.6317H9.71051C9.79823 9.6317 9.87718 9.66679 9.94735 9.73696C10.0175 9.80714 10.0526 9.88608 10.0526 9.9738V10.3159H10.8421V9.84222C10.8421 9.56152 10.7456 9.32468 10.5526 9.1317C10.3596 8.93872 10.1228 8.84222 9.84209 8.84222H7.21051C6.92981 8.84222 6.69297 8.93872 6.49998 9.1317C6.307 9.32468 6.21051 9.56152 6.21051 9.84222V13.4738C6.21051 13.7545 6.307 13.9913 6.49998 14.1843C6.69297 14.3773 6.92981 14.4738 7.21051 14.4738ZM13.7631 14.4738H16.3684C16.6491 14.4738 16.8903 14.3729 17.0921 14.1712C17.2938 13.9694 17.3947 13.737 17.3947 13.4738V13.0264H16.5789V13.3422C16.5789 13.4299 16.5438 13.5089 16.4737 13.5791C16.4035 13.6492 16.3245 13.6843 16.2368 13.6843H13.8947C13.807 13.6843 13.7281 13.6492 13.6579 13.5791C13.5877 13.5089 13.5526 13.4299 13.5526 13.3422V9.9738C13.5526 9.88608 13.5877 9.80714 13.6579 9.73696C13.7281 9.66679 13.807 9.6317 13.8947 9.6317H16.2368C16.3245 9.6317 16.4035 9.66679 16.4737 9.73696C16.5438 9.80714 16.5789 9.88608 16.5789 9.9738V10.3159H17.3947V9.84222C17.3947 9.57907 17.2938 9.34661 17.0921 9.14486C16.8903 8.9431 16.6491 8.84222 16.3684 8.84222H13.7631C13.4824 8.84222 13.2456 8.9431 13.0526 9.14486C12.8596 9.34661 12.7631 9.57907 12.7631 9.84222V13.4738C12.7631 13.737 12.8596 13.9694 13.0526 14.1712C13.2456 14.3729 13.4824 14.4738 13.7631 14.4738Z" fill="black"/>
<path d="M10.5425 9.84222C10.5425 9.63861 10.4753 9.4791 10.3404 9.34418C10.2055 9.20928 10.0459 9.14208 9.84235 9.14203H7.21051C7.00684 9.14203 6.84741 9.20923 6.71246 9.34418C6.57751 9.47913 6.51031 9.63855 6.51031 9.84222V13.4741C6.51037 13.6776 6.57757 13.8372 6.71246 13.9721C6.84739 14.107 7.0069 14.1743 7.21051 14.1743H9.84235C10.0459 14.1742 10.2055 14.107 10.3404 13.9721C10.4753 13.8372 10.5425 13.6776 10.5425 13.4741V13.3266H10.3531V13.3422C10.3531 13.5202 10.2781 13.6731 10.1597 13.7914C10.0413 13.9098 9.8885 13.9848 9.71051 13.9848H7.34235C7.16442 13.9848 7.01149 13.9097 6.89313 13.7914C6.77475 13.6731 6.69977 13.5202 6.69977 13.3422V9.97406C6.69977 9.79606 6.77475 9.64322 6.89313 9.52484C7.01151 9.40646 7.16435 9.33148 7.34235 9.33148H9.71051C9.8885 9.33148 10.0413 9.40646 10.1597 9.52484C10.278 9.6432 10.3531 9.79613 10.3531 9.97406V10.0161H10.5425V9.84222ZM17.0943 9.84222C17.0943 9.6658 17.031 9.50754 16.8804 9.35687C16.734 9.21041 16.5683 9.1421 16.3687 9.14203H13.7632C13.5639 9.14203 13.4051 9.20977 13.2691 9.35199C13.126 9.50165 13.063 9.66137 13.063 9.84222V13.4741C13.0631 13.6547 13.1263 13.8138 13.2691 13.9633C13.4051 14.1055 13.5639 14.1743 13.7632 14.1743H16.3687C16.5683 14.1742 16.734 14.1059 16.8804 13.9594C17.031 13.8088 17.0942 13.6504 17.0943 13.4741V13.3266H16.8785V13.3422C16.8785 13.5202 16.8045 13.6731 16.6861 13.7914C16.5677 13.9098 16.4149 13.9848 16.2369 13.9848H13.8951C13.7172 13.9848 13.5642 13.9097 13.4459 13.7914C13.3275 13.6731 13.2525 13.5202 13.2525 13.3422V9.97406C13.2525 9.79607 13.3275 9.64322 13.4459 9.52484C13.5642 9.40649 13.7171 9.33148 13.8951 9.33148H16.2369C16.4149 9.3315 16.5677 9.40647 16.6861 9.52484C16.8044 9.6432 16.8785 9.79615 16.8785 9.97406V10.0161H17.0943V9.84222ZM11.1422 10.6157H9.7525V9.97113C9.75196 9.96992 9.7478 9.96155 9.73492 9.94867C9.72227 9.93609 9.71464 9.9326 9.71344 9.93207H7.33942C7.3382 9.93261 7.32983 9.93579 7.31696 9.94867L7.30035 9.97113V13.3452C7.30089 13.3464 7.30437 13.354 7.31696 13.3666L7.33942 13.3842H9.71344C9.71465 13.3837 9.72205 13.3795 9.73492 13.3666C9.7478 13.3538 9.75196 13.3464 9.7525 13.3452V12.726H11.1422V13.4741C11.1421 13.8317 11.0162 14.146 10.7652 14.3969C10.5142 14.6479 10.2 14.7738 9.84235 14.7739H7.21051C6.85284 14.7739 6.53865 14.6478 6.28766 14.3969C6.03671 14.146 5.91077 13.8317 5.91071 13.4741V9.84222C5.91071 9.4845 6.03665 9.17039 6.28766 8.91937C6.53867 8.66836 6.85278 8.54242 7.21051 8.54242H9.84235C10.2 8.54248 10.5142 8.66842 10.7652 8.91937C11.0161 9.17036 11.1422 9.48456 11.1422 9.84222V10.6157ZM17.6949 10.6157H16.2789V9.97113C16.2783 9.96992 16.2742 9.96155 16.2613 9.94867C16.2486 9.93607 16.241 9.9326 16.2398 9.93207H13.8912C13.8893 9.93293 13.8818 9.93661 13.8697 9.94867L13.8531 9.97113V13.3452C13.8536 13.3464 13.8571 13.354 13.8697 13.3666C13.882 13.379 13.8895 13.3834 13.8912 13.3842H16.2398C16.241 13.3837 16.2484 13.3795 16.2613 13.3666C16.2741 13.3538 16.2783 13.3464 16.2789 13.3452V12.726H17.6949V13.4741C17.6948 13.8238 17.557 14.1305 17.3043 14.3832C17.0474 14.6401 16.7303 14.7738 16.3687 14.7739H13.7632C13.4012 14.7739 13.0854 14.6396 12.8355 14.3784C12.5929 14.1246 12.4635 13.8193 12.4634 13.4741V9.84222C12.4634 9.49695 12.5929 9.19169 12.8355 8.93793C13.0854 8.67664 13.4012 8.54242 13.7632 8.54242H16.3687C16.7303 8.54249 17.0474 8.67614 17.3043 8.93304C17.5569 9.1858 17.6949 9.49248 17.6949 9.84222V10.6157Z" fill="black"/>
</svg>
