<svg width="24" height="24" viewBox="0 0 24 24" fill="none" xmlns="http://www.w3.org/2000/svg">
<path d="M21 12C21 7.02944 16.9706 3 12 3C7.02944 3 3 7.02944 3 12C3 16.9706 7.02944 21 12 21C16.9706 21 21 16.9706 21 12ZM23 12C23 18.0751 18.0751 23 12 23C5.92487 23 1 18.0751 1 12C1 5.92487 5.92487 1 12 1C18.0751 1 23 5.92487 23 12Z" fill="black"/>
<path d="M7.00317 12C7.00317 11.0114 7.29588 10.0447 7.84497 9.22264C8.39409 8.40057 9.17491 7.75946 10.0881 7.38084C11.0014 7.00224 12.0071 6.90321 12.9768 7.09569C13.9465 7.28819 14.8369 7.76422 15.5364 8.46288C15.9271 8.85318 15.9277 9.4862 15.5374 9.87694C15.1471 10.2674 14.514 10.268 14.1233 9.87792C13.7036 9.45869 13.169 9.17309 12.5872 9.0576C12.0054 8.94215 11.4026 9.00147 10.8547 9.2285C10.3068 9.45566 9.83755 9.84069 9.50806 10.334C9.17876 10.8271 9.00317 11.407 9.00317 12C9.00317 12.593 9.17876 13.1728 9.50806 13.666C9.83755 14.1593 10.3068 14.5443 10.8547 14.7715C11.4026 14.9985 12.0054 15.0578 12.5872 14.9424C13.169 14.8269 13.7036 14.5413 14.1233 14.1221C14.514 13.732 15.1471 13.7326 15.5374 14.123C15.9277 14.5138 15.9271 15.1468 15.5364 15.5371C14.8369 16.2357 13.9465 16.7118 12.9768 16.9043C12.0071 17.0968 11.0014 16.9977 10.0881 16.6191C9.17491 16.2405 8.39409 15.5994 7.84497 14.7773C7.29588 13.9552 7.00317 12.9886 7.00317 12Z" fill="black"/>
</svg>
