<svg width="110" height="30" viewBox="0 0 110 30" fill="none" xmlns="http://www.w3.org/2000/svg">
<path d="M51.146 15.7966C51.4875 13.4522 50.8956 12.4279 49.1886 12.4279C47.4814 12.4279 46.6165 13.4522 46.275 15.7966C45.9336 18.1411 46.5254 19.1653 48.2325 19.1653C49.9397 19.1653 50.8274 18.1638 51.146 15.8194V15.7966Z" fill="black"/>
<path fill-rule="evenodd" clip-rule="evenodd" d="M56.8829 15C56.8829 18.9833 55.2895 22.8072 52.4898 25.607C49.6901 28.4067 45.8661 29.9772 41.8829 30C37.8995 30 34.0755 28.4067 31.2758 25.607C28.4533 22.7845 26.8828 18.9833 26.8828 15C26.8828 11.0167 28.4761 7.19272 31.2758 4.39302C34.0983 1.57056 37.8995 0 41.8829 0C45.8661 0 49.6901 1.59333 52.4898 4.39302C55.3123 7.21548 56.8829 11.0167 56.8829 15ZM27.6794 11.6313L28.0436 12.5189C27.9298 12.997 27.8388 13.4978 27.7705 13.9985L27.4063 13.3156C27.4518 12.7466 27.5657 12.1776 27.6794 11.6313ZM41.769 0.364186C41.4048 0.364186 41.0407 0.364186 40.6764 0.409718L40.5399 0.751144C40.904 0.682852 41.291 0.637332 41.6779 0.591811L41.769 0.364186ZM40.2668 0.477999C39.9708 0.477999 39.6749 0.523519 39.379 0.591811C39.2879 0.591811 39.2197 0.614571 39.1514 0.637332L38.9466 1.13809C39.0755 1.10774 39.2045 1.07486 39.3335 1.04198C39.5915 0.976229 39.8494 0.910466 40.1074 0.864946L40.2668 0.477999ZM36.6248 1.34294C36.0558 1.5478 35.5095 1.79818 34.986 2.09408L34.8266 2.98179C35.3046 2.68589 35.7827 2.41274 36.2834 2.16237L36.6248 1.34294ZM38.6507 0.728373C38.1727 0.819425 37.6946 0.955998 37.2394 1.11533L36.9435 1.8437C37.4214 1.61609 37.9223 1.434 38.4231 1.27466L38.6507 0.728373ZM32.8919 4.43854C33.2788 4.07435 33.7114 3.75569 34.1438 3.43703L34.3031 2.50379C33.8479 2.77694 33.3699 3.0956 32.9374 3.43703L32.8919 4.43854ZM32.3001 3.98331C31.8221 4.41578 31.3668 4.87102 30.9344 5.37178L31.071 6.39606C31.4351 5.94082 31.8221 5.48559 32.2546 5.07587L32.3001 3.98331ZM42.1105 0.56904L42.1787 0.386947C42.9071 0.386947 43.6355 0.455238 44.3638 0.56904H42.1105ZM27.7477 17.7997L27.5657 17.4811C27.6794 18.0728 27.816 18.6646 27.9981 19.2337C27.9071 18.7557 27.816 18.255 27.7705 17.7542L27.7477 17.7997ZM27.3608 14.4309V15.956L27.634 16.4795V15.0911L27.3608 14.4309ZM28.6127 8.96814C28.3851 9.46889 28.1803 9.99241 28.0209 10.5159L28.3851 11.4037C28.5444 10.9029 28.7265 10.4021 28.9314 9.9241L28.6127 8.96814ZM30.2744 6.1912C29.8418 6.783 29.4321 7.39757 29.0907 8.0349L29.4321 8.99091C29.7281 8.42185 30.0694 7.85281 30.4564 7.30652L30.2744 6.1912ZM39.6294 1.38341C39.3715 1.45423 39.1134 1.52504 38.8555 1.61609L38.5368 2.41274C38.6238 2.37691 38.7121 2.33992 38.8012 2.30254C39.1081 2.1738 39.4257 2.0406 39.7432 1.93476L40.0164 1.27466C39.8873 1.3126 39.7584 1.348 39.6294 1.38341ZM42.0194 1.27466C41.4959 1.38846 41.0179 1.50228 40.5171 1.66161L40.7675 1.0698C41.2455 0.978758 41.7235 0.910466 42.2014 0.842185L42.0194 1.27466ZM27.9526 15.2731L28.3623 16.1609C28.3168 16.7072 28.2712 17.2534 28.2485 17.8224L27.8844 17.2989V16.912C27.8844 16.3657 27.9071 15.8422 27.9526 15.2959V15.2731ZM34.121 4.09711C34.6901 3.66465 35.2592 3.2777 35.8509 2.93627L35.5095 4.05159C35.0088 4.41578 34.508 4.80274 34.0527 5.21244L34.121 4.09711ZM36.7076 3.30256C36.6578 3.33185 36.6076 3.36148 36.5566 3.3915C36.4655 3.43702 36.3972 3.48255 36.3062 3.55083L36.6021 2.52656C37.0801 2.27618 37.5581 2.04856 38.0588 1.86646L37.6718 2.75417C37.336 2.932 37.0343 3.10984 36.7076 3.30256ZM42.816 0.773904H43.9542V0.751144H43.9996L43.8859 1.00152C43.5216 1.00152 43.112 1.0698 42.7705 1.13809C42.7477 1.13809 42.7307 1.14378 42.7136 1.14947C42.6965 1.15516 42.6795 1.16085 42.6568 1.16085L42.816 0.773904ZM33.4155 5.82702C32.8919 6.32777 32.4139 6.85129 31.9587 7.42033L31.8903 6.21396C32.3912 5.64492 32.9147 5.1214 33.4837 4.6434L33.4155 5.82702ZM28.9086 13.2018C28.7265 13.8164 28.5899 14.4309 28.4761 15.0455L28.0436 14.1578C28.1575 13.5205 28.294 12.9059 28.4761 12.2913L28.9086 13.2018ZM28.2029 18.6874C28.2485 19.6889 28.3623 20.6904 28.5672 21.6692C28.2257 20.5539 27.9981 19.393 27.8844 18.2322L28.2029 18.6874ZM46.7311 0.978758H46.64C46.0027 0.864946 45.3653 0.773904 44.7281 0.751144L44.6597 0.933237H45.4792C45.5651 0.933237 45.6562 0.938306 45.7523 0.943659C45.8597 0.949648 45.9736 0.955998 46.0938 0.955998C46.1707 0.955998 46.2583 0.961307 46.349 0.966803C46.4458 0.972682 46.5459 0.978758 46.64 0.978758C46.6627 0.978758 46.7083 0.978758 46.7311 1.00152V0.978758ZM31.4124 8.17148C31.0482 8.695 30.7068 9.21852 30.3881 9.78758L30.115 8.62671C30.4792 8.01215 30.8888 7.44309 31.3442 6.87405L31.4124 8.17148ZM29.9784 10.6298C29.6825 11.1987 29.4321 11.7906 29.2273 12.3824L28.7948 11.5174C29.0451 10.8118 29.3411 10.1517 29.6825 9.49166L29.9784 10.6298ZM41.0407 17.2307C40.2668 20.2352 38.4685 21.5326 34.9405 21.5326C30.7979 21.5326 29.25 19.7344 29.819 15.7511C30.3881 11.7678 32.3912 9.99241 36.5566 9.99241C40.0846 9.99241 41.5186 11.2898 41.4275 14.2944H38.1499C38.1044 12.9515 37.5125 12.3824 36.2151 12.3824C34.3714 12.3824 33.4155 13.4067 33.0968 15.7511C32.7781 18.0956 33.4382 19.1198 35.2819 19.1198C35.8509 19.1654 36.42 18.9833 36.8753 18.6419C37.3305 18.3004 37.6492 17.7997 37.7629 17.2307H41.0407ZM48.7796 21.5326C47.1863 21.5326 46.071 21.1457 45.3881 20.2807L44.7963 21.3278H42.2242L44.4094 5.84978H47.687L46.9587 11.0394C47.9602 10.3111 49.1666 9.96964 50.3957 10.038C53.7872 10.038 54.9708 11.8133 54.4018 15.7967C53.8327 19.78 52.1484 21.5326 48.7796 21.5326Z" fill="black"/>
<path d="M8.03574 17.276C7.92193 17.845 7.60326 18.3458 7.14802 18.6873C6.6928 19.0287 6.12375 19.2108 5.55471 19.2108C3.68824 19.2108 3.05091 18.1865 3.36958 15.8421C3.68824 13.4976 4.62147 12.4733 6.48793 12.4733C7.80812 12.4733 8.37717 13.0651 8.44545 14.3852H11.7459C11.8142 11.3808 10.3802 10.0833 6.85213 10.0833C2.68672 10.0833 0.683688 11.8587 0.114637 15.8421C-0.454402 19.8254 1.07063 21.578 5.23604 21.578C8.76411 21.578 10.5622 20.2806 11.3135 17.276H8.03574Z" fill="black"/>
<path d="M19.3258 12.8607H20.9192L21.3062 10.1066H19.7356C19.2121 10.0838 18.6658 10.1976 18.1878 10.4025C17.7097 10.6074 17.2545 10.926 16.9131 11.3357L16.6172 10.2887H14.0451L12.4745 21.3281H15.7523L16.5262 15.797C16.8221 13.7257 17.6415 12.8379 19.3031 12.8379L19.3258 12.8607Z" fill="black"/>
<path d="M24.6293 21.3732L26.1771 10.311H22.9222L21.3289 21.3277L24.6293 21.3732Z" fill="black"/>
<path d="M25.2206 5.41722C23.9004 5.41722 23.263 5.91798 23.0809 7.16989C22.8989 8.42178 23.4224 8.92253 24.7426 8.92253C26.0628 8.92253 26.7 8.42178 26.8821 7.16989C27.0643 5.91798 26.518 5.3717 25.1978 5.3717L25.2206 5.41722Z" fill="black"/>
<path d="M65.3504 21.3276H67.9225L69.4931 10.2654H66.2381L65.3504 16.5021C65.0772 18.3685 64.2806 19.1424 62.9376 19.1424C61.5948 19.1424 61.1167 18.2548 61.4126 16.2289L62.3003 10.2426H59.0226L58.135 16.2289C57.6114 19.9391 58.704 21.5097 61.7313 21.5097C62.9604 21.578 64.1668 21.1911 65.1228 20.3944L65.3959 21.2821L65.3504 21.3276Z" fill="black"/>
<path d="M73.8634 19.12L80.5781 12.0639L80.8513 10.2202H71.4735L71.1548 12.4281H76.6859L69.9484 19.4842L69.6753 21.3279H79.4856L79.8042 19.12H73.8634Z" fill="black"/>
<path d="M85.2438 19.12L91.9585 12.0639L92.2089 10.2202H82.831L82.5124 12.4281H88.0435L81.306 19.4842L81.0557 21.3279H90.8659L91.1846 19.12H85.2438Z" fill="black"/>
<path d="M94.4848 11.1217L97.6635 7.27094H101.883L99.2889 22.7294H96.0615L97.9178 11.1217H94.4848Z" fill="black"/>
<path d="M102.08 11.1217L105.258 7.27094H109.477L106.884 22.7294H103.656L105.513 11.1217H102.08Z" fill="black"/>
</svg>
