<svg width="110" height="30" viewBox="0 0 110 30" fill="none" xmlns="http://www.w3.org/2000/svg">
<path d="M51.1459 15.7966C51.4874 13.4521 50.8956 12.4279 49.1885 12.4279C47.4813 12.4279 46.6164 13.4521 46.275 15.7966C45.9335 18.141 46.5254 19.1653 48.2324 19.1653C49.9396 19.1653 50.8274 18.1638 51.1459 15.8193V15.7966Z" fill="black"/>
<path fill-rule="evenodd" clip-rule="evenodd" d="M56.8829 15C56.8829 18.9833 55.2896 22.8072 52.4898 25.607C49.6902 28.4067 45.8661 29.9772 41.8829 30C37.8996 30 34.0756 28.4067 31.2759 25.607C28.4534 22.7845 26.8828 18.9833 26.8828 15C26.8828 11.0167 28.4761 7.19272 31.2759 4.39302C34.0983 1.57056 37.8996 0 41.8829 0C45.8661 0 49.6902 1.59333 52.4898 4.39302C55.3124 7.21548 56.8829 11.0167 56.8829 15ZM27.6795 11.6313L28.0437 12.5189C27.9299 12.997 27.8389 13.4978 27.7706 13.9985L27.4063 13.3156C27.4519 12.7466 27.5657 12.1776 27.6795 11.6313ZM41.7691 0.364186C41.4048 0.364186 41.0407 0.364186 40.6765 0.409718L40.54 0.751144C40.9041 0.682852 41.2911 0.637332 41.678 0.591811L41.7691 0.364186ZM40.2668 0.477999C39.9709 0.477999 39.675 0.523519 39.3791 0.591811C39.288 0.591811 39.2198 0.614571 39.1515 0.637332L38.9466 1.13809C39.0756 1.10774 39.2046 1.07486 39.3335 1.04198C39.5916 0.976229 39.8495 0.910466 40.1074 0.864946L40.2668 0.477999ZM36.6248 1.34294C36.0559 1.5478 35.5096 1.79818 34.9861 2.09408L34.8267 2.98179C35.3047 2.68589 35.7828 2.41274 36.2835 2.16237L36.6248 1.34294ZM38.6507 0.728373C38.1727 0.819425 37.6947 0.955998 37.2395 1.11533L36.9435 1.8437C37.4215 1.61609 37.9224 1.434 38.4231 1.27466L38.6507 0.728373ZM32.892 4.43854C33.2789 4.07435 33.7114 3.75569 34.1439 3.43703L34.3032 2.5038C33.848 2.77694 33.37 3.0956 32.9374 3.43703L32.892 4.43854ZM32.3002 3.98331C31.8222 4.41578 31.3669 4.87102 30.9345 5.37178L31.0711 6.39606C31.4352 5.94082 31.8222 5.48559 32.2546 5.07587L32.3002 3.98331ZM42.1105 0.56904L42.1787 0.386947C42.9072 0.386947 43.6355 0.455238 44.3639 0.56904H42.1105ZM27.7478 17.7997L27.5657 17.4811C27.6795 18.0728 27.8161 18.6646 27.9982 19.2337C27.9072 18.7557 27.8161 18.255 27.7706 17.7542L27.7478 17.7997ZM27.3609 14.4309V15.956L27.634 16.4795V15.0911L27.3609 14.4309ZM28.6128 8.96814C28.3852 9.46889 28.1803 9.99241 28.0209 10.5159L28.3852 11.4037C28.5445 10.9029 28.7265 10.4021 28.9315 9.9241L28.6128 8.96814ZM30.2744 6.1912C29.8419 6.783 29.4322 7.39757 29.0907 8.0349L29.4322 8.99091C29.7281 8.42185 30.0695 7.85281 30.4565 7.30652L30.2744 6.1912ZM39.6294 1.38341C39.3715 1.45423 39.1135 1.52504 38.8556 1.61609L38.5369 2.41274C38.6239 2.37691 38.7121 2.33992 38.8013 2.30254C39.1081 2.1738 39.4257 2.0406 39.7433 1.93476L40.0164 1.27466C39.8874 1.3126 39.7584 1.348 39.6294 1.38341ZM42.0194 1.27466C41.4959 1.38846 41.0179 1.50228 40.5172 1.66161L40.7676 1.0698C41.2455 0.978758 41.7235 0.910466 42.2015 0.842185L42.0194 1.27466ZM27.9526 15.2731L28.3624 16.1609C28.3169 16.7072 28.2713 17.2534 28.2485 17.8224L27.8844 17.2989V16.912C27.8844 16.3657 27.9072 15.8422 27.9526 15.2959V15.2731ZM34.1211 4.09711C34.6902 3.66465 35.2592 3.2777 35.851 2.93627L35.5096 4.05159C35.0089 4.41578 34.5081 4.80274 34.0528 5.21244L34.1211 4.09711ZM36.7076 3.30256C36.6579 3.33185 36.6077 3.36148 36.5566 3.3915C36.4656 3.43702 36.3972 3.48255 36.3063 3.55083L36.6022 2.52656C37.0802 2.27618 37.5581 2.04856 38.0589 1.86646L37.6719 2.75417C37.336 2.932 37.0344 3.10984 36.7076 3.30256ZM42.8161 0.773904H43.9542V0.751144H43.9997L43.8859 1.00152C43.5217 1.00152 43.112 1.0698 42.7706 1.13809C42.7478 1.13809 42.7307 1.14378 42.7136 1.14947C42.6966 1.15516 42.6796 1.16085 42.6568 1.16085L42.8161 0.773904ZM33.4155 5.82702C32.892 6.32777 32.4139 6.85129 31.9587 7.42033L31.8904 6.21396C32.3913 5.64492 32.9148 5.1214 33.4837 4.6434L33.4155 5.82702ZM28.9087 13.2018C28.7265 13.8164 28.59 14.4309 28.4761 15.0455L28.0437 14.1578C28.1576 13.5205 28.2941 12.9059 28.4761 12.2913L28.9087 13.2018ZM28.203 18.6874C28.2485 19.6889 28.3624 20.6904 28.5672 21.6692C28.2258 20.5539 27.9982 19.393 27.8844 18.2322L28.203 18.6874ZM46.7311 0.978758H46.64C46.0028 0.864946 45.3654 0.773904 44.7281 0.751144L44.6598 0.933237H45.4792C45.5652 0.933237 45.6563 0.938306 45.7524 0.943659C45.8598 0.949648 45.9736 0.955998 46.0938 0.955998C46.1708 0.955998 46.2584 0.961307 46.349 0.966803C46.4458 0.972682 46.546 0.978758 46.64 0.978758C46.6628 0.978758 46.7083 0.978758 46.7311 1.00152V0.978758ZM31.4124 8.17148C31.0483 8.695 30.7068 9.21852 30.3882 9.78758L30.115 8.62671C30.4792 8.01214 30.8889 7.44309 31.3442 6.87405L31.4124 8.17148ZM29.9785 10.6298C29.6826 11.1987 29.4322 11.7906 29.2274 12.3824L28.7948 11.5174C29.0452 10.8118 29.3411 10.1517 29.6826 9.49166L29.9785 10.6298ZM41.0407 17.2307C40.2668 20.2352 38.4686 21.5326 34.9405 21.5326C30.7979 21.5326 29.25 19.7344 29.8191 15.7511C30.3882 11.7678 32.3913 9.99241 36.5566 9.99241C40.0847 9.99241 41.5187 11.2898 41.4276 14.2944H38.15C38.1044 12.9515 37.5126 12.3824 36.2152 12.3824C34.3715 12.3824 33.4155 13.4067 33.0968 15.7511C32.7782 18.0956 33.4383 19.1198 35.282 19.1198C35.851 19.1654 36.42 18.9833 36.8753 18.6419C37.3305 18.3004 37.6492 17.7997 37.763 17.2307H41.0407ZM48.7796 21.5326C47.1863 21.5326 46.0711 21.1457 45.3882 20.2807L44.7963 21.3278H42.2243L44.4094 5.84978H47.6871L46.9587 11.0394C47.9602 10.3111 49.1666 9.96964 50.3957 10.038C53.7872 10.038 54.9709 11.8133 54.4018 15.7967C53.8328 19.78 52.1485 21.5326 48.7796 21.5326Z" fill="black"/>
<path d="M8.03574 17.276C7.92193 17.8451 7.60326 18.3458 7.14802 18.6873C6.6928 19.0287 6.12375 19.2108 5.55471 19.2108C3.68824 19.2108 3.05091 18.1865 3.36958 15.8421C3.68824 13.4976 4.62147 12.4734 6.48793 12.4734C7.80812 12.4734 8.37717 13.0651 8.44545 14.3853H11.7459C11.8142 11.3808 10.3802 10.0834 6.85213 10.0834C2.68672 10.0834 0.683688 11.8588 0.114637 15.8421C-0.454402 19.8254 1.07063 21.578 5.23604 21.578C8.76411 21.578 10.5622 20.2806 11.3135 17.276H8.03574Z" fill="black"/>
<path d="M19.3259 12.8608H20.9192L21.3062 10.1066H19.7357C19.2122 10.0839 18.6659 10.1976 18.1879 10.4026C17.7098 10.6074 17.2546 10.9261 16.9131 11.3357L16.6172 10.2887H14.0452L12.4746 21.3281H15.7524L16.5262 15.797C16.8222 13.7257 17.6416 12.838 19.3031 12.838L19.3259 12.8608Z" fill="black"/>
<path d="M24.6293 21.3733L26.1771 10.311H22.9222L21.3289 21.3277L24.6293 21.3733Z" fill="black"/>
<path d="M25.2206 5.41722C23.9004 5.41722 23.263 5.91798 23.0809 7.16989C22.8989 8.42178 23.4224 8.92253 24.7426 8.92253C26.0628 8.92253 26.7 8.42178 26.8821 7.16989C27.0643 5.91798 26.518 5.3717 25.1978 5.3717L25.2206 5.41722Z" fill="black"/>
<path d="M65.3503 21.3277H67.9225L69.493 10.2654H66.2381L65.3503 16.5021C65.0772 18.3686 64.2805 19.1425 62.9376 19.1425C61.5947 19.1425 61.1166 18.2549 61.4125 16.229L62.3003 10.2427H59.0225L58.1349 16.229C57.6114 19.9392 58.704 21.5097 61.7312 21.5097C62.9603 21.578 64.1668 21.1911 65.1227 20.3945L65.3959 21.2821L65.3503 21.3277Z" fill="black"/>
<path d="M73.8634 19.12L80.5781 12.0639L80.8513 10.2202H71.4735L71.1548 12.4281H76.6859L69.9484 19.4843L69.6753 21.328H79.4856L79.8042 19.12H73.8634Z" fill="black"/>
<path d="M85.2438 19.12L91.9585 12.0639L92.2089 10.2202H82.831L82.5124 12.4281H88.0435L81.306 19.4843L81.0557 21.328H90.8659L91.1846 19.12H85.2438Z" fill="black"/>
<path d="M94.4849 11.1218L97.6635 7.271H101.883L99.2889 22.7294H96.0616L97.9178 11.1218H94.4849Z" fill="black"/>
<path d="M102.08 11.1218L105.259 7.271H109.477L106.884 22.7294H103.656L105.513 11.1218H102.08Z" fill="black"/>
</svg>
