<svg width="24" height="24" viewBox="0 0 24 24" fill="none" xmlns="http://www.w3.org/2000/svg">
<path d="M13.7507 21.962H15.9834V14.1848L13.7507 15.9289V21.962Z" fill="black"/>
<path d="M8.91626 19.8306V21.9445H11.0793V18.2363C10.7998 18.4368 10.2165 18.8225 9.94246 19.0643C9.64603 19.2645 9.25225 19.6783 8.91626 19.8306Z" fill="black"/>
<path d="M8.49896 2C8.60427 2 8.69037 2.06086 8.69037 2.13477V2.30469C8.69048 2.37837 8.77676 2.43848 8.88177 2.43848H9.8007C9.90572 2.43853 9.99211 2.49937 9.99211 2.57324C9.99211 2.49949 10.0784 2.43848 10.1835 2.43848H11.1024C11.2069 2.43841 11.2937 2.37848 11.2938 2.30469V2.13477C11.2938 2.06112 11.379 2.00018 11.4843 2H13.5448C13.6496 2 13.7362 2.06086 13.7362 2.13477V2.30469C13.7362 2.37844 13.8223 2.43945 13.9276 2.43945H14.8456C14.9506 2.43945 15.0369 2.49936 15.037 2.57324V2.86816C15.0367 2.94176 14.9507 3.00195 14.8456 3.00195H15.1473C15.6076 3.0021 15.9829 3.28611 15.9832 3.63379V8.07227C15.9542 8.09247 15.9246 8.11271 15.8973 8.13477L13.8231 9.80957V3.63379C13.8234 3.28606 14.1996 3.00201 14.659 3.00195H13.9276C13.8225 3.00196 13.7362 3.06282 13.7362 3.13672V3.30664C13.7362 3.38037 13.6498 3.44043 13.5448 3.44043H11.4852C11.38 3.44043 11.2939 3.38052 11.2938 3.30664V3.13672C11.2938 3.06297 11.2073 3.00195 11.1024 3.00195H10.2362C10.6962 3.00214 11.0718 3.28614 11.0722 3.63379V12.0293L8.91107 13.7734V3.63379C8.9114 3.28604 9.28824 3.00197 9.74797 3.00195H8.88177C8.77691 3.00195 8.69037 3.06281 8.69037 3.13672V3.30664C8.69032 3.38037 8.60446 3.44043 8.49896 3.44043H6.43844C6.33381 3.44026 6.24806 3.38042 6.24802 3.30664V3.13672C6.24802 3.06301 6.16204 3.00203 6.05661 3.00195H5.3242C5.78439 3.00195 6.16077 3.28602 6.1611 3.63379V15.9941L5.50486 16.5234C5.18162 16.7845 5.18445 17.1448 5.21873 17.4912C5.25322 17.8371 5.57941 18.0921 5.74998 18.3262L6.1611 18.6436V22H4V3.63379C4.00022 3.28595 4.37709 3.00195 4.8369 3.00195H5.13768C5.03238 3.00195 4.94628 2.9411 4.94628 2.86719V2.57324C4.94628 2.49949 5.03215 2.43848 5.13768 2.43848H6.05661C6.16175 2.4384 6.2479 2.37848 6.24802 2.30469V2.13477C6.24802 2.06112 6.33356 2.00017 6.43844 2H8.49896ZM8.36713 2.86816C8.36685 2.94194 8.30406 3.00195 8.22748 3.00195H8.50677C8.43052 3.00195 8.3674 2.9421 8.36713 2.86816Z" fill="black"/>
<path d="M20.7719 7.4724L20.4997 7.16067C20.3518 6.99115 20.0863 6.96883 19.9097 7.11118L16.084 10.2017L15.5668 9.60883C15.2876 9.28892 14.787 9.24721 14.4544 9.51557L10.497 12.7121L9.2152 13.7476L6.51763 15.9268L5.60979 16.6602C5.27676 16.9291 5.23318 17.4108 5.51235 17.7311L7.35655 19.8456C7.63591 20.1657 8.1365 20.2074 8.46951 19.9386L17.3137 12.7941C17.6467 12.5253 17.6907 12.0435 17.4112 11.7232L16.8945 11.1309L20.7209 8.03967C20.8972 7.89714 20.9202 7.64182 20.7719 7.4724Z" fill="black"/>
<path d="M21 15.4573C21 16.516 20.1088 17.3742 19.0094 17.3742C17.9101 17.3742 17.0189 16.516 17.0189 15.4573C17.0189 14.3986 17.9101 13.5404 19.0094 13.5404C20.1088 13.5404 21 14.3986 21 15.4573Z" fill="black"/>
</svg>
