<svg width="94" height="30" viewBox="0 0 94 30" fill="none" xmlns="http://www.w3.org/2000/svg">
<path fill-rule="evenodd" clip-rule="evenodd" d="M53.527 25.6067C56.3913 22.7936 58.0004 18.9783 58.0004 15C58.0004 11.0217 56.3913 7.2065 53.527 4.39346C50.6628 1.58041 46.7779 0 42.7273 0C38.6766 0 34.7917 1.58041 31.9275 4.39346C29.0632 7.2065 27.4541 11.0217 27.4541 15C27.4541 18.9783 29.0632 22.7936 31.9275 25.6067C34.7917 28.4197 38.6766 30 42.7273 30C46.7779 30 50.6628 28.4197 53.527 25.6067ZM7.30161 18.6844C7.76556 18.3341 8.08495 17.831 8.2009 17.2677H11.5341C10.7705 20.2766 8.92863 21.5648 5.33494 21.5648C1.09439 21.5648 -0.459872 19.8089 0.115118 15.8118C0.690107 11.8148 2.73852 10.05 6.97907 10.05C10.5637 10.05 12.0462 11.3382 11.9564 14.3471H8.62316C8.56027 13.0147 7.96732 12.4413 6.63766 12.4413C4.74199 12.4413 3.7807 13.4648 3.44828 15.8118C3.11587 18.1589 3.78068 19.1736 5.67635 19.1736C6.26045 19.2085 6.83767 19.0346 7.30161 18.6844ZM21.3448 12.856H19.7277L19.7008 12.8383C18.0117 12.8383 17.1671 13.7207 16.8617 15.803L16.071 21.3354H12.738L14.3371 10.2883H16.9516L17.2571 11.3295C17.6145 10.9261 18.0585 10.6053 18.5572 10.3903C19.0557 10.1752 19.5965 10.071 20.1409 10.0854H21.7401L21.3448 12.856ZM26.6994 10.306L25.1182 21.3795L21.7492 21.3354L23.3662 10.306H26.6994ZM23.546 7.15598C23.7257 5.90303 24.3814 5.39127 25.7291 5.39127L25.7021 5.35595C27.0587 5.35595 27.6068 5.90303 27.4271 7.15598C27.2474 8.4089 26.5827 8.92067 25.235 8.92067C23.8874 8.92067 23.3663 8.4089 23.546 7.15598ZM69.2486 21.3354H66.6342L66.6791 21.3L66.4006 20.4176C65.4323 21.2107 64.191 21.6086 62.9327 21.5294C59.8421 21.5294 58.7371 19.95 59.2671 16.2353L60.1656 10.2529H63.4988L62.6004 16.2353C62.3039 18.2735 62.7889 19.156 64.1635 19.156C65.5381 19.156 66.3557 18.3707 66.6162 16.5089L67.5146 10.2618H70.8298L69.2486 21.3354ZM82.15 12.0618L75.3129 19.1207L81.3773 19.1118L81.0538 21.3266H71.0454L71.315 19.4913L78.1789 12.4324H72.5459L72.8602 10.2177H82.4195L82.15 12.0618ZM93.7395 12.0618L86.8936 19.1207L92.9578 19.1118L92.6434 21.3266H82.6351L82.8956 19.4913L89.7595 12.4324H84.1264L84.441 10.2177H94L93.7395 12.0618ZM28.595 12.5118L28.2267 11.6295C28.0991 12.1855 28.0032 12.7482 27.9392 13.3148L28.3165 14.0029C28.3884 13.5 28.4782 13.006 28.595 12.5118ZM41.4874 0.405956C41.8557 0.353015 42.2241 0.352962 42.6014 0.352962L42.5026 0.591215C42.1073 0.632394 41.721 0.685379 41.3436 0.750082L41.4874 0.405956ZM40.1491 0.572562C40.4454 0.511759 40.7463 0.450012 41.0472 0.450012L40.8854 0.829468C40.4901 0.90888 40.0948 1.00589 39.7085 1.11178L39.9241 0.617712C39.9988 0.603409 40.0737 0.588021 40.1491 0.572562ZM35.6746 2.09117C36.216 1.80629 36.774 1.55292 37.3457 1.33237L37.0043 2.16183C36.5011 2.40889 36.007 2.68235 35.5308 2.97352L35.6746 2.09117ZM37.9656 1.11178C38.4366 0.952706 38.9165 0.820177 39.403 0.714762L39.1695 1.27064C38.6565 1.4327 38.1528 1.6212 37.6601 1.83537L37.9656 1.11178ZM34.8301 3.43237C34.3825 3.74315 33.9536 4.07901 33.5453 4.43827L33.5903 3.43237C34.0395 3.09707 34.5066 2.77948 34.9828 2.4883L34.8301 3.43237ZM31.5419 5.35595C31.9769 4.86107 32.4451 4.39537 32.9434 3.96187L32.8895 5.04714C32.4594 5.46793 32.0544 5.9128 31.6766 6.37951L31.5419 5.35595ZM43.011 0.361847L43.0147 0.352962L43.0057 0.361794C43.0075 0.361812 43.0092 0.361829 43.011 0.361847ZM43.011 0.361847L42.9338 0.547053H44.0658H45.2338C44.4985 0.431544 43.7555 0.369665 43.011 0.361847ZM28.1189 17.4795L28.2986 17.806L28.3255 17.7529C28.3786 18.2539 28.4596 18.7518 28.5681 19.2442C28.3826 18.6653 28.2325 18.076 28.1189 17.4795ZM27.9033 14.9383V14.4441L28.1907 15.1147V16.1029V16.5177L27.9033 15.9971V14.9383ZM28.5861 10.5177C28.7585 9.9899 28.9594 9.47152 29.188 8.96478L29.5114 9.91772C29.3048 10.403 29.1161 10.8971 28.9544 11.4001L28.5861 10.5177ZM29.6642 8.02067C30.0219 7.3776 30.4273 6.76115 30.877 6.17648L31.0657 7.28825C30.6805 7.82964 30.3323 8.39567 30.0235 8.98243L29.6642 8.02067ZM39.6276 1.60595C40.014 1.47359 40.4093 1.36769 40.8046 1.26181L40.5261 1.92358C40.1132 2.06459 39.7005 2.23204 39.2877 2.39948L39.2862 2.40008L39.6276 1.60595ZM41.3077 1.64127C41.8108 1.49127 42.3139 1.36769 42.835 1.26181L43.0147 0.829468C42.5206 0.891232 42.0354 0.96183 41.5503 1.05889L41.3077 1.64127ZM28.9364 16.156L28.5232 15.2736V15.2913C28.4713 15.8279 28.4473 16.3668 28.4513 16.906V17.303L28.8196 17.8324C28.8286 17.2589 28.8735 16.703 28.9364 16.156ZM36.564 2.92948C35.9554 3.28082 35.3703 3.66979 34.8121 4.09413L34.7492 5.20591C35.2241 4.791 35.722 4.40223 36.2406 4.04125L36.564 2.92948ZM37.2706 3.38427C37.6561 3.15847 38.0126 2.94969 38.4058 2.75294L38.7921 1.85302C38.2888 2.04654 37.7969 2.26747 37.3187 2.51479L37.0222 3.52942C37.1067 3.48024 37.1892 3.43188 37.2706 3.38427ZM44.8295 0.767641H43.6705L43.5178 1.16477C43.5566 1.15826 43.5965 1.15146 43.6373 1.1445C43.9842 1.08539 44.3987 1.01473 44.7846 1.01473L44.8924 0.767641H44.8295ZM32.584 7.41179C33.0473 6.8498 33.5422 6.31372 34.0664 5.80596L34.1383 4.6148C33.5642 5.09921 33.024 5.62088 32.5211 6.17648L32.584 7.41179ZM29.0532 15.0442C29.1701 14.4221 29.32 13.8067 29.5024 13.2001L29.0622 12.3001C28.8815 12.9118 28.7375 13.5334 28.631 14.1618L29.0532 15.0442ZM29.1431 21.6795C28.9337 20.6975 28.8105 19.6998 28.7747 18.6971L28.4603 18.2383C28.5578 19.4066 28.7868 20.5607 29.1431 21.6795ZM47.5531 0.961141C47.5827 0.9616 47.6122 0.961838 47.6416 0.961838L47.6505 0.979503C47.6181 0.973283 47.5856 0.967159 47.5531 0.961141ZM47.5531 0.961141C46.9057 0.841177 46.251 0.761809 45.5932 0.723594L45.5123 0.908853H46.3478C46.5412 0.908853 46.7517 0.921524 46.9668 0.934485C47.1616 0.946212 47.3602 0.958168 47.5531 0.961141ZM31.0028 9.78537C31.3193 9.2257 31.6672 8.68358 32.045 8.16175L31.9731 6.87357C31.5177 7.43411 31.1005 8.02364 30.7243 8.63831L31.0028 9.78537ZM29.8169 12.3706C30.0325 11.7682 30.2845 11.1789 30.5716 10.6059L30.2751 9.4589C29.9269 10.1135 29.6266 10.7917 29.3767 11.4882L29.8169 12.3706ZM35.6387 21.5471C39.2234 21.5471 41.0741 20.2589 41.8467 17.2501H38.5136C38.3957 17.8141 38.0745 18.3174 37.6091 18.6675C37.1437 19.0176 36.5652 19.1911 35.9801 19.156C34.0934 19.156 33.4285 18.1412 33.761 15.7941C34.0934 13.447 35.0547 12.4236 36.9504 12.4236C38.28 12.4236 38.873 12.9971 38.9269 14.3295H42.26C42.3588 11.3207 40.8854 10.0323 37.2918 10.0323C33.0512 10.0323 31.0118 11.8059 30.4278 15.7941C29.8438 19.7823 31.4071 21.5471 35.6387 21.5471ZM46.276 20.2854C46.9677 21.1501 48.0998 21.5471 49.7439 21.5471C53.1848 21.5383 54.8918 19.7912 55.4668 15.7941C56.0418 11.797 54.8289 10.0323 51.379 10.0323C50.1291 9.95981 48.8919 10.3119 47.8752 11.0294L48.6208 5.83245H45.2877L43.0686 21.3266H45.683L46.276 20.2854ZM50.1571 12.4236C51.8911 12.4236 52.493 13.447 52.1516 15.7941L52.1606 15.8118C51.8282 18.1589 50.9388 19.156 49.1958 19.156C47.4529 19.156 46.851 18.1412 47.1924 15.7941C47.5338 13.447 48.4232 12.4236 50.1571 12.4236Z" fill="black"/>
</svg>
