<svg width="24" height="24" viewBox="0 0 24 24" fill="none" xmlns="http://www.w3.org/2000/svg">
<path d="M13.7507 21.962H15.9835V14.1848L13.7507 15.9289V21.962Z" fill="black"/>
<path d="M8.91626 19.8306V21.9445H11.0793V18.2363C10.7998 18.4368 10.2165 18.8225 9.94246 19.0643C9.64603 19.2645 9.25225 19.6783 8.91626 19.8306Z" fill="black"/>
<path d="M8.49902 2C8.60433 2 8.69043 2.06086 8.69043 2.13477V2.30469C8.69055 2.37837 8.77683 2.43848 8.88184 2.43848H9.80078C9.9058 2.43853 9.99219 2.49937 9.99219 2.57324C9.99219 2.49949 10.0785 2.43848 10.1836 2.43848H11.1025C11.207 2.43841 11.2938 2.37848 11.2939 2.30469V2.13477C11.2939 2.06112 11.3791 2.00018 11.4844 2H13.5449C13.6498 2 13.7363 2.06086 13.7363 2.13477V2.30469C13.7363 2.37844 13.8224 2.43945 13.9277 2.43945H14.8457C14.9508 2.43945 15.0371 2.49936 15.0371 2.57324V2.86816C15.0368 2.94176 14.9508 3.00195 14.8457 3.00195H15.1475C15.6077 3.0021 15.9831 3.28611 15.9834 3.63379V8.07227C15.9544 8.09247 15.9247 8.11271 15.8975 8.13477L13.8232 9.80957V3.63379C13.8236 3.28606 14.1997 3.00201 14.6592 3.00195H13.9277C13.8227 3.00196 13.7363 3.06282 13.7363 3.13672V3.30664C13.7363 3.38037 13.65 3.44043 13.5449 3.44043H11.4854C11.3801 3.44043 11.294 3.38052 11.2939 3.30664V3.13672C11.2939 3.06297 11.2074 3.00195 11.1025 3.00195H10.2363C10.6963 3.00214 11.0719 3.28614 11.0723 3.63379V12.0293L8.91113 13.7734V3.63379C8.91146 3.28604 9.28832 3.00197 9.74805 3.00195H8.88184C8.77698 3.00195 8.69043 3.06281 8.69043 3.13672V3.30664C8.69039 3.38037 8.60452 3.44043 8.49902 3.44043H6.43848C6.33384 3.44026 6.24809 3.38042 6.24805 3.30664V3.13672C6.24805 3.06301 6.16207 3.00203 6.05664 3.00195H5.32422C5.78442 3.00195 6.1608 3.28602 6.16113 3.63379V15.9941L5.50488 16.5234C5.18164 16.7845 5.18447 17.1448 5.21875 17.4912C5.25324 17.8371 5.57943 18.0921 5.75 18.3262L6.16113 18.6436V22H4V3.63379C4.00022 3.28595 4.37709 3.00195 4.83691 3.00195H5.1377C5.03239 3.00195 4.94629 2.9411 4.94629 2.86719V2.57324C4.94629 2.49949 5.03217 2.43848 5.1377 2.43848H6.05664C6.16178 2.4384 6.24793 2.37848 6.24805 2.30469V2.13477C6.24805 2.06112 6.33359 2.00017 6.43848 2H8.49902ZM8.36719 2.86816C8.36691 2.94194 8.30412 3.00195 8.22754 3.00195H8.50684C8.43058 3.00195 8.36746 2.9421 8.36719 2.86816Z" fill="black"/>
<path d="M20.772 7.4724L20.4998 7.16067C20.3519 6.99115 20.0863 6.96883 19.9098 7.11118L16.0841 10.2017L15.5668 9.60883C15.2876 9.28892 14.787 9.24721 14.4544 9.51557L10.4971 12.7121L9.21526 13.7476L6.51769 15.9268L5.60985 16.6602C5.27682 16.9291 5.23324 17.4108 5.51241 17.7311L7.35661 19.8456C7.63597 20.1657 8.13657 20.2074 8.46957 19.9386L17.3138 12.7941C17.6468 12.5253 17.6907 12.0435 17.4112 11.7232L16.8946 11.1309L20.7209 8.03967C20.8973 7.89714 20.9202 7.64182 20.772 7.4724Z" fill="black"/>
<ellipse cx="19.0094" cy="15.4573" rx="1.99055" ry="1.91691" fill="black"/>
</svg>
