<svg width="54" height="36" viewBox="0 0 54 36" fill="none" xmlns="http://www.w3.org/2000/svg">
<path d="M39.4016 10.4766L36.1355 14.4332H39.6629L37.7555 26.36H41.0717L43.7368 10.4766H39.4016Z" fill="black"/>
<path d="M47.2041 10.4766L43.938 14.4332H47.4654L45.558 26.36H48.8742L51.5394 10.4766H47.2041Z" fill="black"/>
<path d="M27.9319 19.2369C28.2828 16.8281 27.6746 15.7756 25.9206 15.7756C24.1665 15.7756 23.2777 16.8281 22.927 19.2369C22.5761 21.6459 23.1841 22.6983 24.9382 22.6983C26.6923 22.6983 27.6045 21.6693 27.9319 19.2603V19.2369Z" fill="black"/>
<path fill-rule="evenodd" clip-rule="evenodd" d="M18.4125 33.825C26.9246 33.825 33.825 26.9246 33.825 18.4125C33.825 9.90041 26.9246 3 18.4125 3C9.90041 3 3 9.90041 3 18.4125C3 26.9246 9.90041 33.825 18.4125 33.825ZM3.81934 14.957L4.19355 15.8691C4.0766 16.3603 3.98306 16.8747 3.91289 17.3893L3.53868 16.6876C3.58546 16.103 3.7024 15.5182 3.81934 14.957ZM18.2964 3.38004C17.9221 3.38004 17.5479 3.38004 17.1737 3.42681L17.0333 3.77763C17.4076 3.70747 17.8052 3.66069 18.2028 3.61392L18.2964 3.38004ZM16.7528 3.49698C16.4487 3.49698 16.1447 3.54376 15.8406 3.61392C15.7471 3.61392 15.6769 3.6373 15.6067 3.66069L15.3962 4.17522C15.5288 4.14404 15.6613 4.11026 15.7938 4.07648C16.0589 4.00891 16.3239 3.94134 16.5891 3.89457L16.7528 3.49698ZM13.0107 4.38571C12.426 4.59621 11.8648 4.85347 11.3268 5.1575L11.1631 6.06963C11.6543 5.76559 12.1453 5.48493 12.6599 5.22767L13.0107 4.38571ZM15.0923 3.75424C14.6011 3.8478 14.1099 3.98812 13.6421 4.15183L13.3382 4.90024C13.8292 4.66636 14.3438 4.47926 14.8584 4.31555L15.0923 3.75424ZM9.17512 7.56644C9.57272 7.19223 10.0171 6.86481 10.4614 6.53738L10.6252 5.57849C10.1574 5.85914 9.66627 6.18656 9.2219 6.53738L9.17512 7.56644ZM8.56704 7.09869C8.0759 7.54305 7.60815 8.01081 7.16378 8.52534L7.3041 9.57779C7.67831 9.11003 8.07591 8.64228 8.52027 8.22129L8.56704 7.09869ZM18.6472 3.59053L18.7174 3.40342C19.4657 3.40342 20.2142 3.47359 20.9625 3.59053H18.6472ZM3.8895 21.295L3.7024 20.9676C3.81934 21.5757 3.95967 22.1837 4.14677 22.7685C4.05321 22.2773 3.95967 21.7627 3.91289 21.2483L3.8895 21.295ZM3.77256 18.5118L3.49192 17.8337V19.4006L3.77256 19.9386V18.5118ZM4.77823 12.2206C4.54436 12.7351 4.33387 13.2731 4.17016 13.8109L4.54435 14.7231C4.70808 14.2086 4.89518 13.694 5.10566 13.2028L4.77823 12.2206ZM6.48554 9.3673C6.04118 9.97537 5.62019 10.6068 5.26938 11.2617L5.62019 12.244C5.92423 11.6593 6.27506 11.0746 6.67264 10.5133L6.48554 9.3673ZM16.0979 4.42729C15.8329 4.50005 15.5678 4.57282 15.3028 4.66636L14.9753 5.48493C15.0647 5.4481 15.1554 5.41009 15.247 5.37169C15.5623 5.2394 15.8885 5.10255 16.2148 4.99379L16.4955 4.31555C16.363 4.35453 16.2304 4.3909 16.0979 4.42729ZM18.5536 4.31555C18.0157 4.43248 17.5245 4.54943 17.0101 4.71314L17.2672 4.10506C17.7584 4.01151 18.2496 3.94134 18.7408 3.87118L18.5536 4.31555ZM4.09999 18.699L4.52098 19.6111C4.4742 20.1724 4.42742 20.7337 4.40403 21.3184L4.02982 20.7805V20.3829C4.02982 19.8216 4.05321 19.2837 4.09999 18.7223V18.699ZM10.4381 7.21562C11.0228 6.77126 11.6075 6.37367 12.2155 6.02285L11.8648 7.16884C11.3502 7.54305 10.8357 7.94064 10.3679 8.36163L10.4381 7.21562ZM13.0957 6.39917L12.9406 6.4906C12.847 6.53738 12.7768 6.58416 12.6833 6.65433L12.9873 5.60188C13.4785 5.34461 13.9696 5.11074 14.4841 4.92363L14.0865 5.83575C13.7415 6.01845 13.4315 6.20117 13.0957 6.39917ZM19.3722 3.80102H20.5415V3.77763H20.5883L20.4713 4.0349C20.0972 4.0349 19.6762 4.10507 19.3254 4.17522C19.302 4.17522 19.2845 4.18107 19.2669 4.18692C19.2494 4.19276 19.2318 4.19861 19.2084 4.19861L19.3722 3.80102ZM9.71304 8.99309C9.17512 9.50762 8.68398 10.0455 8.21623 10.6302L8.14606 9.39069C8.66059 8.80599 9.19851 8.26807 9.78321 7.77693L9.71304 8.99309ZM5.08227 16.5708C4.89517 17.2022 4.75485 17.8337 4.63791 18.4652L4.19355 17.553C4.31048 16.8981 4.45081 16.2667 4.63791 15.6352L5.08227 16.5708ZM4.35726 22.2071C4.40403 23.2362 4.52098 24.2653 4.73146 25.271C4.38064 24.1249 4.14677 22.9322 4.02982 21.7393L4.35726 22.2071ZM23.3949 4.01151H23.3013C22.6464 3.89457 21.9916 3.80102 21.3367 3.77763L21.2666 3.96473H22.1086C22.1969 3.96473 22.2905 3.96995 22.3891 3.97545C22.4996 3.98161 22.6165 3.98812 22.74 3.98812C22.8191 3.98812 22.9092 3.99359 23.0023 3.99923C23.1017 4.00527 23.2046 4.01151 23.3013 4.01151C23.3247 4.01151 23.3715 4.01151 23.3949 4.0349V4.01151ZM7.65492 11.402C7.28073 11.9399 6.92991 12.4779 6.60247 13.0626L6.32183 11.8698C6.69603 11.2383 7.11701 10.6536 7.58476 10.0689L7.65492 11.402ZM6.1815 13.9279C5.87746 14.5126 5.62019 15.1206 5.4097 15.7287L4.96534 14.8401C5.22261 14.115 5.52665 13.4367 5.87746 12.7585L6.1815 13.9279ZM17.5477 20.7103C16.7524 23.7974 14.9048 25.1306 11.2798 25.1306C7.02319 25.1306 5.43282 23.283 6.01752 19.1901C6.60222 15.0972 8.66033 13.2729 12.9403 13.2729C16.5653 13.2729 18.0388 14.6061 17.9453 17.6933H14.5775C14.5307 16.3134 13.9226 15.7287 12.5895 15.7287C10.6951 15.7287 9.71277 16.7811 9.38535 19.1901C9.05792 21.5989 9.73616 22.6514 11.6305 22.6514C12.2153 22.6982 12.8 22.5111 13.2677 22.1603C13.7355 21.8094 14.0629 21.295 14.1798 20.7103H17.5477ZM25.4995 25.1306C23.8623 25.1306 22.7164 24.733 22.0147 23.8442L21.4067 24.9201H18.7638L21.0091 9.01641H24.3769L23.6284 14.3488C24.6575 13.6004 25.8971 13.2495 27.16 13.3197C30.6448 13.3197 31.861 15.144 31.2763 19.2368C30.6915 23.3296 28.9608 25.1306 25.4995 25.1306Z" fill="black"/>
</svg>
