<svg width="24" height="24" viewBox="0 0 24 24" fill="none" xmlns="http://www.w3.org/2000/svg">
<path d="M20.25 3.7998C20.2499 3.22006 19.7799 2.7501 19.2002 2.75H5.7998C5.22006 2.75011 4.75011 3.22006 4.75 3.7998V20.2002C4.75011 20.7799 5.22006 21.2499 5.7998 21.25H19.2002C19.7799 21.2499 20.2499 20.7799 20.25 20.2002V3.7998ZM21.75 20.2002C21.7499 21.6084 20.6084 22.7499 19.2002 22.75H5.7998C4.39163 22.7499 3.25011 21.6084 3.25 20.2002V3.7998C3.25011 2.39163 4.39163 1.25011 5.7998 1.25H19.2002C20.6084 1.2501 21.7499 2.39163 21.75 3.7998V20.2002Z" fill="black"/>
<path d="M6.00018 5.99991H15.0002V8.99991H6.00018V5.99991Z" fill="black"/>
<path d="M6.00018 11.4999C6.00018 11.2238 6.22404 10.9999 6.50018 10.9999H18.5002C18.7763 10.9999 19.0002 11.2238 19.0002 11.4999C19.0002 11.7761 18.7763 11.9999 18.5002 11.9999H6.50018C6.22404 11.9999 6.00018 11.7761 6.00018 11.4999Z" fill="black"/>
<path d="M6.00018 14.5C6.00018 14.2239 6.22404 14 6.50018 14H18.5002C18.7763 14 19.0002 14.2239 19.0002 14.5C19.0002 14.7762 18.7763 15 18.5002 15H6.50018C6.22404 15 6.00018 14.7762 6.00018 14.5Z" fill="black"/>
<path d="M6.00018 17.5C6.00018 17.2239 6.22404 17 6.50018 17H18.5002C18.7763 17 19.0002 17.2239 19.0002 17.5C19.0002 17.7761 18.7763 18 18.5002 18H6.50018C6.22404 18 6.00018 17.7761 6.00018 17.5Z" fill="black"/>
</svg>
