<svg width="24" height="24" viewBox="0 0 24 24" fill="none" xmlns="http://www.w3.org/2000/svg">
<path d="M11.2929 2.70711C11.6834 2.31658 12.3166 2.31658 12.7071 2.70711L18.3 8.29997C18.6876 8.68759 18.6904 9.31517 18.3062 9.70619C17.9172 10.1021 17.28 10.105 16.8875 9.71247L13 5.825L13 13L11 13L11 5.825L7.10095 9.70286C6.71351 10.0882 6.08733 10.0873 5.70095 9.70095C5.31383 9.31383 5.31383 8.68617 5.70095 8.29905L11.2929 2.70711ZM13 15L13 18L11 18L11 15L13 15ZM13 20L13 22L11 22L11 20L13 20Z" fill="black"/>
</svg>
