<svg width="136" height="40" viewBox="0 0 136 40" fill="none" xmlns="http://www.w3.org/2000/svg">
<g clip-path="url(#clip0_938_2987)">
<path d="M131.014 0H4.98002C2.19511 0 -0.0625 2.23889 -0.0625 5.0007V34.9993C-0.0625 37.7611 2.19511 40 4.98002 40H131.014C133.799 40 136.057 37.7611 136.057 34.9993V5.0007C136.057 2.23889 133.799 0 131.014 0Z" fill="black"/>
<path d="M131.02 0.801467C133.354 0.801467 135.255 2.68661 135.255 5.0007V34.9993C135.255 37.3134 133.354 39.1985 131.02 39.1985H4.98002C2.64657 39.1985 0.745669 37.3134 0.745669 34.9993V5.0007C0.745669 2.68661 2.64657 0.801467 4.98002 0.801467H131.02ZM131.02 0H4.98002C2.20834 0 -0.0625 2.25201 -0.0625 5.0007V34.9993C-0.0625 37.748 2.20834 40 4.98002 40H131.02C133.792 40 136.063 37.748 136.063 34.9993V5.0007C136.063 2.25201 133.792 0 131.02 0Z" fill="#A6A6A6"/>
<path d="M47.7502 10.2441C47.7502 11.0795 47.4998 11.7511 46.9989 12.2478C46.4298 12.8404 45.6899 13.1339 44.7793 13.1339C43.8687 13.1339 43.163 12.8348 42.554 12.2365C41.945 11.6382 41.6377 10.8932 41.6377 10.0014C41.6377 9.10965 41.945 8.37027 42.554 7.76634C43.163 7.16806 43.9085 6.86328 44.7793 6.86328C45.2118 6.86328 45.6273 6.94794 46.02 7.11162C46.4127 7.28095 46.7314 7.50107 46.9648 7.78328L46.4355 8.31382C46.0371 7.83972 45.485 7.60266 44.7793 7.60266C44.1419 7.60266 43.5898 7.82278 43.1288 8.26867C42.6678 8.71456 42.4345 9.29026 42.4345 9.99578C42.4345 10.7013 42.6678 11.2826 43.1288 11.7229C43.5955 12.1688 44.1419 12.3889 44.7793 12.3889C45.4566 12.3889 46.02 12.1631 46.4696 11.7172C46.7599 11.4237 46.9306 11.023 46.9762 10.5038H44.7793V9.7813H47.7103C47.7388 9.93934 47.7502 10.0861 47.7502 10.2328V10.2441Z" fill="white" stroke="white" stroke-width="0.2" stroke-miterlimit="10"/>
<path d="M52.4 7.73813H49.6454V9.64021H52.1325V10.3627H49.6454V12.2647H52.4V13.0041H48.8657V7.00439H52.4V7.74378V7.73813Z" fill="white" stroke="white" stroke-width="0.2" stroke-miterlimit="10"/>
<path d="M55.6783 12.9984H54.8986V7.7381H53.2083V6.99872H57.3629V7.7381H55.6726V12.9984H55.6783Z" fill="white" stroke="white" stroke-width="0.2" stroke-miterlimit="10"/>
<path d="M60.3735 12.9984V6.99872H61.1476V12.9984H60.3735Z" fill="white" stroke="white" stroke-width="0.2" stroke-miterlimit="10"/>
<path d="M64.6021 12.9984H63.8224V7.7381H62.1321V6.99872H66.2868V7.7381H64.5964V12.9984H64.6021Z" fill="white" stroke="white" stroke-width="0.2" stroke-miterlimit="10"/>
<path d="M74.158 12.2252C73.5604 12.8347 72.8262 13.1339 71.9384 13.1339C71.0505 13.1339 70.3163 12.8291 69.7187 12.2252C69.1211 11.6213 68.8252 10.8762 68.8252 10.0014C68.8252 9.12655 69.1211 8.38152 69.7187 7.7776C70.3106 7.16804 71.0505 6.8689 71.9384 6.8689C72.8262 6.8689 73.5547 7.17368 74.1523 7.78325C74.7499 8.39281 75.0458 9.13219 75.0458 10.0014C75.0458 10.8706 74.7499 11.6213 74.1523 12.2252H74.158ZM70.2992 11.7229C70.7489 12.1744 71.2952 12.3945 71.944 12.3945C72.5929 12.3945 73.1392 12.1687 73.5888 11.7229C74.0385 11.2713 74.2604 10.7013 74.2604 10.0014C74.2604 9.30152 74.0328 8.72582 73.5888 8.27993C73.1449 7.8284 72.5929 7.60828 71.944 7.60828C71.2952 7.60828 70.7489 7.83404 70.2992 8.27993C69.8553 8.73146 69.6277 9.30152 69.6277 10.0014C69.6277 10.7013 69.8553 11.277 70.2992 11.7229Z" fill="white" stroke="white" stroke-width="0.2" stroke-miterlimit="10"/>
<path d="M76.1441 12.9984V6.99872H77.0889L80.0313 11.6664H80.0654L80.0313 10.5094V6.99872H80.811V12.9984H79.9971L76.9181 8.10497H76.884L76.9181 9.26202V12.9984H76.1384H76.1441Z" fill="white" stroke="white" stroke-width="0.2" stroke-miterlimit="10"/>
<path d="M68.6431 21.7525C66.2698 21.7525 64.3404 23.5417 64.3404 26.0025C64.3404 28.4634 66.2755 30.2526 68.6431 30.2526C71.0107 30.2526 72.9457 28.4464 72.9457 26.0025C72.9457 23.5586 71.0107 21.7525 68.6431 21.7525ZM68.6431 28.5819C67.3455 28.5819 66.2243 27.5208 66.2243 26.0025C66.2243 24.4843 67.3455 23.4232 68.6431 23.4232C69.9407 23.4232 71.0619 24.4673 71.0619 26.0025C71.0619 27.5377 69.9407 28.5819 68.6431 28.5819ZM59.2524 21.7525C56.8791 21.7525 54.9497 23.5417 54.9497 26.0025C54.9497 28.4634 56.8848 30.2526 59.2524 30.2526C61.62 30.2526 63.555 28.4464 63.555 26.0025C63.555 23.5586 61.62 21.7525 59.2524 21.7525ZM59.2524 28.5819C57.9548 28.5819 56.8336 27.5208 56.8336 26.0025C56.8336 24.4843 57.9548 23.4232 59.2524 23.4232C60.55 23.4232 61.6712 24.4673 61.6712 26.0025C61.6712 27.5377 60.55 28.5819 59.2524 28.5819ZM48.0803 23.0563V24.8624H52.4342C52.3033 25.8784 51.9618 26.6177 51.4439 27.137C50.8122 27.7635 49.8219 28.4577 48.0803 28.4577C45.3997 28.4577 43.3053 26.313 43.3053 23.6546C43.3053 20.9962 45.3997 18.8514 48.0803 18.8514C49.5259 18.8514 50.5845 19.4158 51.3585 20.1383L52.6448 18.8627C51.5577 17.8298 50.1121 17.0453 48.0803 17.0453C44.4094 17.0453 41.3247 20.0085 41.3247 23.6489C41.3247 27.2894 44.4094 30.2526 48.0803 30.2526C50.0609 30.2526 51.5577 29.6091 52.7244 28.4013C53.9253 27.2104 54.3009 25.5341 54.3009 24.1795C54.3009 23.7618 54.2668 23.3724 54.2042 23.0506H48.0803V23.0563ZM93.7646 24.456C93.4061 23.5078 92.319 21.7469 90.0937 21.7469C87.8684 21.7469 86.0472 23.4683 86.0472 25.9969C86.0472 28.3787 87.8684 30.2469 90.3043 30.2469C92.2678 30.2469 93.4061 29.056 93.8784 28.3618L92.4158 27.3966C91.9263 28.1078 91.2604 28.5706 90.3043 28.5706C89.3481 28.5706 88.6652 28.136 88.2269 27.2838L93.9638 24.9301L93.7703 24.4448L93.7646 24.456ZM87.9139 25.8727C87.8627 24.2303 89.2002 23.3893 90.1563 23.3893C90.9019 23.3893 91.5393 23.7618 91.7499 24.2924L87.9139 25.8727ZM83.2527 29.9986H85.1366V17.4968H83.2527V29.9986ZM80.168 22.7007H80.1054C79.6843 22.204 78.8704 21.7525 77.846 21.7525C75.7003 21.7525 73.7368 23.6207 73.7368 26.0195C73.7368 28.4182 75.7003 30.2582 77.846 30.2582C78.8704 30.2582 79.6786 29.8067 80.1054 29.2931H80.168V29.9026C80.168 31.5281 79.2916 32.3973 77.8744 32.3973C76.7191 32.3973 76.0077 31.5733 75.7117 30.8847L74.0726 31.562C74.545 32.6908 75.7971 34.0736 77.8744 34.0736C80.0827 34.0736 81.9494 32.7868 81.9494 29.643V22.0065H80.1623V22.7007H80.168ZM78.0053 28.5819C76.7077 28.5819 75.615 27.5039 75.615 26.0195C75.615 24.5351 76.702 23.4232 78.0053 23.4232C79.3086 23.4232 80.2989 24.5181 80.2989 26.0195C80.2989 27.5208 79.2916 28.5819 78.0053 28.5819ZM102.592 17.4968H98.0843V29.9986H99.9682V25.2632H102.598C104.681 25.2632 106.735 23.7675 106.735 21.38C106.735 18.9925 104.686 17.4968 102.598 17.4968H102.592ZM102.637 23.5248H99.9625V19.2409H102.637C104.043 19.2409 104.84 20.3979 104.84 21.3856C104.84 22.3734 104.043 23.5304 102.637 23.5304V23.5248ZM114.265 21.7299C112.905 21.7299 111.493 22.3226 110.907 23.6433L112.58 24.3375C112.939 23.6433 113.599 23.4232 114.299 23.4232C115.272 23.4232 116.262 24.0045 116.28 25.0317V25.1616C115.938 24.9697 115.21 24.6762 114.316 24.6762C112.518 24.6762 110.685 25.6582 110.685 27.4926C110.685 29.1632 112.159 30.2413 113.815 30.2413C115.079 30.2413 115.779 29.6769 116.217 29.0221H116.28V29.9873H118.095V25.1954C118.095 22.9773 116.422 21.7356 114.265 21.7356V21.7299ZM114.043 28.5763C113.428 28.5763 112.569 28.2715 112.569 27.5152C112.569 26.55 113.639 26.1775 114.561 26.1775C115.386 26.1775 115.779 26.3525 116.28 26.5952C116.132 27.7522 115.13 28.5706 114.043 28.5706V28.5763ZM124.708 22.0008L122.551 27.4192H122.489L120.252 22.0008H118.226L121.584 29.5753L119.672 33.7914H121.635L126.808 22.0008H124.714H124.708ZM107.765 29.9986H109.649V17.4968H107.765V29.9986Z" fill="white"/>
<path d="M20.8303 19.4215L10.0964 30.721C10.0964 30.721 10.0964 30.721 10.0964 30.7267C10.4265 31.9515 11.5534 32.8545 12.8966 32.8545C13.4316 32.8545 13.9381 32.7078 14.3649 32.4594L14.3991 32.4369L26.4818 25.5228L20.8246 19.4158L20.8303 19.4215Z" fill="#EA4335"/>
<path d="M31.6893 17.4969H31.6779L26.459 14.4885L20.5798 19.6755L26.4761 25.5228L31.6665 22.554C32.5772 22.0686 33.1918 21.1147 33.1918 20.0198C33.1918 18.9248 32.5828 17.9822 31.6836 17.4969H31.6893Z" fill="#FBBC04"/>
<path d="M10.0906 9.27899C10.028 9.51605 9.9939 9.76439 9.9939 10.0184V29.9873C9.9939 30.2413 10.028 30.4897 10.0906 30.7267L21.1944 19.715L10.0906 9.27899Z" fill="#4285F4"/>
<path d="M20.91 19.9972L26.4647 14.4885L14.3934 7.54624C13.9552 7.28661 13.4429 7.13422 12.8966 7.13422C11.5534 7.13422 10.4265 8.03728 10.0964 9.2677L20.91 19.9916V19.9972Z" fill="#34A853"/>
</g>
<defs>
<clipPath id="clip0_938_2987">
<rect width="136" height="40" fill="white"/>
</clipPath>
</defs>
</svg>
