<svg width="24" height="24" viewBox="0 0 24 24" fill="none" xmlns="http://www.w3.org/2000/svg">
<path d="M2.5146 3.4425L2.58884 3.45843L7.97906 5.05934C9.06627 4.58258 10.2739 4.31707 11.5458 4.31707C16.1632 4.31707 19.9337 7.81625 20.1701 12.2192L20.1819 12.2195C21.186 12.2195 22 13.0057 22 13.9756C22 14.9014 21.2583 15.6599 20.3176 15.7269L20.1819 15.7317L19.5769 15.7319C18.3101 18.818 15.192 21 11.5458 21C6.77583 21 2.90972 17.2658 2.90972 12.6585C2.90972 11.43 3.1846 10.2636 3.6782 9.21348L2.02075 4.00714C1.92112 3.69436 2.19565 3.39998 2.5146 3.4425ZM4.59471 19.8115C4.75249 19.9639 4.77002 20.2005 4.64731 20.3716L4.59471 20.4324L4.14018 20.8714C3.96268 21.0429 3.67488 21.0429 3.49738 20.8714C3.33959 20.719 3.32206 20.4824 3.44478 20.3113L3.49738 20.2505L3.95191 19.8115C4.12941 19.6401 4.41721 19.6401 4.59471 19.8115ZM11.5458 5.19512C7.27789 5.19512 3.81878 8.53622 3.81878 12.6585C3.81878 16.7809 7.27789 20.122 11.5458 20.122C14.6794 20.122 17.3769 18.3209 18.5895 15.7319L13.4548 15.7318C13.6645 16.0157 13.7844 16.2691 13.8122 16.5047L13.8184 16.6098C13.8184 17.5797 13.0152 17.8383 11.8566 17.4653C11.6184 17.3886 11.4897 17.14 11.5691 16.9099C11.6485 16.6799 11.9059 16.5556 12.1441 16.6323L12.3794 16.7043L12.5751 16.7539C12.8542 16.8128 12.9094 16.7548 12.9094 16.6098C12.9094 16.486 12.6969 16.1678 12.2586 15.7265L12.1206 15.5888L12.0951 15.5607L12.0612 15.5123L12.033 15.4564L12.0156 15.4057L12.0021 15.3316L12.0015 15.2639L12.0042 15.2351L12.0171 15.1741L12.0411 15.1106L12.0729 15.0546L12.1065 15.0107L12.1335 14.9822C12.6565 14.477 12.9094 14.1107 12.9094 13.9756C12.9094 13.8306 12.8542 13.7726 12.5751 13.8315L12.3794 13.8811L12.1441 13.9531C11.9059 14.0298 11.6485 13.9054 11.5691 13.6754C11.4897 13.4454 11.6184 13.1968 11.8566 13.1201C13.0152 12.747 13.8184 13.0056 13.8184 13.9756C13.8184 14.2407 13.6961 14.527 13.4549 14.8534L18.9332 14.8539C18.9792 14.7094 19.0207 14.563 19.0577 14.4149L19.0456 14.4146C18.418 14.4146 17.9092 13.9232 17.9092 13.3171C17.9092 12.7488 18.3564 12.2814 18.9294 12.2252L19.0456 12.2195L19.2596 12.2191C19.0242 8.30135 15.661 5.19512 11.5458 5.19512ZM19.0767 18.8827L19.1397 18.9335L19.5942 19.3725C19.7717 19.5439 19.7717 19.8219 19.5942 19.9934C19.4364 20.1458 19.1915 20.1627 19.0144 20.0442L18.9514 19.9934L18.4969 19.5543C18.3194 19.3829 18.3194 19.1049 18.4969 18.9335C18.6547 18.7811 18.8996 18.7641 19.0767 18.8827ZM2.71364 16.2485L2.77659 16.2993L3.23112 16.7383C3.40862 16.9098 3.40862 17.1878 3.23112 17.3592C3.07334 17.5116 2.82841 17.5285 2.65127 17.41L2.58832 17.3592L2.13379 16.9202C1.95628 16.7487 1.95628 16.4708 2.13379 16.2993C2.29157 16.1469 2.53649 16.13 2.71364 16.2485ZM20.1819 13.0976L20.1701 13.0977C20.1622 13.2449 20.1504 13.3912 20.1346 13.5363L20.1819 13.5366C20.4329 13.5366 20.6364 13.7331 20.6364 13.9756C20.6364 14.1911 20.4756 14.3704 20.2636 14.4076L20.1819 14.4146L19.9902 14.4147C19.9574 14.5625 19.9206 14.7089 19.8798 14.8537H20.1819C20.6839 14.8537 21.0909 14.4605 21.0909 13.9756C21.0909 13.5253 20.74 13.1542 20.2879 13.1035L20.1819 13.0976ZM19.2597 13.0972L19.0456 13.0976C18.92 13.0976 18.8183 13.1958 18.8183 13.3171C18.8183 13.421 18.893 13.508 18.9934 13.5308L19.0456 13.5366L19.2199 13.5367C19.2375 13.3914 19.2508 13.2449 19.2597 13.0972ZM9.27315 9.58537C10.0577 9.58537 10.6658 9.97692 11.0433 10.7061C11.1555 10.923 11.0645 11.1867 10.84 11.2951C10.6155 11.4035 10.3425 11.3156 10.2302 11.0988C10.0016 10.6572 9.70063 10.4634 9.27315 10.4634C8.84566 10.4634 8.54467 10.6572 8.3161 11.0988C8.20383 11.3156 7.93081 11.4035 7.70628 11.2951C7.48175 11.1867 7.39074 10.923 7.50301 10.7061C7.88048 9.97692 8.48855 9.58537 9.27315 9.58537ZM13.8184 9.58537C14.603 9.58537 15.2111 9.97692 15.5886 10.7061C15.7009 10.923 15.6098 11.1867 15.3853 11.2951C15.1608 11.4035 14.8878 11.3156 14.7755 11.0988C14.5469 10.6572 14.2459 10.4634 13.8184 10.4634C13.391 10.4634 13.09 10.6572 12.8614 11.0988C12.7491 11.3156 12.4761 11.4035 12.2516 11.2951C12.0271 11.1867 11.9361 10.923 12.0483 10.7061C12.4258 9.97692 13.0339 9.58537 13.8184 9.58537ZM21.8669 8.39688C22.0247 8.54928 22.0422 8.78585 21.9195 8.95695L21.8669 9.01775L21.4123 9.45678C21.2348 9.62823 20.947 9.62823 20.7695 9.45678C20.6118 9.30438 20.5942 9.06781 20.7169 8.89671L20.7695 8.8359L21.2241 8.39688C21.4016 8.22543 21.6894 8.22543 21.8669 8.39688ZM3.14153 4.54098L4.28725 8.13675C4.95349 7.14099 5.83338 6.29112 6.8643 5.64762L3.14153 4.54098ZM12.7763 5.76273C12.934 5.91513 12.9516 6.1517 12.8289 6.3228L12.7763 6.38361L12.3217 6.82263C12.1442 6.99408 11.8564 6.99408 11.6789 6.82263C11.5211 6.67023 11.5036 6.43366 11.6263 6.26256L11.6789 6.20176L12.1335 5.76273C12.311 5.59128 12.5988 5.59128 12.7763 5.76273ZM8.168 3.07779L8.23095 3.12859L8.68549 3.56761C8.86299 3.73906 8.86299 4.01704 8.68549 4.18849C8.5277 4.34089 8.28278 4.35782 8.10563 4.23929L8.04268 4.18849L7.58815 3.74946C7.41065 3.57801 7.41065 3.30004 7.58815 3.12859C7.74593 2.97619 7.99086 2.95925 8.168 3.07779Z" fill="black"/>
<path d="M3.81253 19.6679C4.06754 19.4216 4.47842 19.4216 4.73343 19.6679C4.96319 19.8899 4.98964 20.2372 4.8096 20.4883L4.80472 20.4951L4.74026 20.5703L4.73343 20.5761L4.27933 21.0156C4.02436 21.2618 3.61342 21.2617 3.35843 21.0156C3.12865 20.7937 3.10221 20.4453 3.28226 20.1943L3.28714 20.1875L3.29398 20.1806L3.34573 20.1201L3.35159 20.1133L3.35843 20.1064L3.81253 19.6679ZM2.70999 12.6582C2.71004 11.4282 2.97959 10.2589 3.4639 9.20212L1.83011 4.06736C1.68154 3.59983 2.09294 3.1844 2.54105 3.24412L2.54886 3.24509L2.55667 3.24705L2.63089 3.26267L2.6387 3.26462L2.64554 3.26658L7.96878 4.84665C9.06277 4.37796 10.2731 4.11716 11.5459 4.11716C16.2007 4.11721 20.0209 7.59874 20.3555 12.0273C21.3833 12.1125 22.2002 12.9461 22.2002 13.9756C22.2002 15.0128 21.3707 15.8526 20.3321 15.9267H20.3242L20.1895 15.9316H19.708C18.3784 19.0271 15.2237 21.2001 11.5459 21.2002C6.6721 21.2002 2.70999 17.3824 2.70999 12.6582ZM4.59476 19.8115C4.41729 19.6401 4.12969 19.6402 3.95218 19.8115L3.4971 20.251L3.44437 20.3115L3.4053 20.3779C3.32851 20.5398 3.35924 20.7377 3.4971 20.8711C3.6525 21.0212 3.89291 21.0404 4.06937 20.9277L4.14066 20.8711L4.59476 20.4326L4.64749 20.372C4.75489 20.2223 4.75493 20.0218 4.64749 19.872L4.59476 19.8115ZM18.3584 18.79C18.5573 18.5979 18.8492 18.5559 19.0889 18.6621L19.1875 18.7168L19.1953 18.7217L19.2022 18.7265L19.2657 18.7773L19.2725 18.7832L19.2784 18.79L19.7334 19.2285C19.9923 19.4786 19.9923 19.8876 19.7334 20.1377C19.5061 20.3571 19.1566 20.3794 18.9034 20.2099L18.8955 20.2051L18.8887 20.2002L18.8262 20.1494L18.8125 20.1377L18.3584 19.6982C18.0995 19.4481 18.0995 19.0401 18.3584 18.79ZM3.81839 12.6582C3.81858 8.53602 7.27813 5.19529 11.5459 5.19529L11.9297 5.20408C15.8682 5.39014 19.0316 8.42371 19.2598 12.2187L19.0459 12.2197L18.9297 12.2256L18.8233 12.2402C18.3021 12.34 17.9092 12.7847 17.9092 13.3174L17.9151 13.4297C17.9734 13.9829 18.4577 14.415 19.0459 14.415H19.0576C19.0207 14.5629 18.9795 14.7092 18.9336 14.8535H13.4551C13.6963 14.5271 13.8184 14.2406 13.8184 13.9756C13.8184 13.0056 13.0151 12.7471 11.8565 13.1201L11.7725 13.1562C11.5894 13.2583 11.4999 13.4745 11.5694 13.6758C11.6489 13.9055 11.9065 14.0297 12.1446 13.9531L12.3789 13.8808L12.5752 13.831C12.8541 13.7722 12.9092 13.8306 12.9092 13.9756C12.9092 14.1106 12.6568 14.4772 12.1338 14.9824L12.1065 15.0107L12.0733 15.0547L12.041 15.1103L12.0176 15.1738L12.0039 15.2353L12.002 15.2636V15.332L12.0157 15.4052L12.0332 15.456L12.0616 15.5127L12.0948 15.5605L12.1201 15.5888L12.2588 15.7265C12.6966 16.1673 12.9088 16.4853 12.9092 16.6094C12.9092 16.7362 12.8672 16.7967 12.67 16.7705L12.5752 16.7539L12.3789 16.7041L12.1446 16.6318C11.9064 16.5551 11.6487 16.6801 11.5694 16.9101L11.5489 16.997C11.5238 17.1996 11.6484 17.3977 11.8565 17.4648C13.0151 17.8379 13.8184 17.5793 13.8184 16.6094L13.8125 16.5049C13.7848 16.2693 13.6648 16.0152 13.4551 15.7314H18.5899C17.3773 18.3204 14.6795 20.122 11.5459 20.122V19.9219C14.4853 19.9218 17.0272 18.2968 18.2666 15.9316H13.8184C13.9008 16.0816 13.9622 16.2279 13.9932 16.375L14.0108 16.4814L14.0117 16.4931L14.0186 16.5976V16.6094C14.0186 16.8789 13.9622 17.1155 13.8457 17.3086C13.7281 17.5034 13.5562 17.6421 13.3467 17.7265C12.9369 17.8916 12.3913 17.8473 11.795 17.6552C11.4556 17.5457 11.2623 17.1856 11.3799 16.8447C11.496 16.5084 11.8654 16.3355 12.2012 16.4414H12.2022L12.4375 16.5127H12.4366L12.6241 16.5595H12.6231C12.6481 16.5647 12.6701 16.5647 12.6885 16.5674C12.6681 16.5266 12.6348 16.4722 12.586 16.4043C12.4862 16.2654 12.3312 16.0837 12.1172 15.8681L11.9795 15.7304L11.9717 15.7236L11.9727 15.7226L11.9473 15.6953L11.9385 15.6855L11.8975 15.6269L11.8887 15.6152L11.8828 15.6025L11.8545 15.5469L11.8487 15.5342L11.8438 15.5215L11.8262 15.4707L11.8213 15.456L11.8184 15.4414L11.8057 15.3672L11.8028 15.3506L11.8018 15.333V15.2558L11.8028 15.2451L11.8047 15.2158L11.8067 15.2051L11.8086 15.1933L11.8213 15.1328L11.8242 15.1181L11.8301 15.1035L11.8545 15.04L11.8594 15.0254L11.8672 15.0117L11.8994 14.956L11.9053 14.9443L11.9141 14.9336L11.9473 14.8896L11.9541 14.8808L11.961 14.873L11.9883 14.8447L11.9942 14.8379C12.2506 14.5902 12.4373 14.3803 12.5576 14.2197C12.6179 14.1393 12.6594 14.0747 12.6846 14.0263C12.6863 14.0231 12.687 14.0195 12.6885 14.0166C12.6685 14.0195 12.6442 14.0214 12.6162 14.0273L12.4287 14.0752L12.4278 14.0742L12.2022 14.1445L12.2012 14.1435C11.8653 14.2495 11.496 14.0766 11.3799 13.7402C11.2626 13.3994 11.4556 13.0391 11.795 12.9297C12.3912 12.7377 12.9369 12.6933 13.3467 12.8584C13.5564 12.9428 13.7281 13.0823 13.8457 13.2773C13.9622 13.4704 14.0186 13.706 14.0186 13.9756C14.0186 14.1998 13.9462 14.424 13.8203 14.6533H18.7813C18.7873 14.6328 18.793 14.6123 18.7989 14.5918C18.1831 14.4797 17.7092 13.9571 17.709 13.3174C17.709 12.6396 18.2415 12.0919 18.9102 12.0263L18.92 12.0254L19.0362 12.0195H19.041C18.7395 8.68151 16.0986 5.9832 12.6983 5.47947C12.7772 5.51025 12.8509 5.55715 12.9151 5.61912C13.1448 5.84106 13.1713 6.18842 12.9912 6.43943L12.9864 6.44626L12.9805 6.45408L12.9278 6.51462L12.9219 6.52146L12.9151 6.52732L12.461 6.96677C12.206 7.213 11.7951 7.2129 11.5401 6.96677C11.3104 6.74491 11.2841 6.39746 11.4639 6.14646L11.4688 6.13865L11.4746 6.13181L11.5274 6.07126L11.5332 6.06443L11.5401 6.05759L11.9942 5.61912C12.1032 5.51383 12.2413 5.45568 12.3828 5.4404C12.1081 5.41109 11.8289 5.39549 11.5459 5.39548C7.38199 5.39548 4.01877 8.65296 4.01859 12.6582C4.01859 16.6635 7.38187 19.9219 11.5459 19.9219V20.122L11.1485 20.1123C7.06526 19.9126 3.81839 16.6518 3.81839 12.6582ZM19.0772 18.8828C18.9 18.7643 18.6549 18.7812 18.4971 18.9336L18.4385 19.0019C18.3219 19.1724 18.3417 19.4046 18.4971 19.5547L18.9512 19.9931L19.0147 20.0439C19.1918 20.1623 19.436 20.1454 19.5938 19.9931C19.7713 19.8217 19.7713 19.5435 19.5938 19.372L19.1397 18.9336L19.0772 18.8828ZM1.99515 16.1552C2.19393 15.9634 2.48607 15.9214 2.72562 16.0273L2.82523 16.082L2.83206 16.0869L2.8389 16.0927L2.90237 16.1435L2.91605 16.1552L3.37015 16.5947C3.62888 16.8448 3.62891 17.2529 3.37015 17.5029C3.14286 17.7224 2.79341 17.7457 2.54007 17.5761L2.53226 17.5713L2.52542 17.5654L2.46292 17.5146L2.44925 17.5029L1.99515 17.0644C1.73624 16.8144 1.73624 16.4053 1.99515 16.1552ZM2.7139 16.248C2.53676 16.1295 2.29158 16.1474 2.13382 16.2998L2.07523 16.3681C1.95888 16.5385 1.97867 16.7699 2.13382 16.9199L2.58792 17.3594L2.6514 17.4101C2.80632 17.5137 3.01306 17.5137 3.168 17.4101L3.23148 17.3594C3.38667 17.2094 3.40546 16.978 3.28909 16.8076L3.23148 16.7383L2.7764 16.2998L2.7139 16.248ZM20.8907 13.9756C20.8906 13.6622 20.6655 13.3932 20.3526 13.3193C20.3515 13.333 20.3498 13.3466 20.3487 13.3603C20.6255 13.432 20.836 13.6745 20.836 13.9756C20.836 14.2948 20.599 14.5517 20.2979 14.6045L20.2891 14.6064H20.2813L20.1992 14.6142H20.1465C20.1434 14.6273 20.14 14.6403 20.1367 14.6533H20.1817V14.8535H19.8799C19.9206 14.7088 19.9575 14.5627 19.9903 14.415H20.1817L20.2637 14.4072C20.4491 14.3746 20.5952 14.2337 20.6289 14.0547L20.6367 13.9756C20.6367 13.7331 20.4327 13.5361 20.1817 13.5361H20.1348C20.1505 13.391 20.1621 13.2448 20.17 13.0976H20.1817L20.2881 13.1035C20.7401 13.1543 21.0908 13.5253 21.0909 13.9756C21.0909 14.4605 20.6837 14.8535 20.1817 14.8535V14.6533C20.5799 14.6533 20.8907 14.3435 20.8907 13.9756ZM19.0459 13.0976H19.2598C19.2509 13.2452 19.2374 13.392 19.2198 13.5371L19.0459 13.5361L18.9932 13.5312C18.9178 13.5141 18.8567 13.4602 18.8311 13.3906L18.8184 13.3174C18.8184 13.2112 18.8963 13.1219 19 13.1015L19.0459 13.0976ZM9.27347 9.38572C10.1388 9.38582 10.8118 9.82435 11.2207 10.6142C11.3866 10.9347 11.249 11.3199 10.9268 11.4756C10.6082 11.6292 10.2165 11.5067 10.0528 11.1904C9.94921 10.9904 9.8366 10.8618 9.71585 10.7822C9.597 10.704 9.45502 10.6631 9.27347 10.6631C9.09164 10.6631 8.94908 10.7038 8.83011 10.7822C8.70941 10.8618 8.59769 10.9905 8.49417 11.1904C8.3304 11.5068 7.93781 11.6294 7.61917 11.4756C7.29698 11.32 7.15944 10.9347 7.32523 10.6142C7.73416 9.82426 8.40804 9.38572 9.27347 9.38572ZM13.8184 9.38572C14.6838 9.38572 15.3577 9.82426 15.7666 10.6142C15.9323 10.9346 15.7947 11.3199 15.4727 11.4756C15.154 11.6294 14.7615 11.5068 14.5977 11.1904C14.4942 10.9905 14.3825 10.8618 14.2617 10.7822C14.1427 10.7038 14.0003 10.6631 13.8184 10.6631C13.6365 10.6631 13.494 10.7038 13.375 10.7822C13.2544 10.8618 13.1426 10.9905 13.0391 11.1904C12.8754 11.5066 12.4836 11.6291 12.1651 11.4756C11.8428 11.3199 11.7052 10.9347 11.8711 10.6142C12.2801 9.82434 12.953 9.38575 13.8184 9.38572ZM9.27347 9.58494C8.48888 9.58494 7.88043 9.97685 7.50296 10.706C7.39074 10.9228 7.48175 11.1864 7.70609 11.2949C7.90252 11.3898 8.13608 11.3344 8.26663 11.1738L8.31644 11.0986C8.54499 10.6572 8.84606 10.4638 9.27347 10.4638L9.42776 10.4726C9.77483 10.5158 10.0305 10.7123 10.2305 11.0986C10.3428 11.3155 10.6154 11.4033 10.8399 11.2949C11.0644 11.1865 11.1553 10.9229 11.043 10.706C10.6891 10.0225 10.1327 9.63544 9.418 9.58982L9.27347 9.58494ZM13.8184 9.58494C13.0338 9.58497 12.4253 9.97688 12.0479 10.706C11.9357 10.9229 12.0275 11.1865 12.252 11.2949C12.4765 11.4032 12.7491 11.3154 12.8614 11.0986C13.0899 10.6571 13.391 10.4639 13.8184 10.4638L13.9727 10.4726C14.3199 10.5157 14.5754 10.7123 14.7754 11.0986C14.8736 11.2882 15.0948 11.3797 15.2989 11.3271L15.3858 11.2949C15.582 11.1999 15.6759 10.9862 15.6211 10.789L15.5889 10.706C15.2114 9.97685 14.603 9.58494 13.8184 9.58494ZM21.085 8.2529C21.34 8.0066 21.7509 8.00662 22.0059 8.2529C22.2356 8.47479 22.2619 8.82221 22.0821 9.07322L22.0772 9.08103L22.0703 9.08787L22.0186 9.14841L22.0127 9.15525L22.0059 9.16111L21.5518 9.60056C21.2968 9.84683 20.8859 9.84676 20.6309 9.60056C20.4011 9.37862 20.3747 9.03128 20.5547 8.78025L20.5596 8.77244L20.5655 8.7656L20.6182 8.70505L20.6241 8.69822L20.6309 8.69236L21.085 8.2529ZM21.8672 8.39646C21.6897 8.22504 21.4012 8.22502 21.2237 8.39646L20.7696 8.83591L20.7168 8.89646C20.5941 9.06756 20.6118 9.30461 20.7696 9.45701C20.9249 9.60692 21.1645 9.62515 21.3409 9.51267L21.4121 9.45701L21.8672 9.01755L21.92 8.95701C22.0271 8.80745 22.027 8.6076 21.92 8.45798L21.8672 8.39646ZM6.86429 5.64744C5.83336 6.29094 4.95337 7.14094 4.28714 8.13669L3.14163 4.54099L6.86429 5.64744ZM4.3555 7.69333C4.91967 6.93119 5.60952 6.26214 6.39651 5.7158L3.44632 4.83982L4.3555 7.69333ZM12.7764 5.76267C12.599 5.59128 12.3113 5.5914 12.1338 5.76267L11.6787 6.20212L11.626 6.26267L11.5869 6.32908C11.5101 6.49101 11.5408 6.6888 11.6787 6.82224C11.8562 6.99368 12.1438 6.99365 12.3213 6.82224L12.7764 6.38376L12.8291 6.32322C12.9365 6.17348 12.9366 5.97294 12.8291 5.82322L12.7764 5.76267ZM7.44925 2.98435C7.64805 2.79248 7.94014 2.75144 8.17972 2.8574L8.27933 2.91111L8.28714 2.91697L8.29398 2.92185L8.35648 2.97263L8.37015 2.98435L8.82425 3.4238C9.08315 3.67387 9.08312 4.08193 8.82425 4.33201C8.59696 4.55154 8.24751 4.57476 7.99417 4.40525L7.98734 4.40037L7.9805 4.39451L7.91702 4.34372L7.91019 4.33884L7.90335 4.33201L7.44925 3.89353C7.19034 3.64345 7.19034 3.23443 7.44925 2.98435ZM8.168 3.0781C7.99085 2.95957 7.7457 2.97648 7.58792 3.12888L7.5303 3.19724C7.41368 3.36755 7.43284 3.59888 7.58792 3.749L8.043 4.18845L8.1055 4.23923C8.2604 4.34288 8.46713 4.34274 8.6221 4.23923L8.68558 4.18845C8.84075 4.03854 8.86038 3.80706 8.74417 3.63669L8.68558 3.56736L8.2305 3.12888L8.168 3.0781ZM19.0225 13.3261C19.0253 13.3295 19.0296 13.3321 19.0352 13.334H19.0371C19.0383 13.3223 19.039 13.3105 19.0401 13.2988C19.033 13.2999 19.0272 13.3021 19.0235 13.3056C19.0191 13.3099 19.0186 13.3143 19.0186 13.3174C19.0186 13.3202 19.0197 13.3227 19.0225 13.3261ZM2.92093 13.0879C3.14478 17.3534 6.68534 20.7732 11.1016 20.9892L11.5459 21C15.192 20.9999 18.3103 18.8182 19.5772 15.7324L20.1817 15.7314L20.3174 15.7265C21.2582 15.6595 22 14.9013 22 13.9756C22 13.0665 21.2848 12.3186 20.3682 12.2285L20.1817 12.2197H20.17L20.1377 11.8095C19.7116 7.73703 16.2533 4.52998 11.9766 4.32712L11.5459 4.31736C10.2741 4.31736 9.06666 4.58286 7.97952 5.05955L2.5889 3.45798L2.51468 3.44236C2.19585 3.39986 1.92123 3.69416 2.02054 4.00681L3.67776 9.21384C3.18435 10.2637 2.91024 11.43 2.91019 12.6582L2.92093 13.0879Z" fill="black"/>
</svg>
