<svg width="24" height="24" viewBox="0 0 24 24" fill="none" xmlns="http://www.w3.org/2000/svg">
<path d="M19.7778 19.7778H4.22222V4.22222H11.4857C11.7697 4.22222 12 3.99197 12 3.70794V2.51429C12 2.23025 11.7697 2 11.4857 2H4.22222C2.98889 2 2 3 2 4.22222V19.7778C2 21 2.98889 22 4.22222 22H19.7778C21 22 22 21 22 19.7778V12.5143C22 12.2303 21.7697 12 21.4857 12H20.2921C20.008 12 19.7778 12.2303 19.7778 12.5143V19.7778ZM14.7365 2C14.4525 2 14.2222 2.23025 14.2222 2.51429V3.70794C14.2222 3.99197 14.4525 4.22222 14.7365 4.22222H18.2111L7.28889 15.1444L8.85556 16.7111L19.7778 5.78889V9.26349C19.7778 9.54752 20.008 9.77778 20.2921 9.77778H21.4857C21.7697 9.77778 22 9.54752 22 9.26349V2.51429C22 2.23025 21.7697 2 21.4857 2H14.7365Z" fill="black"/>
</svg>
