<svg width="24" height="24" viewBox="0 0 24 24" fill="none" xmlns="http://www.w3.org/2000/svg">
<path d="M3.93856 13.318C3.84906 13.5624 3.66779 13.7623 3.43329 13.8752C3.19879 13.988 2.92953 14.005 2.68272 13.9224C2.43592 13.8399 2.23101 13.6643 2.11156 13.4331C1.9921 13.2018 1.9675 12.9331 2.04298 12.684C2.0796 12.5743 2.12097 12.4642 2.16696 12.358C2.24694 12.168 2.36491 11.906 2.52688 11.596C2.8568 10.976 3.37069 10.15 4.12852 9.324C5.65818 7.654 8.16363 6 11.9888 6C15.8139 6 18.3194 7.654 19.849 9.324C20.6649 10.2204 21.327 11.2456 21.8086 12.358L21.9006 12.584C21.9066 12.6 21.9266 12.704 21.9466 12.804L21.9866 13C21.9866 13 22.1545 13.666 21.3027 13.948C21.0519 14.0318 20.778 14.0128 20.5412 13.8951C20.3043 13.7773 20.1238 13.5706 20.039 13.32V13.314L20.027 13.282L19.965 13.126C19.5722 12.2275 19.0353 11.3993 18.3754 10.674C17.1556 9.348 15.1621 8 11.9888 8C8.81548 8 6.82192 9.346 5.60219 10.676C4.94248 11.4006 4.40553 12.2282 4.01255 13.126L3.95256 13.282L3.93856 13.318ZM7.98967 14C7.98967 12.9391 8.411 11.9217 9.16098 11.1716C9.91096 10.4214 10.9281 10 11.9888 10C13.0494 10 14.0666 10.4214 14.8166 11.1716C15.5666 11.9217 15.9879 12.9391 15.9879 14C15.9879 15.0609 15.5666 16.0783 14.8166 16.8284C14.0666 17.5786 13.0494 18 11.9888 18C10.9281 18 9.91096 17.5786 9.16098 16.8284C8.411 16.0783 7.98967 15.0609 7.98967 14Z" fill="black"/>
</svg>
