<svg width="24" height="24" viewBox="0 0 24 24" fill="none" xmlns="http://www.w3.org/2000/svg">
<mask id="mask0_2473_9592" style="mask-type:alpha" maskUnits="userSpaceOnUse" x="0" y="0" width="24" height="24">
<rect width="24" height="24" fill="#D9D9D9"/>
</mask>
<g mask="url(#mask0_2473_9592)">
<path d="M12 22C11.6852 22 11.4213 21.8935 11.2083 21.6806C10.9954 21.4676 10.8889 21.2037 10.8889 20.8889L10.8889 16.4444C10.8889 16.1296 10.9954 15.8657 11.2083 15.6528C11.4213 15.4398 11.6852 15.3333 12 15.3333C12.3148 15.3333 12.5787 15.4398 12.7917 15.6528C13.0046 15.8657 13.1111 16.1296 13.1111 16.4444L13.1111 17.5556H20.8889C21.2037 17.5556 21.4676 17.662 21.6806 17.875C21.8935 18.088 22 18.3519 22 18.6667C22 18.9815 21.8935 19.2454 21.6806 19.4583C21.4676 19.6713 21.2037 19.7778 20.8889 19.7778H13.1111V20.8889C13.1111 21.2037 13.0046 21.4676 12.7917 21.6806C12.5787 21.8935 12.3148 22 12 22ZM3.11111 19.7778C2.7963 19.7778 2.53241 19.6713 2.31944 19.4583C2.10648 19.2454 2 18.9815 2 18.6667C2 18.3519 2.10648 18.088 2.31944 17.875C2.53241 17.662 2.7963 17.5556 3.11111 17.5556H7.55556C7.87037 17.5556 8.13426 17.662 8.34722 17.875C8.56019 18.088 8.66667 18.3519 8.66667 18.6667C8.66667 18.9815 8.56019 19.2454 8.34722 19.4583C8.13426 19.6713 7.87037 19.7778 7.55556 19.7778H3.11111ZM7.55556 15.3333C7.24074 15.3333 6.97685 15.2269 6.76389 15.0139C6.55093 14.8009 6.44444 14.537 6.44444 14.2222V13.1111H3.11111C2.7963 13.1111 2.53241 13.0046 2.31944 12.7917C2.10648 12.5787 2 12.3148 2 12C2 11.6852 2.10648 11.4213 2.31944 11.2083C2.53241 10.9954 2.7963 10.8889 3.11111 10.8889H6.44444V9.77778C6.44444 9.46296 6.55093 9.19907 6.76389 8.98611C6.97685 8.77315 7.24074 8.66667 7.55556 8.66667C7.87037 8.66667 8.13426 8.77315 8.34722 8.98611C8.56019 9.19907 8.66667 9.46296 8.66667 9.77778V14.2222C8.66667 14.537 8.56019 14.8009 8.34722 15.0139C8.13426 15.2269 7.87037 15.3333 7.55556 15.3333ZM12 13.1111C11.6852 13.1111 11.4213 13.0046 11.2083 12.7917C10.9954 12.5787 10.8889 12.3148 10.8889 12C10.8889 11.6852 10.9954 11.4213 11.2083 11.2083C11.4213 10.9954 11.6852 10.8889 12 10.8889L20.8889 10.8889C21.2037 10.8889 21.4676 10.9954 21.6806 11.2083C21.8935 11.4213 22 11.6852 22 12C22 12.3148 21.8935 12.5787 21.6806 12.7917C21.4676 13.0046 21.2037 13.1111 20.8889 13.1111L12 13.1111ZM16.4444 8.66667C16.1296 8.66667 15.8657 8.56019 15.6528 8.34722C15.4398 8.13426 15.3333 7.87037 15.3333 7.55556V3.11111C15.3333 2.7963 15.4398 2.53241 15.6528 2.31944C15.8657 2.10648 16.1296 2 16.4444 2C16.7593 2 17.0231 2.10648 17.2361 2.31944C17.4491 2.53241 17.5556 2.7963 17.5556 3.11111V4.22222L20.8889 4.22222C21.2037 4.22222 21.4676 4.3287 21.6806 4.54167C21.8935 4.75463 22 5.01852 22 5.33333C22 5.64815 21.8935 5.91204 21.6806 6.125C21.4676 6.33796 21.2037 6.44444 20.8889 6.44444H17.5556V7.55556C17.5556 7.87037 17.4491 8.13426 17.2361 8.34722C17.0231 8.56019 16.7593 8.66667 16.4444 8.66667ZM3.11111 6.44444C2.7963 6.44444 2.53241 6.33796 2.31944 6.125C2.10648 5.91204 2 5.64815 2 5.33333C2 5.01852 2.10648 4.75463 2.31944 4.54167C2.53241 4.3287 2.7963 4.22222 3.11111 4.22222H12C12.3148 4.22222 12.5787 4.3287 12.7917 4.54167C13.0046 4.75463 13.1111 5.01852 13.1111 5.33333C13.1111 5.64815 13.0046 5.91204 12.7917 6.125C12.5787 6.33796 12.3148 6.44444 12 6.44444L3.11111 6.44444Z" fill="black"/>
</g>
</svg>
