<svg width="24" height="24" viewBox="0 0 24 24" fill="none" xmlns="http://www.w3.org/2000/svg">
<path d="M13.4711 3.10544C13.9694 2.9293 14.5023 2.98176 14.9382 3.20115L15.1323 3.31443L15.1704 3.33884L15.2053 3.36716L22.824 9.47751C23.3506 9.80222 23.5718 10.3464 23.5719 10.8164V11.3476L23.4507 11.4248C23.3393 11.7028 23.1567 11.9522 22.9185 12.1435L22.9154 12.1455L15.2382 18.2685L15.2269 18.2773L15.2145 18.2861C14.8697 18.5457 14.4927 18.6426 14.141 18.6426C13.8235 18.6425 13.5448 18.538 13.4752 18.5146L13.4331 18.5009L13.392 18.4834C12.6883 18.1808 12.3885 17.5201 12.3883 16.9394V14.3828C11.6447 14.3537 10.8625 14.5251 10.0553 14.8603C8.9556 15.317 7.87654 16.0506 6.9075 16.8593C4.95976 18.4849 3.62157 20.2744 3.63646 20.2519L3.61283 20.2881L3.58612 20.3222C3.27059 20.7184 2.76332 20.9998 2.18689 21C1.99934 21 1.84551 20.9668 1.7287 20.9316C1.67726 20.9161 1.63199 20.8994 1.60748 20.8906C1.57704 20.8797 1.56768 20.8763 1.55508 20.872L1.5068 20.8554L1.45954 20.8349C0.65043 20.4742 0.368288 19.6915 0.439398 19.0508L0.44248 19.0185L0.448644 18.9873C1.31848 14.1498 3.34751 10.5352 6.66402 8.499C8.57747 7.31576 10.6109 6.85054 12.3524 6.74411V4.69431C12.3525 4.11312 12.6534 3.45288 13.3571 3.15036L13.4711 3.10544ZM14.4564 8.74118L13.3828 8.72068C11.7475 8.68867 9.69149 9.01146 7.80847 10.1767L7.80539 10.1787C5.42092 11.6426 3.70388 14.2282 2.79302 18.039C3.44069 17.2988 4.38706 16.3016 5.51957 15.3564C6.57941 14.4719 7.84315 13.5975 9.21386 13.0283C10.5873 12.458 12.1361 12.1674 13.7064 12.5586L14.4923 12.7549V16.2519L21.2686 10.8476L14.4564 5.38376V8.74118Z" fill="black"/>
</svg>
