<svg width="24" height="24" viewBox="0 0 24 24" fill="none" xmlns="http://www.w3.org/2000/svg">
<path d="M21.9999 10.8168C21.9999 11.0279 21.9 11.239 21.7333 11.3798L14.4351 17.502C14.3019 17.6075 14.1685 17.6426 14.0353 17.6426C13.9353 17.6426 13.8354 17.6075 13.7354 17.5722C13.502 17.4666 13.3688 17.2202 13.3688 16.939V13.5261C8.53679 12.2595 3.27139 19.6129 3.20474 19.7185C3.07154 19.8945 2.8714 20 2.67149 20C2.57153 20 2.50482 19.9649 2.40486 19.9296C2.10499 19.7889 1.97157 19.4721 2.00503 19.1555C2.80489 14.476 4.63758 11.1686 7.47032 9.33904C9.46993 8.03728 11.6359 7.68538 13.3354 7.72043V4.69457C13.3354 4.41307 13.4686 4.16691 13.702 4.06138C13.9354 3.95585 14.2018 3.99094 14.402 4.13182L21.7001 10.2891C21.9 10.3946 22 10.6057 22 10.8168L21.9999 10.8168Z" stroke="black" stroke-width="2" stroke-miterlimit="16"/>
</svg>
