<svg width="24" height="24" viewBox="0 0 24 24" fill="none" xmlns="http://www.w3.org/2000/svg">
<path d="M21.9727 16.09L20.838 8.43C20.5465 6.46 18.7872 5 16.7157 5H7.28433C5.21276 5 3.4535 6.46 3.16202 8.43L2.02734 16.09C1.79833 17.63 3.0371 19 4.65063 19C5.3585 19 6.02473 18.73 6.52441 18.25L8.87704 16H15.123L17.4652 18.25C17.9649 18.73 18.6415 19 19.339 19C20.9629 19 22.2017 17.63 21.9727 16.09ZM19.7866 16.81C19.7033 16.9 19.568 17 19.3494 17C19.1932 17 19.0475 16.94 18.9434 16.84L15.987 14H8.01302L5.05662 16.84C4.95252 16.94 4.80678 17 4.65063 17C4.43202 17 4.2967 16.9 4.21342 16.81C4.13014 16.72 4.04686 16.58 4.07809 16.37L5.21276 8.71C5.36891 7.74 6.25375 7 7.28433 7H16.7157C17.7463 7 18.6311 7.74 18.7768 8.72L19.9115 16.38C19.9427 16.58 19.8595 16.72 19.7866 16.81Z" fill="black"/>
<path d="M8.87711 8.00012H7.83613V10.0001H5.75415V11.0001H7.83613V13.0001H8.87711V11.0001H10.9591V10.0001H8.87711V8.00012Z" fill="black"/>
<path d="M17.2051 13C17.78 13 18.246 12.5523 18.246 12C18.246 11.4477 17.78 11 17.2051 11C16.6301 11 16.1641 11.4477 16.1641 12C16.1641 12.5523 16.6301 13 17.2051 13Z" fill="black"/>
<path d="M15.123 10.0001C15.6979 10.0001 16.164 9.55241 16.164 9.00012C16.164 8.44784 15.6979 8.00012 15.123 8.00012C14.5481 8.00012 14.082 8.44784 14.082 9.00012C14.082 9.55241 14.5481 10.0001 15.123 10.0001Z" fill="black"/>
</svg>
