<svg width="24" height="24" viewBox="0 0 24 24" fill="none" xmlns="http://www.w3.org/2000/svg">
<path d="M3.81818 18C3.31818 18 2.89015 17.8205 2.53409 17.4615C2.17803 17.1024 2 16.6708 2 16.1667C2 15.6625 2.17803 15.2309 2.53409 14.8719C2.89015 14.5128 3.31818 14.3333 3.81818 14.3333H4.05682C4.125 14.3333 4.19697 14.3486 4.27273 14.3792L8.40909 10.2083C8.37879 10.1319 8.36364 10.0594 8.36364 9.99063V9.75C8.36364 9.24583 8.54167 8.81424 8.89773 8.45521C9.25379 8.09618 9.68182 7.91667 10.1818 7.91667C10.6818 7.91667 11.1098 8.09618 11.4659 8.45521C11.822 8.81424 12 9.24583 12 9.75C12 9.78056 11.9848 9.93333 11.9545 10.2083L14.2727 12.5458C14.3485 12.5153 14.4205 12.5 14.4886 12.5H14.9659C15.0341 12.5 15.1061 12.5153 15.1818 12.5458L18.4091 9.29167C18.3788 9.21528 18.3636 9.14271 18.3636 9.07396V8.83333C18.3636 8.32917 18.5417 7.89757 18.8977 7.53854C19.2538 7.17951 19.6818 7 20.1818 7C20.6818 7 21.1098 7.17951 21.4659 7.53854C21.822 7.89757 22 8.32917 22 8.83333C22 9.3375 21.822 9.7691 21.4659 10.1281C21.1098 10.4872 20.6818 10.6667 20.1818 10.6667H19.9432C19.875 10.6667 19.803 10.6514 19.7273 10.6208L16.5 13.875C16.5303 13.9514 16.5455 14.024 16.5455 14.0927V14.3333C16.5455 14.8375 16.3674 15.2691 16.0114 15.6281C15.6553 15.9872 15.2273 16.1667 14.7273 16.1667C14.2273 16.1667 13.7992 15.9872 13.4432 15.6281C13.0871 15.2691 12.9091 14.8375 12.9091 14.3333V14.0927C12.9091 14.024 12.9242 13.9514 12.9545 13.875L10.6364 11.5375C10.5606 11.5681 10.4886 11.5833 10.4205 11.5833H10.1818C10.1515 11.5833 10 11.5681 9.72727 11.5375L5.59091 15.7083C5.62121 15.7847 5.63636 15.8573 5.63636 15.926V16.1667C5.63636 16.6708 5.45833 17.1024 5.10227 17.4615C4.74621 17.8205 4.31818 18 3.81818 18Z" fill="black"/>
</svg>
