<svg width="24" height="24" viewBox="0 0 24 24" fill="none" xmlns="http://www.w3.org/2000/svg">
<path d="M20.1818 8.81812C18.8636 8.81812 18.1273 10.1272 18.4273 11.0999L15.2 14.3363C14.9273 14.2545 14.5273 14.2545 14.2545 14.3363L11.9364 12.0181C12.2455 11.0454 11.5091 9.72721 10.1818 9.72721C8.86364 9.72721 8.11818 11.0363 8.42727 12.0181L4.28182 16.1545C3.30909 15.8545 2 16.5908 2 17.909C2 18.909 2.81818 19.7272 3.81818 19.7272C5.13636 19.7272 5.87273 18.4181 5.57273 17.4454L9.70909 13.2999C9.98182 13.3818 10.3818 13.3818 10.6545 13.2999L12.9727 15.6181C12.6636 16.5908 13.4 17.909 14.7273 17.909C16.0455 17.909 16.7909 16.5999 16.4818 15.6181L19.7182 12.3908C20.6909 12.6908 22 11.9545 22 10.6363C22 9.6363 21.1818 8.81812 20.1818 8.81812Z" fill="black"/>
<path d="M14.7273 9.72725L15.5818 7.84543L17.4545 6.99998L15.5818 6.15452L14.7273 4.27271L13.8909 6.15452L12 6.99998L13.8909 7.84543L14.7273 9.72725Z" fill="black"/>
<path d="M4.27273 11.5455L4.72727 9.72727L6.54545 9.27273L4.72727 8.81818L4.27273 7L3.81818 8.81818L2 9.27273L3.81818 9.72727L4.27273 11.5455Z" fill="black"/>
</svg>
