<svg width="24" height="24" viewBox="0 0 24 24" fill="none" xmlns="http://www.w3.org/2000/svg">
<path d="M15.125 14.0527C14.9863 14.0527 14.8753 13.9415 14.8475 13.8026C14.5146 11.5518 12.4334 9.46775 10.1857 9.1343C10.047 9.10651 9.936 8.96757 9.96375 8.82864C9.9915 8.6897 10.1302 8.57855 10.269 8.60634C12.7386 8.96757 15.014 11.2739 15.3748 13.7192C15.4025 13.8582 15.2915 14.0249 15.1528 14.0249C15.125 14.0249 15.125 14.0527 15.125 14.0527Z" fill="black"/>
<path d="M9.51319 8.5982C9.63381 8.30032 9.94995 8.04851 10.3403 8.11285L10.3413 8.11187C10.3456 8.1125 10.3497 8.11416 10.354 8.1148C10.3581 8.11556 10.3626 8.11495 10.3667 8.11578L10.3657 8.11675C11.7168 8.32085 12.9887 9.04523 13.9673 10.0289C14.9516 11.0183 15.671 12.3 15.8696 13.646H15.8677C15.9035 13.8636 15.8372 14.0673 15.7349 14.2125C15.7056 14.2539 15.6687 14.2958 15.6255 14.3355V14.5523H15.1255C14.6969 14.5523 14.4206 14.219 14.3569 13.9009L14.353 13.8755C14.2048 12.8737 13.6609 11.8847 12.8804 11.1031C12.0999 10.3216 11.1127 9.7769 10.1128 9.62847L10.1001 9.6275L10.0874 9.62457C9.73017 9.55293 9.38172 9.1897 9.47315 8.73101L9.51319 8.5982ZM15.1528 14.525C15.1736 14.525 15.1952 14.5232 15.2173 14.5201C15.1962 14.522 15.1749 14.525 15.1528 14.525Z" fill="black"/>
<path d="M19.4538 9.69011H19.426C16.9564 9.32887 14.681 7.02252 14.3203 4.57722C14.2925 4.43828 14.4035 4.27156 14.5423 4.27156C14.7087 4.24377 14.8475 4.35492 14.8475 4.49386C15.1805 6.71685 17.2616 8.80091 19.5093 9.13436C19.648 9.16215 19.759 9.30109 19.7313 9.44002C19.7035 9.57896 19.5925 9.69011 19.4538 9.69011Z" fill="black"/>
<path d="M14.4703 3.77709C14.8596 3.71774 15.3035 3.96684 15.3434 4.4265C15.4927 5.4114 16.0339 6.39156 16.8131 7.16869C17.5939 7.94741 18.5825 8.49098 19.5826 8.63939L19.5953 8.64134L19.607 8.64427C19.9644 8.71584 20.3129 9.07898 20.2213 9.53783C20.1578 9.85596 19.8824 10.1902 19.4537 10.1902H19.3893L19.3541 10.1853C17.994 9.98635 16.7126 9.25772 15.7281 8.2683C14.7437 7.27881 14.0244 5.9963 13.8258 4.65013L13.8268 4.64916C13.7915 4.43219 13.8585 4.22954 13.9605 4.0847C14.0567 3.94831 14.2303 3.80222 14.4703 3.77709Z" fill="black"/>
<path d="M9.93615 9.19C9.71416 9.19 9.46442 9.10664 9.29793 8.93991L7.96599 7.60612C7.60525 7.24488 7.60525 6.68913 7.96599 6.32789L12.0173 2.27093C12.3781 1.90969 12.933 1.90969 13.2938 2.27093L14.6257 3.60472C14.9864 3.96596 14.9864 4.52171 14.6257 4.88295L10.5744 8.91213C10.4079 9.10664 10.1581 9.19 9.93615 9.19ZM12.6555 2.52101C12.5723 2.52101 12.489 2.5488 12.4058 2.63216L8.35447 6.68913C8.21573 6.82807 8.21573 7.05037 8.35447 7.18931L9.68641 8.5231C9.82516 8.66204 10.0471 8.66204 10.1859 8.5231L14.2372 4.46614C14.376 4.3272 14.376 4.1049 14.2372 3.96596L12.9053 2.63216C12.822 2.57659 12.7388 2.52101 12.6555 2.52101Z" fill="black"/>
<path d="M11.6632 1.91799C12.2192 1.36116 13.0915 1.36116 13.6475 1.91799L14.9796 3.25099C15.5352 3.80743 15.5352 4.6799 14.9796 5.23635L14.9786 5.23732L10.9268 9.26662L10.9259 9.26564C10.6456 9.57254 10.2587 9.69045 9.93562 9.69045C9.60642 9.69033 9.22109 9.57003 8.94441 9.29299L7.61238 7.959C7.05681 7.40255 7.05674 6.53104 7.61238 5.97463L11.6632 1.91799ZM8.81062 6.93849L9.93562 8.06545L13.7803 4.21584L12.6553 3.08888L8.81062 6.93849Z" fill="black"/>
<path d="M17.0399 16.3036C16.7901 16.3036 16.5681 16.2203 16.4016 16.0535L15.0697 14.7198C14.7089 14.3585 14.7089 13.8028 15.0697 13.4415L19.121 9.35678C19.454 9.02333 20.0645 9.02333 20.3975 9.35678L21.7294 10.6906C22.0901 11.0518 22.0901 11.6076 21.7294 11.9688L17.6781 16.0258C17.5116 16.2203 17.2896 16.3036 17.0399 16.3036ZM15.4582 14.3029L16.7901 15.6367C16.9289 15.7757 17.1508 15.7757 17.2896 15.6367L21.3409 11.5798C21.4797 11.4408 21.4797 11.2185 21.3409 11.0796L20.009 9.7458C19.8702 9.60686 19.6482 9.60686 19.5095 9.7458L15.4582 13.8028C15.3194 13.9417 15.3194 14.164 15.4582 14.3029Z" fill="black"/>
<path d="M18.7669 9.00316C19.2952 8.47416 20.223 8.47425 20.7513 9.00316L22.0833 10.3371C22.639 10.8936 22.639 11.766 22.0833 12.3225L18.0316 16.3791L18.0306 16.3782C17.7565 16.6806 17.3982 16.8039 17.0394 16.8039C16.6743 16.8038 16.3198 16.6785 16.0482 16.4065L14.7161 15.0735C14.1605 14.517 14.1605 13.6446 14.7161 13.0881L18.7659 9.00511L18.7669 9.00316ZM15.9144 14.053L17.0394 15.1789L20.8841 11.3293L19.7591 10.2024L15.9144 14.053Z" fill="black"/>
<path d="M3.74818 22C3.44294 22 3.16545 21.8889 2.97121 21.6666L2.33299 21.0274C2.111 20.8051 2 20.5273 2 20.2216C2 19.916 2.13874 19.6381 2.36074 19.4158L12.4336 9.80132C12.5446 9.69017 12.7111 9.69017 12.8221 9.80132L14.154 11.1351C14.265 11.2463 14.265 11.413 14.154 11.5241L4.58064 21.6388C4.3864 21.8611 4.10891 22 3.80368 22C3.77593 22 3.74818 22 3.74818 22ZM12.6278 10.3849L2.72147 19.8326C2.61047 19.9437 2.52723 20.0827 2.52723 20.2216C2.52723 20.3883 2.58273 20.5273 2.69372 20.6384L3.33194 21.2775C3.44294 21.3887 3.58168 21.4443 3.74818 21.4443C3.91467 21.4443 4.05342 21.3609 4.13666 21.2497L13.5713 11.3296L12.6278 10.3849Z" fill="black"/>
<path d="M12.0879 9.44061C12.3946 9.14161 12.8721 9.14428 13.1758 9.44843L14.5078 10.7814C14.8104 11.0845 14.8126 11.5596 14.5166 11.8664L14.5176 11.8674L4.94336 21.9826C4.66273 22.2957 4.25786 22.5002 3.80371 22.5002H3.74805C3.32924 22.5002 2.91748 22.3476 2.61719 22.0187V22.0197L1.97949 21.381C1.66216 21.0633 1.50006 20.6574 1.5 20.2219C1.5 19.7566 1.71242 19.3576 2.00684 19.0627L2.01562 19.0539L12.0879 9.43964V9.44061ZM3.0752 20.1857C3.05199 20.209 3.03742 20.229 3.0293 20.2424C3.03067 20.2555 3.03207 20.263 3.0332 20.2658C3.03466 20.2694 3.03809 20.2756 3.04785 20.2853L3.68555 20.924C3.69566 20.9341 3.70178 20.9373 3.70508 20.9387C3.7086 20.9401 3.71922 20.9429 3.74121 20.9435L3.75391 20.9269L3.77441 20.9055L12.873 11.3381L12.6182 11.0832L3.0752 20.1857Z" fill="black"/>
</svg>
