<svg width="24" height="24" viewBox="0 0 24 24" fill="none" xmlns="http://www.w3.org/2000/svg">
<path d="M15.125 14.0527C14.9863 14.0527 14.8753 13.9415 14.8475 13.8026C14.5146 11.5518 12.4334 9.46775 10.1857 9.1343C10.047 9.10651 9.936 8.96757 9.96375 8.82864C9.9915 8.6897 10.1302 8.57855 10.269 8.60634C12.7386 8.96757 15.014 11.2739 15.3748 13.7192C15.4025 13.8582 15.2915 14.0249 15.1528 14.0249C15.125 14.0249 15.125 14.0527 15.125 14.0527Z" fill="black" stroke="black"/>
<path d="M19.4537 9.69017H19.426C16.9563 9.32894 14.6809 7.02258 14.3202 4.57728C14.2924 4.43834 14.4034 4.27162 14.5422 4.27162C14.7087 4.24383 14.8474 4.35498 14.8474 4.49392C15.1804 6.71692 17.2616 8.80097 19.5092 9.13442C19.648 9.16221 19.759 9.30115 19.7312 9.44008C19.7035 9.57902 19.5925 9.69017 19.4537 9.69017Z" fill="black" stroke="black"/>
<path d="M9.93603 9.19C9.71404 9.19 9.4643 9.10664 9.29781 8.93991L7.96586 7.60612C7.60513 7.24488 7.60513 6.68913 7.96586 6.32789L12.0172 2.27093C12.3779 1.90969 12.9329 1.90969 13.2936 2.27093L14.6256 3.60472C14.9863 3.96596 14.9863 4.52171 14.6256 4.88295L10.5743 8.91213C10.4078 9.10664 10.158 9.19 9.93603 9.19ZM12.6554 2.52101C12.5722 2.52101 12.4889 2.5488 12.4057 2.63216L8.35435 6.68913C8.2156 6.82807 8.2156 7.05037 8.35435 7.18931L9.68629 8.5231C9.82504 8.66204 10.047 8.66204 10.1858 8.5231L14.2371 4.46614C14.3758 4.3272 14.3758 4.1049 14.2371 3.96596L12.9052 2.63216C12.8219 2.57659 12.7387 2.52101 12.6554 2.52101Z" fill="black" stroke="black"/>
<path d="M17.0398 16.3036C16.7901 16.3036 16.5681 16.2203 16.4016 16.0535L15.0696 14.7198C14.7089 14.3585 14.7089 13.8028 15.0696 13.4415L19.121 9.35678C19.4539 9.02333 20.0644 9.02333 20.3974 9.35678L21.7293 10.6906C22.0901 11.0518 22.0901 11.6076 21.7293 11.9688L17.678 16.0258C17.5115 16.2203 17.2895 16.3036 17.0398 16.3036ZM15.4581 14.3029L16.7901 15.6367C16.9288 15.7757 17.1508 15.7757 17.2895 15.6367L21.3409 11.5798C21.4796 11.4408 21.4796 11.2185 21.3409 11.0796L20.0089 9.7458C19.8702 9.60686 19.6482 9.60686 19.5094 9.7458L15.4581 13.8028C15.3194 13.9417 15.3194 14.164 15.4581 14.3029Z" fill="black" stroke="black"/>
<path d="M3.74818 22.0001C3.44294 22.0001 3.16545 21.8889 2.97121 21.6666L2.33299 21.0275C2.111 20.8052 2 20.5273 2 20.2217C2 19.916 2.13874 19.6381 2.36074 19.4158L12.4336 9.80138C12.5446 9.69023 12.7111 9.69023 12.8221 9.80138L14.154 11.1352C14.265 11.2463 14.265 11.4131 14.154 11.5242L4.58064 21.6388C4.3864 21.8611 4.10891 22.0001 3.80368 22.0001C3.77593 22.0001 3.74818 22.0001 3.74818 22.0001ZM12.6278 10.3849L2.72147 19.8326C2.61047 19.9438 2.52723 20.0827 2.52723 20.2217C2.52723 20.3884 2.58273 20.5273 2.69372 20.6385L3.33194 21.2776C3.44294 21.3887 3.58168 21.4443 3.74818 21.4443C3.91467 21.4443 4.05342 21.361 4.13666 21.2498L13.5713 11.3297L12.6278 10.3849Z" fill="black" stroke="black"/>
</svg>
