<svg width="24" height="24" viewBox="0 0 24 24" fill="none" xmlns="http://www.w3.org/2000/svg">
<path d="M13.4286 3C8.69524 3 4.85714 7.03 4.85714 12H2L5.70476 15.89L5.77143 16.03L9.61905 12H6.7619C6.7619 8.13 9.74286 5 13.4286 5C17.1143 5 20.0952 8.13 20.0952 12C20.0952 15.87 17.1143 19 13.4286 19C11.5905 19 9.92381 18.21 8.72381 16.94L7.37143 18.36C8.92381 19.99 11.0571 21 13.4286 21C18.1619 21 22 16.97 22 12C22 7.03 18.1619 3 13.4286 3ZM12.4762 8V13L16.5238 15.52L17.2571 14.24L13.9048 12.15V8H12.4762Z" fill="black"/>
</svg>
