<svg width="24" height="24" viewBox="0 0 24 24" fill="none" xmlns="http://www.w3.org/2000/svg">
<path d="M22 6L21.7088 6.00671H19.9717C19.416 6.00671 19.0998 6.18291 18.8686 6.55545C18.8253 6.64943 18.7837 6.75347 18.7454 6.87597L16.7604 14.2513C16.7288 14.3301 16.6822 14.3603 16.6356 14.3603H16.5574C16.5108 14.3603 16.4642 14.3285 16.4326 14.2513L14.2346 7.04211C14 6.27353 13.6106 6.00671 12.8319 6.00671H10.995C10.3561 6.00671 9.92013 6.22487 9.68719 7.04211L7.5574 14.2513C7.52579 14.3301 7.4792 14.3603 7.44759 14.3603H7.36938C7.30616 14.3603 7.27621 14.3285 7.26123 14.2513L5.33611 7.37269L5.203 6.89947C5.16306 6.77696 5.12479 6.68299 5.08319 6.58734C4.85691 6.19634 4.54077 6.0151 3.99334 6.00671H2L2.13478 6.43127L4.802 15.6021C5.12978 16.7483 5.48752 17 6.2812 17H8.401C9.08652 17 9.41265 16.7181 9.75374 15.6021L11.8369 8.75545C11.8519 8.67658 11.8835 8.64638 11.9451 8.64638H12.0083C12.0715 8.64638 12.0865 8.67826 12.1015 8.75545L14.1597 15.6021C14.4875 16.7181 14.8303 17 15.5141 17H17.6955C18.3494 17 18.7221 16.7181 19.0649 15.6021L21.8652 6.43127L22 6Z" fill="black"/>
</svg>
