<svg width="24" height="24" viewBox="0 0 24 24" fill="none" xmlns="http://www.w3.org/2000/svg">
<path d="M3.8 15.6667C3.35817 15.6667 3 15.3085 3 14.8667V14.3333C3 13.8915 3.35817 13.5333 3.8 13.5333H10.6211C11.0629 13.5333 11.4211 13.8915 11.4211 14.3333V14.8667C11.4211 15.3085 11.0629 15.6667 10.6211 15.6667H3.8ZM3.8 11.4C3.35817 11.4 3 11.0418 3 10.6V10.0667C3 9.62484 3.35817 9.26667 3.8 9.26667H14.8316C15.2734 9.26667 15.6316 9.62484 15.6316 10.0667V10.6C15.6316 11.0418 15.2734 11.4 14.8316 11.4H3.8ZM3.8 7.13333C3.35817 7.13333 3 6.77516 3 6.33333V5.8C3 5.35817 3.35817 5 3.8 5H14.8316C15.2734 5 15.6316 5.35817 15.6316 5.8V6.33333C15.6316 6.77516 15.2734 7.13333 14.8316 7.13333H3.8ZM17.3081 20.5785C17.0425 20.758 16.6842 20.5676 16.6842 20.2471V13.2196C16.6842 12.899 17.0425 12.7087 17.3081 12.8882L22.5094 16.4019C22.7441 16.5605 22.7441 16.9062 22.5094 17.0648L17.3081 20.5785Z" fill="black"/>
</svg>
