<svg width="24" height="24" viewBox="0 0 24 24" fill="none" xmlns="http://www.w3.org/2000/svg">
<path d="M2.00977 11.0587C2.56197 11.0588 3.00977 11.5065 3.00977 12.0587C3.00977 12.6109 2.56197 13.0586 2.00977 13.0587H2C1.44772 13.0587 1 12.611 1 12.0587C1 11.5064 1.44772 11.0587 2 11.0587H2.00977Z" fill="black"/>
<path d="M2.00977 18.1177C2.56197 18.1178 3.00977 18.5655 3.00977 19.1177C3.00977 19.6699 2.56197 20.1176 2.00977 20.1177H2C1.44772 20.1177 1 19.67 1 19.1177C1 18.5654 1.44772 18.1177 2 18.1177H2.00977Z" fill="black"/>
<path d="M2.00977 4C2.56197 4.0001 3.00977 4.44778 3.00977 5C3.00977 5.55222 2.56197 5.9999 2.00977 6H2C1.44772 6 1 5.55228 1 5C1 4.44772 1.44772 4 2 4H2.00977Z" fill="black"/>
<path d="M21.9999 11.0587C22.5522 11.0587 22.9999 11.5064 22.9999 12.0587C22.9999 12.611 22.5522 13.0587 21.9999 13.0587H6.70599C6.15371 13.0587 5.70599 12.611 5.70599 12.0587C5.70599 11.5064 6.15371 11.0587 6.70599 11.0587H21.9999Z" fill="black"/>
<path d="M21.9999 18.1177C22.5522 18.1177 22.9999 18.5654 22.9999 19.1177C22.9999 19.67 22.5522 20.1177 21.9999 20.1177H6.70599C6.15371 20.1177 5.70599 19.67 5.70599 19.1177C5.70599 18.5654 6.15371 18.1177 6.70599 18.1177H21.9999Z" fill="black"/>
<path d="M21.9999 4C22.5522 4 22.9999 4.44772 22.9999 5C22.9999 5.55228 22.5522 6 21.9999 6H6.70599C6.15371 6 5.70599 5.55228 5.70599 5C5.70599 4.44772 6.15371 4 6.70599 4H21.9999Z" fill="black"/>
</svg>
