<svg width="24" height="24" viewBox="0 0 24 24" fill="none" xmlns="http://www.w3.org/2000/svg">
<path fill-rule="evenodd" clip-rule="evenodd" d="M9 13.9061C9 14.3786 9.52272 14.664 9.92017 14.4085L15.2185 11.0024C15.5842 10.7673 15.5842 10.2327 15.2185 9.99763L9.92018 6.59154C9.52272 6.33603 9 6.62141 9 7.09391V13.9061Z" fill="black"/>
<path d="M9.17602 20.1698L9.0391 20.9345H6.65791L6.79484 20.1698H9.17602ZM7.82346 16.1765L6.97852 20.9345H6L6.8416 16.1765H7.82346Z" fill="black"/>
<path d="M11.1531 17.3987L10.5286 20.9345H9.5868L10.2147 17.3987H11.1531ZM10.3182 16.4935C10.3137 16.3454 10.3627 16.2267 10.4651 16.1373C10.5698 16.048 10.6956 16.0023 10.8425 16.0001C10.9828 15.9979 11.1052 16.0393 11.2099 16.1243C11.3145 16.207 11.3668 16.3192 11.3668 16.4608C11.3713 16.609 11.3212 16.7277 11.2166 16.817C11.1119 16.9064 10.9872 16.9521 10.8425 16.9543C10.7023 16.9565 10.5798 16.9162 10.4752 16.8334C10.3727 16.7506 10.3204 16.6373 10.3182 16.4935Z" fill="black"/>
<path d="M12.6326 20.209L13.8516 17.3987H14.8601L13.1102 20.9345H12.499L12.6326 20.209ZM12.5424 17.3987L12.873 20.2973L12.7862 20.9345H12.2051L11.5839 17.3987H12.5424Z" fill="black"/>
<path d="M16.3029 20.9999C16.0557 20.9955 15.8331 20.9497 15.6349 20.8626C15.4368 20.7733 15.2709 20.6513 15.1373 20.4966C15.006 20.3419 14.9091 20.1622 14.8468 19.9574C14.7844 19.7526 14.7622 19.5326 14.78 19.2973L14.7933 19.1633C14.8201 18.9172 14.8813 18.683 14.977 18.4608C15.0728 18.2385 15.2008 18.0425 15.3611 17.8725C15.5214 17.7004 15.7106 17.5665 15.9288 17.4706C16.1492 17.3726 16.3942 17.3268 16.6636 17.3334C16.9151 17.3377 17.13 17.3878 17.3081 17.4837C17.4862 17.5795 17.6298 17.7081 17.7389 17.8693C17.848 18.0305 17.9226 18.2146 17.9627 18.4215C18.0028 18.6263 18.0106 18.8409 17.9861 19.0653L17.9326 19.4574H15.1407L15.2442 18.83L17.0877 18.8333L17.1044 18.7516C17.1222 18.6318 17.1166 18.5207 17.0877 18.4183C17.0588 18.3137 17.0042 18.2298 16.9241 18.1666C16.8439 18.1035 16.737 18.0697 16.6034 18.0653C16.4498 18.061 16.3207 18.0926 16.216 18.1601C16.1114 18.2276 16.0257 18.317 15.9589 18.4281C15.8921 18.5392 15.8409 18.6601 15.8053 18.7908C15.7696 18.9193 15.744 19.0435 15.7285 19.1633L15.7151 19.294C15.704 19.4095 15.7073 19.525 15.7251 19.6404C15.7429 19.7537 15.7774 19.8561 15.8286 19.9476C15.8821 20.0391 15.9544 20.1132 16.0457 20.1698C16.1392 20.2265 16.2561 20.257 16.3964 20.2613C16.5745 20.2657 16.7381 20.2319 16.8873 20.16C17.0387 20.086 17.1745 19.9879 17.2948 19.8659L17.7156 20.3626C17.6154 20.5108 17.4873 20.6328 17.3315 20.7286C17.1779 20.8223 17.012 20.8909 16.8339 20.9345C16.6558 20.9802 16.4788 21.002 16.3029 20.9999Z" fill="black"/>
<path d="M11.8496 2.59863C13.5996 2.57264 15.3207 3.00078 16.8203 3.83203C18.3197 4.66317 19.5361 5.86281 20.3389 7.29297C21.1413 8.72263 21.5006 10.3286 21.3799 11.9326C21.2727 13.3558 20.7898 14.7324 19.9766 15.9424L19.7061 15.7617C20.4653 14.6041 20.9205 13.288 21.0234 11.9219C21.1421 10.3466 20.7883 8.77296 20.0059 7.37891C19.2237 5.98551 18.045 4.82766 16.6064 4.03027C15.1681 3.23306 13.5238 2.8258 11.8564 2.85059C10.1889 2.87541 8.5584 3.33181 7.14746 4.17188C5.73652 5.01202 4.59763 6.20457 3.86328 7.62109C3.12862 9.03835 2.82946 10.6216 3.00195 12.1924C3.15156 13.5547 3.65109 14.8562 4.44922 15.9902L4.18652 16.1787C3.33105 14.9925 2.80148 13.6293 2.64551 12.209C2.46993 10.6094 2.77379 8.99407 3.52637 7.54199C4.27947 6.08916 5.45414 4.85356 6.92383 3.97852C8.39377 3.10332 10.0995 2.62469 11.8496 2.59863Z" stroke="black" stroke-width="1.19444"/>
</svg>
