<svg width="24" height="24" viewBox="0 0 24 24" fill="none" xmlns="http://www.w3.org/2000/svg">
<path fill-rule="evenodd" clip-rule="evenodd" d="M9 13.9061C9 14.3786 9.52272 14.664 9.92017 14.4085L15.2185 11.0024C15.5842 10.7673 15.5842 10.2327 15.2185 9.99764L9.92018 6.59156C9.52272 6.33605 9 6.62142 9 7.09393V13.9061Z" fill="black"/>
<path d="M9.17602 20.1698L9.0391 20.9345H6.65791L6.79484 20.1698H9.17602ZM7.82346 16.1765L6.97852 20.9345H6L6.8416 16.1765H7.82346Z" fill="black"/>
<path d="M11.1531 17.3987L10.5286 20.9345H9.5868L10.2147 17.3987H11.1531ZM10.3182 16.4935C10.3137 16.3454 10.3627 16.2267 10.4651 16.1373C10.5698 16.048 10.6956 16.0023 10.8425 16.0001C10.9828 15.9979 11.1052 16.0393 11.2099 16.1243C11.3145 16.207 11.3668 16.3192 11.3668 16.4608C11.3713 16.609 11.3212 16.7277 11.2166 16.817C11.1119 16.9064 10.9872 16.9521 10.8425 16.9543C10.7023 16.9565 10.5798 16.9162 10.4752 16.8334C10.3727 16.7506 10.3204 16.6373 10.3182 16.4935Z" fill="black"/>
<path d="M12.6326 20.209L13.8516 17.3987H14.8601L13.1102 20.9345H12.499L12.6326 20.209ZM12.5424 17.3987L12.873 20.2973L12.7862 20.9345H12.2051L11.5839 17.3987H12.5424Z" fill="black"/>
<path d="M16.3029 20.9999C16.0557 20.9955 15.8331 20.9497 15.6349 20.8626C15.4368 20.7733 15.2709 20.6513 15.1373 20.4966C15.006 20.3419 14.9091 20.1622 14.8468 19.9574C14.7844 19.7526 14.7622 19.5326 14.78 19.2973L14.7933 19.1633C14.8201 18.9172 14.8813 18.683 14.977 18.4608C15.0728 18.2385 15.2008 18.0425 15.3611 17.8725C15.5214 17.7004 15.7106 17.5665 15.9288 17.4706C16.1492 17.3726 16.3942 17.3268 16.6636 17.3334C16.9151 17.3377 17.13 17.3878 17.3081 17.4837C17.4862 17.5795 17.6298 17.7081 17.7389 17.8693C17.848 18.0305 17.9226 18.2146 17.9627 18.4215C18.0028 18.6263 18.0106 18.8409 17.9861 19.0653L17.9326 19.4574H15.1407L15.2442 18.83L17.0877 18.8333L17.1044 18.7516C17.1222 18.6318 17.1166 18.5207 17.0877 18.4183C17.0588 18.3137 17.0042 18.2298 16.9241 18.1666C16.8439 18.1035 16.737 18.0697 16.6034 18.0653C16.4498 18.061 16.3207 18.0926 16.216 18.1601C16.1114 18.2276 16.0257 18.317 15.9589 18.4281C15.8921 18.5392 15.8409 18.6601 15.8053 18.7908C15.7696 18.9193 15.744 19.0435 15.7284 19.1633L15.7151 19.294C15.704 19.4095 15.7073 19.525 15.7251 19.6404C15.7429 19.7537 15.7774 19.8561 15.8286 19.9476C15.8821 20.0391 15.9544 20.1132 16.0457 20.1698C16.1392 20.2265 16.2561 20.257 16.3964 20.2613C16.5745 20.2657 16.7381 20.2319 16.8873 20.16C17.0387 20.0859 17.1745 19.9879 17.2948 19.8659L17.7156 20.3626C17.6154 20.5108 17.4873 20.6328 17.3315 20.7286C17.1779 20.8223 17.012 20.8909 16.8339 20.9345C16.6558 20.9802 16.4788 21.002 16.3029 20.9999Z" fill="black"/>
<path d="M12.1875 2.00195C13.9201 2.03224 15.6164 2.48205 17.1094 3.30957C18.702 4.19236 20.0012 5.47031 20.8604 7.00098C21.7193 8.53143 22.1053 10.2544 21.9756 11.9775L21.9453 12.2998C21.7641 13.907 21.1376 15.4447 20.125 16.7607L18.8643 15.918C19.7199 14.8061 20.2493 13.5064 20.4024 12.1484L20.4277 11.877C20.5306 10.5119 20.2498 9.14687 19.6162 7.91602L19.4854 7.67188C18.8049 6.45948 17.7983 5.4342 16.5664 4.69629L16.3174 4.55273C15.0559 3.85351 13.6221 3.4738 12.1582 3.44824L11.8652 3.44727C10.3001 3.47057 8.77244 3.89907 7.45314 4.68457C6.13385 5.47007 5.07476 6.58236 4.39356 7.89648L4.27052 8.14453C3.67952 9.3935 3.44628 10.7658 3.59571 12.127C3.75517 13.579 4.3442 14.961 5.29689 16.1191L4.06544 17C2.9378 15.6292 2.2405 13.9931 2.05177 12.2744C1.87488 10.6633 2.15112 9.03884 2.8506 7.56055L2.99708 7.2666C3.75296 5.80853 4.90187 4.56084 6.32911 3.64453L6.61817 3.46582C8.17976 2.53607 9.98831 2.02856 11.8408 2.00098L12.1875 2.00195Z" fill="black"/>
</svg>
