<svg width="24" height="24" viewBox="0 0 24 24" fill="none" xmlns="http://www.w3.org/2000/svg">
<path d="M5.5 22C5.0875 22 4.73438 21.8601 4.44063 21.5804C4.14688 21.3006 4 20.9643 4 20.5714V10.2381C4 9.84524 4.14688 9.50893 4.44063 9.22917C4.73438 8.9494 5.0875 8.80952 5.5 8.80952H7.25V6.52381C7.25 5.27222 7.71338 4.20536 8.64015 3.32321C9.56692 2.44107 10.6877 2 12.0027 2C13.3175 2 14.4375 2.44107 15.3625 3.32321C16.2875 4.20536 16.75 5.27222 16.75 6.52381V8.80952H18.5C18.9125 8.80952 19.2656 8.9494 19.5594 9.22917C19.8531 9.50893 20 9.84524 20 10.2381V20.5714C20 20.9643 19.8531 21.3006 19.5594 21.5804C19.2656 21.8601 18.9125 22 18.5 22H5.5ZM5.5 20.5714H18.5V10.2381H5.5V20.5714ZM12.0042 17.2381C12.5347 17.2381 12.9875 17.0632 13.3625 16.7135C13.7375 16.3638 13.925 15.9435 13.925 15.4524C13.925 14.9762 13.7361 14.5437 13.3583 14.1548C12.9805 13.7659 12.5263 13.5714 11.9958 13.5714C11.4653 13.5714 11.0125 13.7659 10.6375 14.1548C10.2625 14.5437 10.075 14.9802 10.075 15.4643C10.075 15.9484 10.2639 16.3651 10.6417 16.7143C11.0195 17.0635 11.4737 17.2381 12.0042 17.2381ZM8.75 8.80952H15.25V6.52381C15.25 5.66402 14.9343 4.9332 14.3029 4.33136C13.6716 3.7295 12.9049 3.42857 12.003 3.42857C11.101 3.42857 10.3333 3.7295 9.7 4.33136C9.06667 4.9332 8.75 5.66402 8.75 6.52381V8.80952Z" fill="black"/>
</svg>
