<svg width="24" height="24" viewBox="0 0 24 24" fill="none" xmlns="http://www.w3.org/2000/svg">
<path d="M20.9996 7.71387V3H16.2858C15.7335 3 15.2858 2.55228 15.2858 2C15.2858 1.44772 15.7335 1 16.2858 1H20.9996C22.1042 1 22.9996 1.89543 22.9996 3V7.71387C22.9996 8.26615 22.5519 8.71387 21.9996 8.71387C21.4475 8.71365 20.9996 8.26602 20.9996 7.71387Z" fill="black"/>
<path d="M20.9996 16.2861V21H16.2858C15.7335 21 15.2858 21.4477 15.2858 22C15.2858 22.5523 15.7335 23 16.2858 23H20.9996C22.1042 23 22.9996 22.1046 22.9996 21V16.2861C22.9996 15.7338 22.5519 15.2861 21.9996 15.2861C21.4475 15.2863 20.9996 15.734 20.9996 16.2861Z" fill="black"/>
<path d="M3.00037 7.71387V3H7.71423C8.26652 3 8.71423 2.55228 8.71423 2C8.71423 1.44772 8.26652 1 7.71423 1H3.00037C1.8958 1 1.00037 1.89543 1.00037 3V7.71387C1.00037 8.26615 1.44808 8.71387 2.00037 8.71387C2.55247 8.71365 3.00037 8.26602 3.00037 7.71387Z" fill="black"/>
<path d="M3.00037 16.2861V21H7.71423C8.26652 21 8.71423 21.4477 8.71423 22C8.71423 22.5523 8.26652 23 7.71423 23H3.00037C1.8958 23 1.00037 22.1046 1.00037 21V16.2861C1.00037 15.7338 1.44808 15.2861 2.00037 15.2861C2.55247 15.2863 3.00037 15.734 3.00037 16.2861Z" fill="black"/>
</svg>
