<svg width="24" height="24" viewBox="0 0 24 24" fill="none" xmlns="http://www.w3.org/2000/svg">
<path d="M4.85625 21C4.33125 21 3.89062 20.8219 3.53437 20.4656C3.17812 20.1094 3 19.6688 3 19.1438C3 18.6188 3.17812 18.1781 3.53437 17.8219C3.89062 17.4656 4.33125 17.2875 4.85625 17.2875C5.38125 17.2875 5.82187 17.4656 6.17812 17.8219C6.53437 18.1781 6.7125 18.6188 6.7125 19.1438C6.7125 19.6688 6.53437 20.1094 6.17812 20.4656C5.82187 20.8219 5.38125 21 4.85625 21ZM12 21C11.475 21 11.0344 20.8219 10.6781 20.4656C10.3219 20.1094 10.1438 19.6688 10.1438 19.1438C10.1438 18.6188 10.3219 18.1781 10.6781 17.8219C11.0344 17.4656 11.475 17.2875 12 17.2875C12.525 17.2875 12.9656 17.4656 13.3219 17.8219C13.6781 18.1781 13.8562 18.6188 13.8562 19.1438C13.8562 19.6688 13.6781 20.1094 13.3219 20.4656C12.9656 20.8219 12.525 21 12 21ZM19.1438 21C18.6188 21 18.1781 20.8219 17.8219 20.4656C17.4656 20.1094 17.2875 19.6688 17.2875 19.1438C17.2875 18.6188 17.4656 18.1781 17.8219 17.8219C18.1781 17.4656 18.6188 17.2875 19.1438 17.2875C19.6688 17.2875 20.1094 17.4656 20.4656 17.8219C20.8219 18.1781 21 18.6188 21 19.1438C21 19.6688 20.8219 20.1094 20.4656 20.4656C20.1094 20.8219 19.6688 21 19.1438 21ZM4.85625 13.8562C4.33125 13.8562 3.89062 13.6781 3.53437 13.3219C3.17812 12.9656 3 12.525 3 12C3 11.475 3.17812 11.0344 3.53437 10.6781C3.89062 10.3219 4.33125 10.1438 4.85625 10.1438C5.38125 10.1438 5.82187 10.3219 6.17812 10.6781C6.53437 11.0344 6.7125 11.475 6.7125 12C6.7125 12.525 6.53437 12.9656 6.17812 13.3219C5.82187 13.6781 5.38125 13.8562 4.85625 13.8562ZM12 13.8562C11.475 13.8562 11.0344 13.6781 10.6781 13.3219C10.3219 12.9656 10.1438 12.525 10.1438 12C10.1438 11.475 10.3219 11.0344 10.6781 10.6781C11.0344 10.3219 11.475 10.1438 12 10.1438C12.525 10.1438 12.9656 10.3219 13.3219 10.6781C13.6781 11.0344 13.8562 11.475 13.8562 12C13.8562 12.525 13.6781 12.9656 13.3219 13.3219C12.9656 13.6781 12.525 13.8562 12 13.8562ZM19.1438 13.8562C18.6188 13.8562 18.1781 13.6781 17.8219 13.3219C17.4656 12.9656 17.2875 12.525 17.2875 12C17.2875 11.475 17.4656 11.0344 17.8219 10.6781C18.1781 10.3219 18.6188 10.1438 19.1438 10.1438C19.6688 10.1438 20.1094 10.3219 20.4656 10.6781C20.8219 11.0344 21 11.475 21 12C21 12.525 20.8219 12.9656 20.4656 13.3219C20.1094 13.6781 19.6688 13.8562 19.1438 13.8562ZM4.85625 6.7125C4.33125 6.7125 3.89062 6.53437 3.53437 6.17812C3.17812 5.82187 3 5.38125 3 4.85625C3 4.33125 3.17812 3.89062 3.53437 3.53437C3.89062 3.17812 4.33125 3 4.85625 3C5.38125 3 5.82187 3.17812 6.17812 3.53437C6.53437 3.89062 6.7125 4.33125 6.7125 4.85625C6.7125 5.38125 6.53437 5.82187 6.17812 6.17812C5.82187 6.53437 5.38125 6.7125 4.85625 6.7125ZM12 6.7125C11.475 6.7125 11.0344 6.53437 10.6781 6.17812C10.3219 5.82187 10.1438 5.38125 10.1438 4.85625C10.1438 4.33125 10.3219 3.89062 10.6781 3.53437C11.0344 3.17812 11.475 3 12 3C12.525 3 12.9656 3.17812 13.3219 3.53437C13.6781 3.89062 13.8562 4.33125 13.8562 4.85625C13.8562 5.38125 13.6781 5.82187 13.3219 6.17812C12.9656 6.53437 12.525 6.7125 12 6.7125ZM19.1438 6.7125C18.6188 6.7125 18.1781 6.53437 17.8219 6.17812C17.4656 5.82187 17.2875 5.38125 17.2875 4.85625C17.2875 4.33125 17.4656 3.89062 17.8219 3.53437C18.1781 3.17812 18.6188 3 19.1438 3C19.6688 3 20.1094 3.17812 20.4656 3.53437C20.8219 3.89062 21 4.33125 21 4.85625C21 5.38125 20.8219 5.82187 20.4656 6.17812C20.1094 6.53437 19.6688 6.7125 19.1438 6.7125Z" fill="black"/>
</svg>
