<svg width="24" height="24" viewBox="0 0 24 24" fill="none" xmlns="http://www.w3.org/2000/svg">
<path d="M15.2858 6.71387V2C15.2858 1.44772 15.7335 1 16.2858 1C16.8381 1 17.2858 1.44772 17.2858 2V6.71387H21.9996C22.5518 6.71387 22.9994 7.16177 22.9996 7.71387C22.9996 8.26615 22.5519 8.71387 21.9996 8.71387H17.2858C16.1812 8.71387 15.2858 7.81844 15.2858 6.71387Z" fill="black"/>
<path d="M15.2858 17.2861V22C15.2858 22.5523 15.7335 23 16.2858 23C16.8381 23 17.2858 22.5523 17.2858 22V17.2861H21.9996C22.5518 17.2861 22.9994 16.8382 22.9996 16.2861C22.9996 15.7338 22.5519 15.2861 21.9996 15.2861H17.2858C16.1812 15.2861 15.2858 16.1816 15.2858 17.2861Z" fill="black"/>
<path d="M8.71423 6.71387V2C8.71423 1.44772 8.26652 1 7.71423 1C7.16195 1 6.71423 1.44772 6.71423 2V6.71387H2.00037C1.44822 6.71387 1.00059 7.16177 1.00037 7.71387C1.00037 8.26615 1.44808 8.71387 2.00037 8.71387H6.71423C7.8188 8.71387 8.71423 7.81844 8.71423 6.71387Z" fill="black"/>
<path d="M8.71423 17.2861V22C8.71423 22.5523 8.26652 23 7.71423 23C7.16195 23 6.71423 22.5523 6.71423 22V17.2861H2.00037C1.44822 17.2861 1.00059 16.8382 1.00037 16.2861C1.00037 15.7338 1.44808 15.2861 2.00037 15.2861H6.71423C7.8188 15.2861 8.71423 16.1816 8.71423 17.2861Z" fill="black"/>
</svg>
