<svg width="24" height="24" viewBox="0 0 24 24" fill="none" xmlns="http://www.w3.org/2000/svg">
<path d="M11 11.7382L14.0029 9.99988L11 8.26257V11.7382ZM16.3555 9.99988C16.3555 10.2887 16.28 10.5729 16.1357 10.8231C15.9915 11.0732 15.784 11.281 15.5342 11.4257L11.4688 13.7772C11.2185 13.922 10.9346 13.9988 10.6455 13.9989C10.3563 13.9989 10.0717 13.9221 9.82129 13.7772C9.57097 13.6324 9.36292 13.4244 9.21876 13.1737C9.07462 12.923 8.99927 12.6387 9.00001 12.3495V7.64832C8.99975 7.35992 9.07493 7.07604 9.21876 6.82605L9.33887 6.64734C9.46965 6.47643 9.63291 6.3321 9.82032 6.22351L10.0137 6.12781C10.2126 6.04515 10.4268 6.00207 10.6436 6.00183L10.8584 6.0155C11.0718 6.04341 11.2781 6.11347 11.4658 6.22156L11.4678 6.22253L15.5342 8.5741C15.7216 8.68258 15.8847 8.82718 16.0156 8.99792L16.1357 9.17761L16.2315 9.37097C16.3136 9.56973 16.3555 9.78343 16.3555 9.99988Z" fill="black"/>
<path d="M11 21V17C11 16.4477 11.4477 16 12 16C12.5523 16 13 16.4477 13 17V21C13 21.5523 12.5523 22 12 22C11.4477 22 11 21.5523 11 21Z" fill="black"/>
<path d="M16 20C16.5523 20 17 20.4477 17 21C17 21.5523 16.5523 22 16 22H8C7.44772 22 7 21.5523 7 21C7 20.4477 7.44772 20 8 20H16Z" fill="black"/>
<path d="M21 5C21 4.44772 20.5523 4 20 4H4C3.44772 4 3 4.44772 3 5V15C3 15.5523 3.44772 16 4 16H20C20.5523 16 21 15.5523 21 15V5ZM23 15C23 16.6569 21.6569 18 20 18H4C2.34315 18 1 16.6569 1 15V5C1 3.34315 2.34315 2 4 2H20C21.6569 2 23 3.34315 23 5V15Z" fill="black"/>
</svg>
