<svg width="24" height="24" viewBox="0 0 24 24" fill="none" xmlns="http://www.w3.org/2000/svg">
<circle cx="12" cy="12" r="10" stroke="black" stroke-width="1.5"/>
<path d="M6.80469 10.1758L5.18359 15H4.04688L6.17188 9.3125H6.89844L6.80469 10.1758ZM8.16016 15L6.53125 10.1758L6.43359 9.3125H7.16406L9.30078 15H8.16016ZM8.08594 12.8867V13.7344H5.03516V12.8867H8.08594Z" fill="black"/>
<path d="M11.5859 15H10.3594L10.3672 14.1562H11.5859C11.9167 14.1562 12.194 14.0833 12.418 13.9375C12.6419 13.7891 12.8112 13.5768 12.9258 13.3008C13.0404 13.0221 13.0977 12.6888 13.0977 12.3008V12.0078C13.0977 11.7083 13.0651 11.444 13 11.2148C12.9349 10.9857 12.8385 10.793 12.7109 10.6367C12.5859 10.4805 12.431 10.362 12.2461 10.2812C12.0612 10.2005 11.849 10.1602 11.6094 10.1602H10.3359V9.3125H11.6094C11.9896 9.3125 12.3359 9.3763 12.6484 9.50391C12.9635 9.63151 13.2357 9.8151 13.4648 10.0547C13.6966 10.2917 13.8737 10.5755 13.9961 10.9062C14.1211 11.237 14.1836 11.6068 14.1836 12.0156V12.3008C14.1836 12.707 14.1211 13.0768 13.9961 13.4102C13.8737 13.7409 13.6966 14.0247 13.4648 14.2617C13.2357 14.4987 12.9622 14.681 12.6445 14.8086C12.3268 14.9362 11.974 15 11.5859 15ZM10.9609 9.3125V15H9.88672V9.3125H10.9609Z" fill="black"/>
<path d="M18.0742 13.5234C18.0742 13.4141 18.0573 13.3164 18.0234 13.2305C17.9922 13.1419 17.9336 13.0625 17.8477 12.9922C17.7643 12.9193 17.6458 12.849 17.4922 12.7812C17.3411 12.7109 17.1458 12.638 16.9062 12.5625C16.6406 12.4792 16.3932 12.3854 16.1641 12.2812C15.9349 12.1771 15.7331 12.056 15.5586 11.918C15.3867 11.7799 15.2526 11.6211 15.1562 11.4414C15.0599 11.2591 15.0117 11.0482 15.0117 10.8086C15.0117 10.5742 15.0612 10.3607 15.1602 10.168C15.2617 9.97526 15.4049 9.8099 15.5898 9.67188C15.7747 9.53125 15.9922 9.42318 16.2422 9.34766C16.4948 9.27214 16.7734 9.23438 17.0781 9.23438C17.5 9.23438 17.8646 9.3112 18.1719 9.46484C18.4818 9.61849 18.7214 9.82682 18.8906 10.0898C19.0599 10.3529 19.1445 10.6484 19.1445 10.9766H18.0742C18.0742 10.7995 18.0365 10.6432 17.9609 10.5078C17.888 10.3724 17.776 10.2656 17.625 10.1875C17.4766 10.1094 17.2891 10.0703 17.0625 10.0703C16.8438 10.0703 16.6615 10.1029 16.5156 10.168C16.3724 10.2331 16.2643 10.3216 16.1914 10.4336C16.1211 10.5456 16.0859 10.6706 16.0859 10.8086C16.0859 10.9128 16.1107 11.0065 16.1602 11.0898C16.2096 11.1706 16.2839 11.2474 16.3828 11.3203C16.4818 11.3906 16.6042 11.457 16.75 11.5195C16.8984 11.5794 17.0703 11.6393 17.2656 11.6992C17.5781 11.793 17.8516 11.8971 18.0859 12.0117C18.3229 12.1263 18.5195 12.2565 18.6758 12.4023C18.8346 12.5482 18.9531 12.7122 19.0312 12.8945C19.112 13.0768 19.1523 13.2839 19.1523 13.5156C19.1523 13.7604 19.1042 13.9792 19.0078 14.1719C18.9115 14.3646 18.7734 14.5286 18.5938 14.6641C18.4141 14.7995 18.1979 14.9023 17.9453 14.9727C17.6953 15.043 17.4154 15.0781 17.1055 15.0781C16.8294 15.0781 16.556 15.0417 16.2852 14.9688C16.0169 14.8932 15.7734 14.7812 15.5547 14.6328C15.3359 14.4818 15.1615 14.2917 15.0312 14.0625C14.901 13.8307 14.8359 13.5599 14.8359 13.25H15.9141C15.9141 13.4297 15.9427 13.5833 16 13.7109C16.0599 13.8359 16.1432 13.9388 16.25 14.0195C16.3594 14.0977 16.487 14.1549 16.6328 14.1914C16.7786 14.2279 16.9362 14.2461 17.1055 14.2461C17.3242 14.2461 17.5039 14.2161 17.6445 14.1562C17.7878 14.0938 17.8945 14.0078 17.9648 13.8984C18.0378 13.7891 18.0742 13.6641 18.0742 13.5234Z" fill="black"/>
<line x1="19.5303" y1="4.53033" x2="4.53033" y2="19.5303" stroke="black" stroke-width="1.5"/>
</svg>
