<svg width="24" height="24" viewBox="0 0 24 24" fill="none" xmlns="http://www.w3.org/2000/svg">
<path d="M9.48528 3.34315L14.435 8.29289H16.8392C16.9806 8.29289 17.1132 8.31941 17.2369 8.37244C17.3607 8.42548 17.4697 8.49913 17.564 8.59341L17.9706 9C18.1709 9.20035 18.2711 9.43605 18.2711 9.70711C18.2711 9.97817 18.1709 10.2139 17.9706 10.4142L15.1421 13.2426L19.2787 17.3792C19.4791 17.5796 19.5792 17.8153 19.5792 18.0863C19.5792 18.3574 19.4791 18.5931 19.2787 18.7934C19.0784 18.9938 18.8427 19.094 18.5716 19.094C18.3005 19.094 18.0648 18.9938 17.8645 18.7934L13.7279 14.6569L10.8995 17.4853C10.6991 17.6856 10.4634 17.7858 10.1924 17.7858C9.92133 17.7858 9.68563 17.6856 9.48528 17.4853L9.0787 17.0787C8.98441 16.9844 8.91076 16.8754 8.85772 16.7517C8.80469 16.6279 8.77818 16.4953 8.77818 16.3539L8.77818 13.9497L3.82843 9C3.62808 9.20035 3.39238 9.30052 3.12132 9.30052C2.85026 9.30052 2.61456 9.20035 2.41421 9C2.21387 8.79965 2.11369 8.56395 2.11369 8.29289C2.11369 8.02184 2.21387 7.78613 2.41421 7.58579L8.07107 1.92893C8.27141 1.72859 8.50712 1.62841 8.77817 1.62841C9.04923 1.62841 9.28493 1.72859 9.48528 1.92893C9.68563 2.12928 9.7858 2.36498 9.7858 2.63604C9.7858 2.9071 9.68563 3.1428 9.48528 3.34315Z" fill="black"/>
</svg>
