<svg width="24" height="24" viewBox="0 0 24 24" fill="none" xmlns="http://www.w3.org/2000/svg">
<path d="M12.1358 1.29785C12.5232 0.904567 13.1563 0.900031 13.5498 1.28711C13.9433 1.67464 13.9491 2.30866 13.5615 2.70215L4.40334 12L13.5615 21.2979C13.9491 21.6913 13.9433 22.3254 13.5498 22.7129C13.1563 23.1 12.5232 23.0954 12.1358 22.7022L2.97854 13.4033C2.21191 12.6248 2.21191 11.3752 2.97854 10.5967L12.1358 1.29785Z" fill="black"/>
<path d="M18.9922 4.33866C19.3999 3.9662 20.0327 3.99448 20.4053 4.40213C20.7777 4.80983 20.7485 5.44268 20.3408 5.81522L13.5732 11.9998L20.3408 18.1853C20.7484 18.5578 20.7775 19.1897 20.4053 19.5974C20.0327 20.0051 19.3999 20.0335 18.9922 19.6609L12.2236 13.4764C11.3561 12.6833 11.356 11.3162 12.2236 10.5232L18.9922 4.33866Z" fill="black"/>
</svg>
