<svg width="24" height="24" viewBox="0 0 24 24" fill="none" xmlns="http://www.w3.org/2000/svg">
<path d="M11.8642 22.7021C11.4768 23.0954 10.8436 23.1 10.4502 22.7129C10.0567 22.3254 10.0519 21.6913 10.4394 21.2978L19.5967 12L10.4394 2.70215C10.0519 2.30865 10.0567 1.67464 10.4502 1.28711C10.8436 0.899972 11.4768 0.904611 11.8642 1.29785L21.0215 10.5967C21.7881 11.3752 21.7881 12.6248 21.0215 13.4033L11.8642 22.7021Z" fill="black"/>
<path d="M5.00769 19.6613C4.6001 20.0336 3.96813 20.0052 3.59558 19.5979C3.22301 19.1902 3.25136 18.5573 3.65905 18.1848L10.4266 12.0002L3.65905 5.81466C3.25141 5.44209 3.22302 4.81023 3.59558 4.40255C3.96815 3.99494 4.60002 3.96653 5.00768 4.33908L11.7762 10.5236C12.6438 11.3167 12.6439 12.6838 11.7762 13.4768L5.00769 19.6613Z" fill="black"/>
</svg>
