<svg width="24" height="24" viewBox="0 0 24 24" fill="none" xmlns="http://www.w3.org/2000/svg">
<path d="M4.07141 20.0773C4.07163 20.6294 4.51926 21.0773 5.07141 21.0773C5.62356 21.0773 6.07119 20.6294 6.07141 20.0773L6.07141 3.92303C6.07141 3.37075 5.6237 2.92303 5.07141 2.92303C4.51913 2.92303 4.07141 3.37075 4.07141 3.92303L4.07141 20.0773Z" fill="black"/>
<path d="M8.3835 10.9064C7.58333 11.4161 7.58321 12.5844 8.3835 13.0939L18.9353 19.8088C19.7446 20.3238 20.7886 19.8109 20.9157 18.9016L20.9284 18.715L20.9284 5.28534L20.9157 5.09784C20.7882 4.18888 19.7444 3.67666 18.9353 4.19159L8.3835 10.9064ZM18.9284 6.56562L18.9284 17.4338L10.3894 11.9992L18.9284 6.56562Z" fill="black"/>
</svg>
