<svg width="24" height="24" viewBox="0 0 24 24" fill="none" xmlns="http://www.w3.org/2000/svg">
<path d="M19.9286 3.92261C19.9284 3.37051 19.4807 2.92261 18.9286 2.92261C18.3764 2.92261 17.9288 3.37051 17.9286 3.92261L17.9286 20.0769C17.9286 20.6292 18.3763 21.0769 18.9286 21.0769C19.4809 21.0769 19.9286 20.6292 19.9286 20.0769L19.9286 3.92261Z" fill="black"/>
<path d="M15.6164 13.0935C16.4166 12.5839 16.4167 11.4155 15.6164 10.906L5.06468 4.19116C4.25534 3.67612 3.21138 4.18907 3.08421 5.09839L3.07152 5.28491L3.07152 18.7146L3.08421 18.9021C3.21173 19.8111 4.25551 20.3233 5.06468 19.8083L15.6164 13.0935ZM5.07152 17.4343L5.07152 6.56616L13.6106 12.0007L5.07152 17.4343Z" fill="black"/>
</svg>
