<svg width="24" height="24" viewBox="0 0 24 24" fill="none" xmlns="http://www.w3.org/2000/svg">
<path fill-rule="evenodd" clip-rule="evenodd" d="M12.0001 9.05302C11.4221 9.05302 10.9545 8.67802 10.9545 8.21462V2.83846C10.9547 2.37506 11.4221 2.00006 12.0001 2.00006C12.5782 2.00006 13.046 2.37506 13.046 2.83846V8.21442C13.046 8.67802 12.5782 9.05302 12.0001 9.05302Z" fill="black"/>
<path fill-rule="evenodd" clip-rule="evenodd" d="M12 21.9999C17.2643 21.9999 21.5476 17.9072 21.5476 12.878C21.5476 9.46942 19.5754 6.49923 16.6684 4.93504C16.2192 4.74464 16.1219 5.10284 16.1219 5.10284V6.71023C16.1219 6.71023 16.1136 6.91223 16.2601 7.03743C18.1908 8.32582 19.4561 10.4624 19.4561 12.878C19.4561 16.8062 16.1117 20.0012 12 20.0012C7.88851 20.0012 4.54415 16.806 4.54415 12.878C4.54415 10.4624 5.80941 8.32582 7.74031 7.03743C7.88685 6.91223 7.87834 6.71023 7.87834 6.71023V5.10284C7.87834 5.10284 7.78099 4.74464 7.33205 4.93504C4.4248 6.49923 2.45239 9.46942 2.45239 12.878C2.45239 17.9072 6.73595 21.9999 12 21.9999Z" fill="black"/>
</svg>
