<svg width="24" height="24" viewBox="0 0 24 24" fill="none" xmlns="http://www.w3.org/2000/svg">
<path fill-rule="evenodd" clip-rule="evenodd" d="M12 9.05296C11.422 9.05296 10.9543 8.67796 10.9543 8.21456V2.8384C10.9546 2.375 11.422 2 12 2C12.5781 2 13.0459 2.375 13.0459 2.8384V8.21436C13.0459 8.67796 12.5781 9.05296 12 9.05296Z" fill="black"/>
<path fill-rule="evenodd" clip-rule="evenodd" d="M12 21.9998C17.2643 21.9998 21.5476 17.907 21.5476 12.8779C21.5476 9.46929 19.5754 6.49911 16.6684 4.93492C16.2192 4.74452 16.1219 5.10272 16.1219 5.10272V6.71011C16.1219 6.71011 16.1136 6.91211 16.2601 7.03731C18.1908 8.3257 19.4561 10.4623 19.4561 12.8779C19.4561 16.8061 16.1117 20.001 12 20.001C7.88851 20.001 4.54415 16.8059 4.54415 12.8779C4.54415 10.4623 5.80941 8.3257 7.74031 7.03731C7.88685 6.91211 7.87834 6.71011 7.87834 6.71011V5.10272C7.87834 5.10272 7.78099 4.74452 7.33205 4.93492C4.4248 6.49911 2.45239 9.46929 2.45239 12.8779C2.45239 17.907 6.73595 21.9998 12 21.9998Z" fill="black"/>
</svg>
