<svg width="24" height="24" viewBox="0 0 24 24" fill="none" xmlns="http://www.w3.org/2000/svg">
<path d="M2 19.2579V4.80643C2 4.32733 2.19046 3.868 2.52923 3.52923C2.868 3.19046 3.32733 3 3.80643 3H16.1934C16.6209 3 16.9676 3.34661 16.9676 3.77418C16.9676 4.20175 16.6209 4.54837 16.1934 4.54837H3.80643C3.73799 4.54837 3.67237 4.57558 3.62397 4.62397C3.57558 4.67237 3.54837 4.73799 3.54837 4.80643V19.2579C3.54837 19.3263 3.57558 19.3919 3.62397 19.4403C3.67237 19.4887 3.73799 19.5159 3.80643 19.5159H11.0321C11.4597 19.5159 11.8063 19.8625 11.8063 20.2901C11.8063 20.7177 11.4597 21.0643 11.0321 21.0643H3.80643C3.32734 21.0643 2.868 20.8738 2.52923 20.5351C2.19046 20.1963 2 19.737 2 19.2579Z" fill="black"/>
<path d="M6.90315 3.77417V20.2901V3.77417ZM2.77417 8.9354H5.8709H2.77417ZM2.77417 7.90315V9.96764V7.90315ZM5.35478 3.77417H8.45152H5.35478ZM5.35478 20.2901H8.45152H5.35478ZM2.77417 15.1289H5.8709H2.77417ZM2.77417 14.0966V16.1611V14.0966Z" fill="black"/>
<path d="M2 9.96765V7.90316C2 7.47559 2.34661 7.12898 2.77418 7.12898C3.20175 7.12898 3.54837 7.47559 3.54837 7.90316V8.16123H5.87092C5.96168 8.16123 6.04806 8.1789 6.12898 8.2076V4.54837H5.3548C4.92723 4.54837 4.58061 4.20175 4.58061 3.77418C4.58061 3.34661 4.92723 3 5.3548 3H8.45153C8.8791 3 9.22572 3.34661 9.22572 3.77418C9.22572 4.20175 8.8791 4.54837 8.45153 4.54837H7.67735V19.5159H8.45153C8.8791 19.5159 9.22572 19.8625 9.22572 20.2901C9.22572 20.7177 8.8791 21.0643 8.45153 21.0643H5.3548C4.92723 21.0643 4.58061 20.7177 4.58061 20.2901C4.58061 19.8625 4.92723 19.5159 5.3548 19.5159H6.12898V15.8557C6.04797 15.8844 5.9618 15.9031 5.87092 15.9031H3.54837V16.1611C3.54837 16.5887 3.20175 16.9353 2.77418 16.9353C2.34661 16.9353 2 16.5887 2 16.1611V14.0966C2 13.6691 2.34661 13.3225 2.77418 13.3225C3.20175 13.3225 3.54837 13.6691 3.54837 14.0966V14.3547H5.87092C5.96168 14.3547 6.04806 14.3724 6.12898 14.4011V9.66221C6.04797 9.69098 5.9618 9.70959 5.87092 9.70959H3.54837V9.96765C3.54837 10.3952 3.20175 10.7418 2.77418 10.7418C2.34661 10.7418 2 10.3952 2 9.96765Z" fill="black"/>
<path d="M11.5129 12.7696L18.3012 4.59839C18.5344 4.31775 18.9834 4.56646 18.8692 4.91297L17.2186 9.91981C17.145 10.1428 17.3211 10.3692 17.5554 10.3528L21.2387 10.0954C21.5273 10.0752 21.7006 10.4095 21.5178 10.6337L14.241 19.5611C14.014 19.8395 13.5685 19.607 13.6672 19.2616L15.2925 13.5729C15.3547 13.3552 15.1845 13.1409 14.9583 13.1521L11.7835 13.3107C11.4962 13.3251 11.3291 12.9909 11.5129 12.7696Z" fill="black"/>
</svg>
