<svg width="24" height="24" viewBox="0 0 24 24" fill="none" xmlns="http://www.w3.org/2000/svg">
<path d="M15.4995 11C15.9162 11 16.2703 10.8542 16.562 10.5625C16.8537 10.2708 16.9995 9.91667 16.9995 9.5C16.9995 9.08333 16.8537 8.72917 16.562 8.4375C16.2703 8.14583 15.9162 8 15.4995 8C15.0828 8 14.7287 8.14583 14.437 8.4375C14.1453 8.72917 13.9995 9.08333 13.9995 9.5C13.9995 9.91667 14.1453 10.2708 14.437 10.5625C14.7287 10.8542 15.0828 11 15.4995 11ZM8.49951 11C8.91618 11 9.27035 10.8542 9.56201 10.5625C9.85368 10.2708 9.99951 9.91667 9.99951 9.5C9.99951 9.08333 9.85368 8.72917 9.56201 8.4375C9.27035 8.14583 8.91618 8 8.49951 8C8.08285 8 7.72868 8.14583 7.43701 8.4375C7.14534 8.72917 6.99951 9.08333 6.99951 9.5C6.99951 9.91667 7.14534 10.2708 7.43701 10.5625C7.72868 10.8542 8.08285 11 8.49951 11ZM11.9995 13.5C10.8662 13.5 9.83701 13.8208 8.91201 14.4625C7.98701 15.1042 7.31618 15.95 6.89951 17H8.54951C8.91618 16.3833 9.40368 15.8958 10.012 15.5375C10.6203 15.1792 11.2828 15 11.9995 15C12.7162 15 13.3787 15.1792 13.987 15.5375C14.5953 15.8958 15.0828 16.3833 15.4495 17H17.0995C16.6828 15.95 16.012 15.1042 15.087 14.4625C14.162 13.8208 13.1328 13.5 11.9995 13.5ZM11.9995 22C10.6162 22 9.31618 21.7375 8.09951 21.2125C6.88285 20.6875 5.82451 19.975 4.92451 19.075C4.02451 18.175 3.31201 17.1167 2.78701 15.9C2.26201 14.6833 1.99951 13.3833 1.99951 12C1.99951 10.6167 2.26201 9.31667 2.78701 8.1C3.31201 6.88333 4.02451 5.825 4.92451 4.925C5.82451 4.025 6.88285 3.3125 8.09951 2.7875C9.31618 2.2625 10.6162 2 11.9995 2C13.3828 2 14.6828 2.2625 15.8995 2.7875C17.1162 3.3125 18.1745 4.025 19.0745 4.925C19.9745 5.825 20.687 6.88333 21.212 8.1C21.737 9.31667 21.9995 10.6167 21.9995 12C21.9995 13.3833 21.737 14.6833 21.212 15.9C20.687 17.1167 19.9745 18.175 19.0745 19.075C18.1745 19.975 17.1162 20.6875 15.8995 21.2125C14.6828 21.7375 13.3828 22 11.9995 22ZM11.9995 20C14.2328 20 16.1245 19.225 17.6745 17.675C19.2245 16.125 19.9995 14.2333 19.9995 12C19.9995 9.76667 19.2245 7.875 17.6745 6.325C16.1245 4.775 14.2328 4 11.9995 4C9.76618 4 7.87451 4.775 6.32451 6.325C4.77451 7.875 3.99951 9.76667 3.99951 12C3.99951 14.2333 4.77451 16.125 6.32451 17.675C7.87451 19.225 9.76618 20 11.9995 20Z" fill="black"/>
</svg>
