<svg width="32" height="40" viewBox="0 0 32 40" fill="none" xmlns="http://www.w3.org/2000/svg">
<g clip-path="url(#clip0_940_297)">
<rect width="32" height="40" fill="#222222"/>
<g filter="url(#filter0_d_940_297)">
<path d="M21.9244 23.8737C21.9244 25.2843 21.9135 26.1198 21.8918 26.3802C21.7833 27.6606 21.3927 28.7457 20.72 29.6354C19.7217 30.9592 18.2243 31.6211 16.2278 31.6211C15.0342 31.6211 14.0576 31.48 13.2981 31.1979C12.5385 30.8941 11.8767 30.3733 11.3124 29.6354C10.7482 28.8976 10.401 28.1597 10.2708 27.4219C10.1405 26.6623 10.0754 25.5881 10.0754 24.1992V16.3542C10.0754 14.8785 10.1405 13.6957 10.2708 12.806C10.4227 11.8945 10.7265 11.1133 11.1822 10.4622C11.6379 9.8112 12.2781 9.30122 13.1028 8.93229C13.9274 8.56337 14.8497 8.37891 15.8697 8.37891C17.0416 8.37891 18.0724 8.60677 18.9622 9.0625C19.8736 9.49653 20.5572 10.1042 21.0129 10.8854C21.447 11.5582 21.7074 12.2743 21.7942 13.0339C21.881 13.7717 21.9244 14.8785 21.9244 16.3542V23.8737ZM16.9114 25.599V14.4987C16.9114 14.2383 16.9114 14.043 16.9114 13.9128C16.9114 13.1749 16.8571 12.6432 16.7486 12.3177C16.6618 11.9922 16.4231 11.8294 16.0325 11.8294C15.6852 11.8294 15.4357 11.9922 15.2838 12.3177C15.1536 12.6215 15.0885 13.0664 15.0885 13.6523V25.4362C15.0885 25.9787 15.0885 26.5213 15.0885 27.0638C15.1536 27.8016 15.4574 28.1706 15.9999 28.1706C16.4122 28.1706 16.6618 28.0078 16.7486 27.6823C16.8571 27.3351 16.9114 26.6406 16.9114 25.599Z" fill="white"/>
</g>
<path d="M28 19.6667C28 30.5283 29.6416 39.3333 31.6667 39.3333V0C29.6416 0 28 8.80507 28 19.6667Z" fill="#1B1B1B"/>
<path d="M3.66675 19.6667C3.66675 30.5283 2.02513 39.3333 8.13007e-05 39.3333V0C2.02513 0 3.66675 8.80507 3.66675 19.6667Z" fill="#1B1B1B"/>
<line y1="19.5" x2="32" y2="19.5" stroke="#3D3D3D"/>
</g>
<rect x="0.333333" y="0.333333" width="31.3333" height="39.3333" stroke="#737373" stroke-width="0.666667"/>
<defs>
<filter id="filter0_d_940_297" x="9.40877" y="7.71224" width="13.1822" height="24.5755" filterUnits="userSpaceOnUse" color-interpolation-filters="sRGB">
<feFlood flood-opacity="0" result="BackgroundImageFix"/>
<feColorMatrix in="SourceAlpha" type="matrix" values="0 0 0 0 0 0 0 0 0 0 0 0 0 0 0 0 0 0 127 0" result="hardAlpha"/>
<feOffset/>
<feGaussianBlur stdDeviation="0.333333"/>
<feComposite in2="hardAlpha" operator="out"/>
<feColorMatrix type="matrix" values="0 0 0 0 1 0 0 0 0 1 0 0 0 0 1 0 0 0 0.32 0"/>
<feBlend mode="normal" in2="BackgroundImageFix" result="effect1_dropShadow_940_297"/>
<feBlend mode="normal" in="SourceGraphic" in2="effect1_dropShadow_940_297" result="shape"/>
</filter>
<clipPath id="clip0_940_297">
<rect width="32" height="40" fill="white"/>
</clipPath>
</defs>
</svg>
