<svg width="32" height="40" viewBox="0 0 32 40" fill="none" xmlns="http://www.w3.org/2000/svg">
<g clip-path="url(#clip0_940_375)">
<rect width="32" height="40" fill="#222222"/>
<g filter="url(#filter0_d_940_375)">
<path d="M22.0385 23.9388C22.0385 24.1775 22.0385 24.362 22.0385 24.4922C22.0385 24.7092 22.0385 24.8611 22.0385 24.9479C22.0385 26.1198 21.9517 27.0855 21.7781 27.8451C21.127 30.3624 19.2499 31.6211 16.1466 31.6211C13.9981 31.6211 12.4248 31.0677 11.4265 29.9609C10.45 28.8325 9.96167 27.1181 9.96167 24.8177V18.6328C9.96167 17.5477 9.96167 16.3325 9.96167 14.987C9.98337 13.6198 10.1027 12.6107 10.3197 11.9596C11.1878 9.57248 13.1843 8.37891 16.3093 8.37891C18.9352 8.37891 20.6822 9.42057 21.5502 11.5039C21.7672 12.003 21.8974 12.5022 21.9408 13.0013C22.0059 13.4787 22.0385 14.0538 22.0385 14.7266H16.9604C16.9604 14.184 16.9604 13.8043 16.9604 13.5872C16.9604 12.9579 16.9061 12.513 16.7976 12.2526C16.6891 11.9705 16.4178 11.8294 15.9838 11.8294C15.3111 11.8294 14.9747 12.3177 14.9747 13.2943V17.9818C15.5389 16.7882 16.5372 16.1914 17.9695 16.1914C18.5771 16.1914 19.1848 16.3433 19.7924 16.6471C20.4 16.951 20.8666 17.3524 21.1921 17.8516C21.5394 18.3507 21.7672 18.9475 21.8757 19.6419C21.9842 20.3364 22.0385 21.1719 22.0385 22.1484V23.9388ZM16.9929 25.9245V21.7253C16.9929 21.0091 16.9387 20.4883 16.8302 20.1628C16.7217 19.8372 16.4504 19.6745 16.0164 19.6745C15.5823 19.6745 15.3002 19.8589 15.17 20.2279C15.0398 20.5968 14.9747 21.0959 14.9747 21.7253V25.7943C14.9747 26.6623 15.0181 27.2808 15.1049 27.6497C15.2134 27.997 15.5064 28.1706 15.9838 28.1706C16.3744 28.1706 16.6348 27.9753 16.7651 27.5846C16.917 27.194 16.9929 26.6406 16.9929 25.9245Z" fill="white"/>
</g>
<path d="M28 19.6667C28 30.5283 29.6416 39.3333 31.6667 39.3333V0C29.6416 0 28 8.80507 28 19.6667Z" fill="#1B1B1B"/>
<path d="M3.66675 19.6667C3.66675 30.5283 2.02513 39.3333 8.13007e-05 39.3333V0C2.02513 0 3.66675 8.80507 3.66675 19.6667Z" fill="#1B1B1B"/>
<line y1="19.5" x2="32" y2="19.5" stroke="#3D3D3D"/>
</g>
<rect x="0.333333" y="0.333333" width="31.3333" height="39.3333" stroke="#737373" stroke-width="0.666667"/>
<defs>
<filter id="filter0_d_940_375" x="9.295" y="7.71224" width="13.4102" height="24.5755" filterUnits="userSpaceOnUse" color-interpolation-filters="sRGB">
<feFlood flood-opacity="0" result="BackgroundImageFix"/>
<feColorMatrix in="SourceAlpha" type="matrix" values="0 0 0 0 0 0 0 0 0 0 0 0 0 0 0 0 0 0 127 0" result="hardAlpha"/>
<feOffset/>
<feGaussianBlur stdDeviation="0.333333"/>
<feComposite in2="hardAlpha" operator="out"/>
<feColorMatrix type="matrix" values="0 0 0 0 1 0 0 0 0 1 0 0 0 0 1 0 0 0 0.32 0"/>
<feBlend mode="normal" in2="BackgroundImageFix" result="effect1_dropShadow_940_375"/>
<feBlend mode="normal" in="SourceGraphic" in2="effect1_dropShadow_940_375" result="shape"/>
</filter>
<clipPath id="clip0_940_375">
<rect width="32" height="40" fill="white"/>
</clipPath>
</defs>
</svg>
