<svg width="32" height="40" viewBox="0 0 32 40" fill="none" xmlns="http://www.w3.org/2000/svg">
<g clip-path="url(#clip0_940_390)">
<rect width="32" height="40" fill="#222222"/>
<g filter="url(#filter0_d_940_390)">
<path d="M22.0221 21.3346C22.0221 21.6168 22.0221 21.8555 22.0221 22.0508C22.0221 22.2461 22.0221 22.4089 22.0221 22.5391C22.0221 23.4288 22.0112 24.4271 21.9895 25.5339C21.9678 26.6189 21.8593 27.4653 21.664 28.0729C20.7959 30.4384 18.8102 31.6211 15.707 31.6211C13.0594 31.6211 11.3016 30.5794 10.4335 28.4961C10.2816 28.0838 10.1622 27.6172 10.0754 27.0964C10.0103 26.5755 9.97778 26.0981 9.97778 25.6641C9.97778 25.4905 9.97778 25.3602 9.97778 25.2734H14.9908C14.9908 25.6858 14.9908 25.9787 14.9908 26.1523C14.9908 26.8902 15.0451 27.411 15.1536 27.7148C15.2621 28.0187 15.555 28.1706 16.0325 28.1706C16.3797 28.1706 16.6293 28.0404 16.7812 27.7799C16.9331 27.5195 17.009 27.1615 17.009 26.7057V21.9857C16.4448 23.201 15.4574 23.8086 14.0468 23.8086C13.3958 23.8086 12.7773 23.6567 12.1913 23.3529C11.6271 23.049 11.1605 22.6476 10.7916 22.1484C10.4661 21.6493 10.2491 21.0525 10.1405 20.3581C10.032 19.6419 9.97778 18.7956 9.97778 17.819V16.0286C9.97778 15.3559 9.97778 14.6832 9.97778 14.0104C9.99948 13.3377 10.0754 12.7192 10.2056 12.1549C10.5095 10.918 11.1388 9.98481 12.0937 9.35547C13.0485 8.70443 14.2964 8.37891 15.8372 8.37891C17.9856 8.37891 19.5481 8.94314 20.5247 10.0716C21.5229 11.1784 22.0221 12.8819 22.0221 15.1823V21.3346ZM17.009 18.2747V14.2057C17.009 13.4679 16.9982 13.0339 16.9765 12.9036C16.868 12.1875 16.5425 11.8294 15.9999 11.8294C15.6093 11.8294 15.338 12.0356 15.1861 12.4479C15.0559 12.8385 14.9908 13.3919 14.9908 14.1081V18.2747C14.9908 18.9475 15.0559 19.4575 15.1861 19.8047C15.3163 20.1519 15.5876 20.3255 15.9999 20.3255C16.5208 20.3255 16.8354 20 16.9439 19.349C16.9873 19.0885 17.009 18.7305 17.009 18.2747Z" fill="white"/>
</g>
<path d="M28 19.6667C28 30.5283 29.6416 39.3333 31.6667 39.3333V0C29.6416 0 28 8.80507 28 19.6667Z" fill="#1B1B1B"/>
<path d="M3.66675 19.6667C3.66675 30.5283 2.02513 39.3333 8.13007e-05 39.3333V0C2.02513 0 3.66675 8.80507 3.66675 19.6667Z" fill="#1B1B1B"/>
<line y1="19.5" x2="32" y2="19.5" stroke="#3D3D3D"/>
</g>
<rect x="0.333333" y="0.333333" width="31.3333" height="39.3333" stroke="#737373" stroke-width="0.666667"/>
<defs>
<filter id="filter0_d_940_390" x="9.31112" y="7.71224" width="13.3775" height="24.5755" filterUnits="userSpaceOnUse" color-interpolation-filters="sRGB">
<feFlood flood-opacity="0" result="BackgroundImageFix"/>
<feColorMatrix in="SourceAlpha" type="matrix" values="0 0 0 0 0 0 0 0 0 0 0 0 0 0 0 0 0 0 127 0" result="hardAlpha"/>
<feOffset/>
<feGaussianBlur stdDeviation="0.333333"/>
<feComposite in2="hardAlpha" operator="out"/>
<feColorMatrix type="matrix" values="0 0 0 0 1 0 0 0 0 1 0 0 0 0 1 0 0 0 0.32 0"/>
<feBlend mode="normal" in2="BackgroundImageFix" result="effect1_dropShadow_940_390"/>
<feBlend mode="normal" in="SourceGraphic" in2="effect1_dropShadow_940_390" result="shape"/>
</filter>
<clipPath id="clip0_940_390">
<rect width="32" height="40" fill="white"/>
</clipPath>
</defs>
</svg>
