<svg width="24" height="24" viewBox="0 0 24 24" fill="none" xmlns="http://www.w3.org/2000/svg">
<path d="M4 20C3.45 20 2.97917 19.8259 2.5875 19.4778C2.19583 19.1296 2 18.7111 2 18.2222V7.55556C2 7.06667 2.19583 6.64815 2.5875 6.3C2.97917 5.95185 3.45 5.77778 4 5.77778H7V4H9V5.77778H15V4H17V5.77778H20C20.55 5.77778 21.0208 5.95185 21.4125 6.3C21.8042 6.64815 22 7.06667 22 7.55556V18.2222C22 18.7111 21.8042 19.1296 21.4125 19.4778C21.0208 19.8259 20.55 20 20 20H4ZM4 18.2222H20V7.55556H4V18.2222Z" fill="black"/>
<path d="M5.552 11.7511V10.8267C6 10.8267 6.6 10.6756 6.696 10.1156H7.816V16.4444H6.488V11.7511H5.552Z" fill="black"/>
<path d="M11.0709 11.04H8.98294V10.1156H12.4869V11.0133L10.6149 16.4444H9.19894L11.0709 11.04Z" fill="black"/>
<path d="M12.7659 14.1422V13.0933H14.5419V14.1422H12.7659Z" fill="black"/>
<path d="M15.0442 11.7511V10.8267C15.4922 10.8267 16.0922 10.6756 16.1882 10.1156H17.3082V16.4444H15.9802V11.7511H15.0442Z" fill="black"/>
</svg>
