<svg width="32" height="40" viewBox="0 0 32 40" fill="none" xmlns="http://www.w3.org/2000/svg">
<g clip-path="url(#clip0_940_350)">
<rect width="32" height="40" fill="#222222"/>
<g filter="url(#filter0_d_940_350)">
<path d="M21.7779 14.4173C21.7779 15.6109 21.5283 16.8587 21.0292 18.1608C20.6169 19.2242 19.9007 20.6239 18.8808 22.36C17.8608 24.0962 16.83 25.8323 15.7883 27.5684H21.2896V31.4095H10.2219V28.2194C11.7844 25.3765 12.8478 23.4234 13.412 22.36C14.0848 21.1231 14.8552 19.6365 15.7232 17.9004C16.2875 16.7068 16.6455 15.8605 16.7974 15.3613C16.9494 14.8405 17.0253 14.3088 17.0253 13.7663C17.0253 12.6161 16.6455 12.041 15.886 12.041C15.452 12.041 15.159 12.2581 15.0071 12.6921C14.8552 13.1261 14.7792 13.7337 14.7792 14.515V16.5983H10.2219V15.8496C10.2219 15.4156 10.2219 14.9924 10.2219 14.5801C10.2436 14.1678 10.287 13.7446 10.3521 13.3106C10.5691 11.7698 11.1442 10.5979 12.0774 9.79494C13.0106 8.99199 14.2367 8.59052 15.7558 8.59052C16.537 8.59052 17.2315 8.67732 17.8391 8.85093C18.4468 9.00284 19.011 9.26326 19.5318 9.63218C21.0292 10.7607 21.7779 12.3557 21.7779 14.4173Z" fill="white"/>
</g>
<path d="M28 19.6667C28 30.5283 29.6416 39.3333 31.6667 39.3333V0C29.6416 0 28 8.80507 28 19.6667Z" fill="#1B1B1B"/>
<path d="M3.66675 19.6667C3.66675 30.5283 2.02513 39.3333 8.13007e-05 39.3333V0C2.02513 0 3.66675 8.80507 3.66675 19.6667Z" fill="#1B1B1B"/>
<line y1="19.5" x2="32" y2="19.5" stroke="#3D3D3D"/>
</g>
<rect x="0.333333" y="0.333333" width="31.3333" height="39.3333" stroke="#737373" stroke-width="0.666667"/>
<defs>
<filter id="filter0_d_940_350" x="9.55526" y="7.92385" width="12.8892" height="24.1524" filterUnits="userSpaceOnUse" color-interpolation-filters="sRGB">
<feFlood flood-opacity="0" result="BackgroundImageFix"/>
<feColorMatrix in="SourceAlpha" type="matrix" values="0 0 0 0 0 0 0 0 0 0 0 0 0 0 0 0 0 0 127 0" result="hardAlpha"/>
<feOffset/>
<feGaussianBlur stdDeviation="0.333333"/>
<feComposite in2="hardAlpha" operator="out"/>
<feColorMatrix type="matrix" values="0 0 0 0 1 0 0 0 0 1 0 0 0 0 1 0 0 0 0.32 0"/>
<feBlend mode="normal" in2="BackgroundImageFix" result="effect1_dropShadow_940_350"/>
<feBlend mode="normal" in="SourceGraphic" in2="effect1_dropShadow_940_350" result="shape"/>
</filter>
<clipPath id="clip0_940_350">
<rect width="32" height="40" fill="white"/>
</clipPath>
</defs>
</svg>
