<svg width="32" height="40" viewBox="0 0 32 40" fill="none" xmlns="http://www.w3.org/2000/svg">
<g clip-path="url(#clip0_940_365)">
<rect width="32" height="40" fill="#222222"/>
<g filter="url(#filter0_d_940_365)">
<path d="M22.2174 27.2591H20.7851V31.1979H15.7721V27.2591H9.78247V23.4179L14.1445 8.80206H20.7851V23.4179H22.2174V27.2591ZM15.7721 23.4179V13.9127L13.526 23.4179H15.7721Z" fill="white"/>
</g>
<path d="M28 19.6667C28 30.5283 29.6416 39.3333 31.6667 39.3333V0C29.6416 0 28 8.80507 28 19.6667Z" fill="#1B1B1B"/>
<path d="M3.66675 19.6667C3.66675 30.5283 2.02513 39.3333 8.13007e-05 39.3333V0C2.02513 0 3.66675 8.80507 3.66675 19.6667Z" fill="#1B1B1B"/>
<line y1="19.5" x2="32" y2="19.5" stroke="#3D3D3D"/>
</g>
<rect x="0.333333" y="0.333333" width="31.3333" height="39.3333" stroke="#737373" stroke-width="0.666667"/>
<defs>
<filter id="filter0_d_940_365" x="9.1158" y="8.1354" width="13.7681" height="23.7291" filterUnits="userSpaceOnUse" color-interpolation-filters="sRGB">
<feFlood flood-opacity="0" result="BackgroundImageFix"/>
<feColorMatrix in="SourceAlpha" type="matrix" values="0 0 0 0 0 0 0 0 0 0 0 0 0 0 0 0 0 0 127 0" result="hardAlpha"/>
<feOffset/>
<feGaussianBlur stdDeviation="0.333333"/>
<feComposite in2="hardAlpha" operator="out"/>
<feColorMatrix type="matrix" values="0 0 0 0 1 0 0 0 0 1 0 0 0 0 1 0 0 0 0.32 0"/>
<feBlend mode="normal" in2="BackgroundImageFix" result="effect1_dropShadow_940_365"/>
<feBlend mode="normal" in="SourceGraphic" in2="effect1_dropShadow_940_365" result="shape"/>
</filter>
<clipPath id="clip0_940_365">
<rect width="32" height="40" fill="white"/>
</clipPath>
</defs>
</svg>
