<svg width="32" height="40" viewBox="0 0 32 40" fill="none" xmlns="http://www.w3.org/2000/svg">
<g clip-path="url(#clip0_940_355)">
<rect width="32" height="40" fill="#222222"/>
<g filter="url(#filter0_d_940_355)">
<path d="M21.9244 24.4922C21.9244 25.8594 21.8376 26.9553 21.664 27.7799C21.4904 28.6046 21.1431 29.3207 20.6223 29.9284C19.6675 31.0569 18.2352 31.6211 16.3254 31.6211C14.3072 31.6211 12.7773 31.2196 11.7356 30.4167C10.6939 29.592 10.1731 28.3767 10.1731 26.7708L10.0754 24.069V23.2878H15.0885V26.8034C15.0885 27.7148 15.3706 28.1706 15.9348 28.1706C16.3688 28.1706 16.6293 27.9536 16.7161 27.5195C16.8246 27.0855 16.8788 26.2717 16.8788 25.0781V23.5156C16.8788 22.2135 16.651 21.3889 16.1952 21.0417C15.848 20.7813 15.0776 20.651 13.884 20.651V17.3958H14.177C15.3923 17.3958 16.141 17.2765 16.4231 17.0378C16.7269 16.799 16.8788 16.1155 16.8788 14.987V13.7174C16.8788 13.0447 16.8463 12.6107 16.7812 12.4154C16.651 12.0247 16.3905 11.8294 15.9999 11.8294C15.3923 11.8294 15.0885 12.2743 15.0885 13.1641V15.0846H10.0754V13.8151C10.0754 11.7318 10.4986 10.3103 11.345 9.55078C12.213 8.76953 13.7104 8.37891 15.8372 8.37891C17.8337 8.37891 19.3094 8.85634 20.2642 9.8112C21.2408 10.7444 21.7291 12.2418 21.7291 14.3034C21.7291 15.5838 21.5229 16.5495 21.1106 17.2005C20.8285 17.6563 20.3402 18.0903 19.6458 18.5026C20.644 18.9149 21.2734 19.5226 21.5338 20.3255C21.7942 21.1068 21.9244 22.4957 21.9244 24.4922Z" fill="white"/>
</g>
<path d="M28 19.6667C28 30.5283 29.6416 39.3333 31.6667 39.3333V0C29.6416 0 28 8.80507 28 19.6667Z" fill="#1B1B1B"/>
<path d="M3.66675 19.6667C3.66675 30.5283 2.02513 39.3333 8.13007e-05 39.3333V0C2.02513 0 3.66675 8.80507 3.66675 19.6667Z" fill="#1B1B1B"/>
<line y1="19.5" x2="32" y2="19.5" stroke="#3D3D3D"/>
</g>
<rect x="0.333333" y="0.333333" width="31.3333" height="39.3333" stroke="#737373" stroke-width="0.666667"/>
<defs>
<filter id="filter0_d_940_355" x="9.40877" y="7.71224" width="13.1822" height="24.5755" filterUnits="userSpaceOnUse" color-interpolation-filters="sRGB">
<feFlood flood-opacity="0" result="BackgroundImageFix"/>
<feColorMatrix in="SourceAlpha" type="matrix" values="0 0 0 0 0 0 0 0 0 0 0 0 0 0 0 0 0 0 127 0" result="hardAlpha"/>
<feOffset/>
<feGaussianBlur stdDeviation="0.333333"/>
<feComposite in2="hardAlpha" operator="out"/>
<feColorMatrix type="matrix" values="0 0 0 0 1 0 0 0 0 1 0 0 0 0 1 0 0 0 0.32 0"/>
<feBlend mode="normal" in2="BackgroundImageFix" result="effect1_dropShadow_940_355"/>
<feBlend mode="normal" in="SourceGraphic" in2="effect1_dropShadow_940_355" result="shape"/>
</filter>
<clipPath id="clip0_940_355">
<rect width="32" height="40" fill="white"/>
</clipPath>
</defs>
</svg>
