<svg width="32" height="40" viewBox="0 0 32 40" fill="none" xmlns="http://www.w3.org/2000/svg">
<g clip-path="url(#clip0_940_344)">
<rect width="32" height="40" fill="#222222"/>
<g filter="url(#filter0_d_940_344)">
<path d="M20.4107 31.1979H14.8443V17.2005C14.8443 16.3975 14.6707 15.8333 14.3235 15.5078C13.998 15.1606 13.3578 14.987 12.4029 14.987H11.5891V12.3828C12.8261 12.1224 13.9003 11.6775 14.8118 11.0482C15.593 10.5056 16.3634 9.75692 17.123 8.80206H20.4107V31.1979Z" fill="white"/>
</g>
<path d="M28 19.6667C28 30.5283 29.6416 39.3333 31.6667 39.3333V0C29.6416 0 28 8.80507 28 19.6667Z" fill="#1B1B1B"/>
<path d="M3.66675 19.6667C3.66675 30.5283 2.02513 39.3333 8.13007e-05 39.3333V0C2.02513 0 3.66675 8.80507 3.66675 19.6667Z" fill="#1B1B1B"/>
<line y1="19.5" x2="32" y2="19.5" stroke="#3D3D3D"/>
</g>
<rect x="0.333333" y="0.333333" width="31.3333" height="39.3333" stroke="#737373" stroke-width="0.666667"/>
<defs>
<filter id="filter0_d_940_344" x="10.9224" y="8.1354" width="10.1549" height="23.7291" filterUnits="userSpaceOnUse" color-interpolation-filters="sRGB">
<feFlood flood-opacity="0" result="BackgroundImageFix"/>
<feColorMatrix in="SourceAlpha" type="matrix" values="0 0 0 0 0 0 0 0 0 0 0 0 0 0 0 0 0 0 127 0" result="hardAlpha"/>
<feOffset/>
<feGaussianBlur stdDeviation="0.333333"/>
<feComposite in2="hardAlpha" operator="out"/>
<feColorMatrix type="matrix" values="0 0 0 0 1 0 0 0 0 1 0 0 0 0 1 0 0 0 0.32 0"/>
<feBlend mode="normal" in2="BackgroundImageFix" result="effect1_dropShadow_940_344"/>
<feBlend mode="normal" in="SourceGraphic" in2="effect1_dropShadow_940_344" result="shape"/>
</filter>
<clipPath id="clip0_940_344">
<rect width="32" height="40" fill="white"/>
</clipPath>
</defs>
</svg>
