<svg width="32" height="40" viewBox="0 0 32 40" fill="none" xmlns="http://www.w3.org/2000/svg">
<g clip-path="url(#clip0_940_385)">
<rect width="32" height="40" fill="#222222"/>
<g filter="url(#filter0_d_940_385)">
<path d="M21.9897 24.6875C21.9897 24.8611 21.9897 25.0022 21.9897 25.1107C21.9897 25.5881 21.9788 26.033 21.9571 26.4453C21.9354 26.8576 21.892 27.2157 21.8269 27.5195C21.3495 30.2539 19.4072 31.6211 16.0001 31.6211C12.593 31.6211 10.6724 30.2214 10.2384 27.4219C10.1733 27.0096 10.119 26.5538 10.0756 26.0547C10.0322 25.5556 10.0105 25.013 10.0105 24.4271C10.0105 22.4523 10.1407 21.1176 10.4011 20.4232C10.6615 19.707 11.2041 19.0668 12.0287 18.5026C11.3994 18.112 10.9545 17.6454 10.6941 17.1029C10.3686 16.4301 10.2058 15.4427 10.2058 14.1406C10.2058 10.2995 12.1155 8.37891 15.935 8.37891C17.9532 8.37891 19.4398 8.84549 20.3946 9.77865C21.3495 10.7118 21.8269 12.2201 21.8269 14.3034C21.8269 15.6272 21.6424 16.582 21.2735 17.168C21.0348 17.5586 20.4923 18.0035 19.6459 18.5026C20.6442 19.0017 21.2844 19.6636 21.5665 20.4883C21.8486 21.3129 21.9897 22.7127 21.9897 24.6875ZM16.879 15.931V13.6849C16.879 13.0339 16.8573 12.6324 16.8139 12.4805C16.6837 12.0464 16.4016 11.8294 15.9675 11.8294C15.5986 11.8294 15.3707 12.003 15.2839 12.3503C15.1971 12.6758 15.1537 13.1207 15.1537 13.6849V16.0612C15.1537 16.365 15.2297 16.6254 15.3816 16.8424C15.5335 17.0595 15.7505 17.168 16.0326 17.168C16.5969 17.168 16.879 16.7556 16.879 15.931ZM16.9766 25.8268V22.9948C16.9766 22.2786 16.9115 21.747 16.7813 21.3997C16.6511 21.0525 16.3799 20.8789 15.9675 20.8789C15.5769 20.8789 15.3273 21.0417 15.2188 21.3672C15.1103 21.6927 15.0561 22.2352 15.0561 22.9948V25.8919C15.0561 26.6732 15.1103 27.2483 15.2188 27.6172C15.349 27.9861 15.6312 28.1706 16.0652 28.1706C16.4558 28.1706 16.7054 28.0078 16.8139 27.6823C16.9224 27.3351 16.9766 26.7166 16.9766 25.8268Z" fill="white"/>
</g>
<path d="M28 19.6667C28 30.5283 29.6416 39.3333 31.6667 39.3333V0C29.6416 0 28 8.80507 28 19.6667Z" fill="#1B1B1B"/>
<path d="M3.66675 19.6667C3.66675 30.5283 2.02513 39.3333 8.13007e-05 39.3333V0C2.02513 0 3.66675 8.80507 3.66675 19.6667Z" fill="#1B1B1B"/>
<line y1="19.5" x2="32" y2="19.5" stroke="#3D3D3D"/>
</g>
<rect x="0.333333" y="0.333333" width="31.3333" height="39.3333" stroke="#737373" stroke-width="0.666667"/>
<defs>
<filter id="filter0_d_940_385" x="9.34383" y="7.71224" width="13.3126" height="24.5755" filterUnits="userSpaceOnUse" color-interpolation-filters="sRGB">
<feFlood flood-opacity="0" result="BackgroundImageFix"/>
<feColorMatrix in="SourceAlpha" type="matrix" values="0 0 0 0 0 0 0 0 0 0 0 0 0 0 0 0 0 0 127 0" result="hardAlpha"/>
<feOffset/>
<feGaussianBlur stdDeviation="0.333333"/>
<feComposite in2="hardAlpha" operator="out"/>
<feColorMatrix type="matrix" values="0 0 0 0 1 0 0 0 0 1 0 0 0 0 1 0 0 0 0.32 0"/>
<feBlend mode="normal" in2="BackgroundImageFix" result="effect1_dropShadow_940_385"/>
<feBlend mode="normal" in="SourceGraphic" in2="effect1_dropShadow_940_385" result="shape"/>
</filter>
<clipPath id="clip0_940_385">
<rect width="32" height="40" fill="white"/>
</clipPath>
</defs>
</svg>
