<svg width="24" height="24" viewBox="0 0 24 24" fill="none" xmlns="http://www.w3.org/2000/svg">
<path d="M10.3029 2C5.72628 2 2 5.72203 2 10.299C2 14.8759 5.72378 18.5979 10.3029 18.5979C12.2235 18.5979 13.9866 17.938 15.3946 16.8406L15.3571 16.8781L20.1612 21.68C20.3738 21.8925 20.6489 22 20.924 22C21.1991 22 21.4767 21.8925 21.6868 21.68C22.1044 21.2626 22.1044 20.5752 21.6868 20.1577L16.8826 15.3533L16.8476 15.3883C17.9455 13.981 18.6057 12.2162 18.6057 10.299C18.6082 5.72203 14.8819 2 10.3029 2ZM10.3029 16.4407C6.91419 16.4407 4.15824 13.686 4.15824 10.299C4.15824 6.91189 6.91419 4.15723 10.3029 4.15723C13.6915 4.15723 16.4475 6.91189 16.4475 10.299C16.45 13.686 13.6915 16.4407 10.3029 16.4407Z" fill="black"/>
</svg>
