<svg width="24" height="24" viewBox="0 0 24 24" fill="none" xmlns="http://www.w3.org/2000/svg">
<path d="M17.8333 22C16.9537 22 16.206 21.7083 15.5903 21.125C14.9745 20.5417 14.6667 19.8333 14.6667 19C14.6667 18.9 14.6931 18.6667 14.7458 18.3L7.33056 14.2C7.04907 14.45 6.72361 14.646 6.35417 14.788C5.98472 14.93 5.58889 15.0007 5.16667 15C4.28704 15 3.53935 14.7083 2.92361 14.125C2.30787 13.5417 2 12.8333 2 12C2 11.1667 2.30787 10.4583 2.92361 9.875C3.53935 9.29167 4.28704 9 5.16667 9C5.58889 9 5.98472 9.071 6.35417 9.213C6.72361 9.355 7.04907 9.55067 7.33056 9.8L14.7458 5.7C14.7106 5.58333 14.6888 5.471 14.6804 5.363C14.6719 5.255 14.6674 5.134 14.6667 5C14.6667 4.16667 14.9745 3.45833 15.5903 2.875C16.206 2.29167 16.9537 2 17.8333 2C18.713 2 19.4606 2.29167 20.0764 2.875C20.6921 3.45833 21 4.16667 21 5C21 5.83333 20.6921 6.54167 20.0764 7.125C19.4606 7.70833 18.713 8 17.8333 8C17.4111 8 17.0153 7.929 16.6458 7.787C16.2764 7.645 15.9509 7.44933 15.6694 7.2L8.25417 11.3C8.28935 11.4167 8.31152 11.5293 8.32067 11.638C8.32981 11.7467 8.33404 11.8673 8.33333 12C8.33263 12.1327 8.32841 12.2537 8.32067 12.363C8.31293 12.4723 8.29076 12.5847 8.25417 12.7L15.6694 16.8C15.9509 16.55 16.2764 16.3543 16.6458 16.213C17.0153 16.0717 17.4111 16.0007 17.8333 16C18.713 16 19.4606 16.2917 20.0764 16.875C20.6921 17.4583 21 18.1667 21 19C21 19.8333 20.6921 20.5417 20.0764 21.125C19.4606 21.7083 18.713 22 17.8333 22Z" fill="black"/>
</svg>
