<svg width="24" height="24" viewBox="0 0 24 24" fill="none" xmlns="http://www.w3.org/2000/svg">
<path d="M18.0454 6.27284C18.0454 5.3691 17.3128 4.63648 16.4091 4.63648C15.5053 4.63648 14.7727 5.3691 14.7727 6.27284C14.7727 7.17657 15.5053 7.90919 16.4091 7.90919C17.3128 7.90919 18.0454 7.17657 18.0454 6.27284ZM19.6818 6.27284C19.6818 8.08031 18.2165 9.54555 16.4091 9.54555C14.6016 9.54555 13.1364 8.08031 13.1364 6.27284C13.1364 4.46537 14.6016 3.00012 16.4091 3.00012C18.2165 3.00012 19.6818 4.46537 19.6818 6.27284Z" fill="black"/>
<path d="M8.22731 12C8.22731 11.0963 7.49469 10.3637 6.59095 10.3637C5.68722 10.3637 4.95459 11.0963 4.95459 12C4.95459 12.9037 5.68722 13.6364 6.59095 13.6364C7.49469 13.6364 8.22731 12.9037 8.22731 12ZM9.86366 12C9.86366 13.8075 8.39842 15.2727 6.59095 15.2727C4.78348 15.2727 3.31824 13.8075 3.31824 12C3.31824 10.1925 4.78348 8.72729 6.59095 8.72729C8.39842 8.72729 9.86366 10.1925 9.86366 12Z" fill="black"/>
<path d="M18.0454 17.7273C18.0454 16.8236 17.3128 16.0909 16.4091 16.0909C15.5053 16.0909 14.7727 16.8236 14.7727 17.7273C14.7727 18.631 15.5053 19.3637 16.4091 19.3637C17.3128 19.3637 18.0454 18.631 18.0454 17.7273ZM19.6818 17.7273C19.6818 19.5348 18.2165 21 16.4091 21C14.6016 21 13.1364 19.5348 13.1364 17.7273C13.1364 15.9198 14.6016 14.4546 16.4091 14.4546C18.2165 14.4546 19.6818 15.9198 19.6818 17.7273Z" fill="black"/>
<path d="M8.00287 12.8232C8.23042 12.4329 8.73191 12.3009 9.12227 12.5284L14.7097 15.7851C15.1001 16.0126 15.2327 16.5133 15.0053 16.9037C14.7778 17.2941 14.2763 17.4261 13.8859 17.1986L8.2977 13.9426C7.90742 13.7151 7.7754 13.2136 8.00287 12.8232Z" fill="black"/>
<path d="M13.8781 6.80198C14.2683 6.57432 14.7689 6.70578 14.9967 7.09601C15.2243 7.48619 15.0927 7.9868 14.7026 8.21461L9.12241 11.4713C8.73228 11.699 8.23164 11.5673 8.00381 11.1773C7.77606 10.787 7.90757 10.2857 8.29784 10.0579L13.8781 6.80198Z" fill="black"/>
</svg>
