<svg width="24" height="24" viewBox="0 0 24 24" fill="none" xmlns="http://www.w3.org/2000/svg">
<path d="M6.99999 22C6.63635 22 6.31817 21.8636 6.04544 21.5909C5.77272 21.3182 5.63635 21 5.63635 20.6364V3.36364C5.63635 3 5.77272 2.68182 6.04544 2.40909C6.31817 2.13636 6.63635 2 6.99999 2H17C17.3636 2 17.6818 2.13636 17.9545 2.40909C18.2273 2.68182 18.3636 3 18.3636 3.36364V20.6364C18.3636 21 18.2273 21.3182 17.9545 21.5909C17.6818 21.8636 17.3636 22 17 22H6.99999ZM6.99999 18.5909V20.6364H17V18.5909H6.99999ZM12.004 20.2955C12.1983 20.2955 12.3598 20.2297 12.4886 20.0983C12.6174 19.9668 12.6818 19.804 12.6818 19.6097C12.6818 19.4153 12.6161 19.2538 12.4846 19.125C12.3532 18.9962 12.1903 18.9318 11.996 18.9318C11.8017 18.9318 11.6401 18.9975 11.5114 19.129C11.3826 19.2604 11.3182 19.4233 11.3182 19.6176C11.3182 19.8119 11.3839 19.9735 11.5153 20.1023C11.6468 20.2311 11.8097 20.2955 12.004 20.2955ZM6.99999 17.2273H17V5.40909H6.99999V17.2273ZM6.99999 4.04545H17V3.36364H6.99999V4.04545Z" fill="black"/>
</svg>
