<svg width="24" height="24" viewBox="0 0 24 24" fill="none" xmlns="http://www.w3.org/2000/svg">
<path d="M7.00011 22C6.63647 22 6.31829 21.8636 6.04557 21.5909C5.77284 21.3182 5.63647 21 5.63647 20.6364V3.36364C5.63647 3 5.77284 2.68182 6.04557 2.40909C6.31829 2.13636 6.63647 2 7.00011 2H17.0001C17.3637 2 17.6819 2.13636 17.9547 2.40909C18.2274 2.68182 18.3637 3 18.3637 3.36364V20.6364C18.3637 21 18.2274 21.3182 17.9547 21.5909C17.6819 21.8636 17.3637 22 17.0001 22H7.00011ZM7.00011 18.5909V20.6364H17.0001V18.5909H7.00011ZM12.0041 20.2955C12.1984 20.2955 12.36 20.2297 12.4887 20.0983C12.6175 19.9668 12.6819 19.804 12.6819 19.6097C12.6819 19.4153 12.6162 19.2538 12.4848 19.125C12.3533 18.9962 12.1904 18.9318 11.9961 18.9318C11.8018 18.9318 11.6403 18.9975 11.5115 19.129C11.3827 19.2604 11.3183 19.4233 11.3183 19.6176C11.3183 19.8119 11.384 19.9735 11.5155 20.1023C11.6469 20.2311 11.8098 20.2955 12.0041 20.2955ZM7.00011 17.2273H17.0001V5.40909H7.00011V17.2273ZM7.00011 4.04545H17.0001V3.36364H7.00011V4.04545Z" fill="black"/>
</svg>
