<svg width="24" height="24" viewBox="0 0 24 24" fill="none" xmlns="http://www.w3.org/2000/svg">
<path d="M18.3017 22H21.5539C21.6717 22 21.7848 21.9531 21.8681 21.8696C21.9515 21.7862 21.9983 21.673 21.9983 21.5549L22 14.6715C22 11.0738 21.2261 8.30837 17.0291 8.30837C15.4337 8.24894 13.9291 9.07282 13.1172 10.4486C13.1133 10.4552 13.1072 10.4604 13.1 10.4634C13.0928 10.4663 13.0849 10.4668 13.0774 10.4647C13.0699 10.4627 13.0633 10.4583 13.0585 10.4521C13.0538 10.446 13.0512 10.4384 13.0511 10.4306V9.08573C13.0511 8.96765 13.0043 8.85441 12.9209 8.77091C12.8376 8.68742 12.7245 8.64051 12.6067 8.64051H9.52033C9.40246 8.64051 9.28941 8.68742 9.20606 8.77091C9.12271 8.85441 9.07589 8.96765 9.07589 9.08573V21.5542C9.07589 21.6723 9.12271 21.7855 9.20606 21.869C9.28941 21.9525 9.40246 21.9994 9.52033 21.9994H12.7723C12.8902 21.9994 13.0033 21.9525 13.0866 21.869C13.17 21.7855 13.2168 21.6723 13.2168 21.5542V15.3909C13.2168 13.6482 13.5468 11.9604 15.7036 11.9604C17.8297 11.9604 17.8572 13.9546 17.8572 15.5037V21.5548C17.8572 21.6729 17.904 21.7861 17.9874 21.8696C18.0707 21.9531 18.1838 22 18.3017 22ZM2 4.40732C2 5.72786 3.08522 6.81442 4.40356 6.81442C5.72156 6.81431 6.80611 5.72708 6.80611 4.40677C6.80589 3.08646 5.72122 2 4.40311 2C3.08467 2 2 3.08679 2 4.40732ZM2.77322 22H6.02956C6.14743 22 6.26048 21.9531 6.34383 21.8696C6.42718 21.7861 6.474 21.6729 6.474 21.5548V9.08573C6.474 8.96765 6.42718 8.85441 6.34383 8.77091C6.26048 8.68742 6.14743 8.64051 6.02956 8.64051H2.77322C2.65535 8.64051 2.5423 8.68742 2.45895 8.77091C2.3756 8.85441 2.32878 8.96765 2.32878 9.08573V21.5548C2.32878 21.6729 2.3756 21.7861 2.45895 21.8696C2.5423 21.9531 2.65535 22 2.77322 22Z" fill="black"/>
</svg>
