<svg width="24" height="24" viewBox="0 0 24 24" fill="none" xmlns="http://www.w3.org/2000/svg">
<path d="M7.32305 12.652H9.51857V21.6774C9.51857 21.8556 9.66317 22 9.84162 22H13.5642C13.7427 22 13.8873 21.8556 13.8873 21.6774V12.6945H16.4112C16.5753 12.6945 16.7134 12.5715 16.7321 12.4088L17.1154 9.08606C17.126 8.99465 17.097 8.9031 17.0357 8.83452C16.9744 8.76587 16.8867 8.72658 16.7946 8.72658H13.8874V6.64374C13.8874 6.01587 14.2259 5.69748 14.8938 5.69748C14.9889 5.69748 16.7946 5.69748 16.7946 5.69748C16.973 5.69748 17.1176 5.55303 17.1176 5.3749V2.32497C17.1176 2.14677 16.973 2.00239 16.7946 2.00239H14.175C14.1565 2.00148 14.1155 2 14.055 2C13.6005 2 12.0205 2.0891 10.7725 3.23555C9.38974 4.506 9.58196 6.02716 9.62789 6.2909V8.72652H7.32305C7.1446 8.72652 7 8.8709 7 9.0491V12.3294C7 12.5075 7.1446 12.652 7.32305 12.652Z" fill="black"/>
</svg>
