<svg width="24" height="24" viewBox="0 0 24 24" fill="none" xmlns="http://www.w3.org/2000/svg">
<path d="M2.08359 11.91C2.08305 13.6566 2.54141 15.3617 3.41281 16.8646L2 22L7.27898 20.622C8.73352 21.4115 10.3712 21.8278 12.0376 21.8284H12.0419C17.53 21.8284 21.9977 17.3821 22 11.9179C22.0009 9.26977 20.9659 6.7796 19.0859 4.90635C17.2057 3.03334 14.7057 2.00109 12.0419 2C6.55281 2 2.08578 6.44571 2.08359 11.91ZM5.22742 16.6058L5.03031 16.2943C4.20172 14.9827 3.76437 13.467 3.765 11.9106C3.76672 7.36884 7.47953 3.67375 12.045 3.67375C14.2559 3.67468 16.3337 4.53271 17.8966 6.08949C19.4593 7.64642 20.3192 9.71605 20.3187 11.9173C20.3166 16.459 16.6037 20.1546 12.0419 20.1546H12.0386C10.5532 20.1538 9.09641 19.7567 7.82594 19.0062L7.52359 18.8277L4.39094 19.6454L5.22742 16.6058Z" fill="black"/>
<path d="M9.61193 7.71452C9.42407 7.30022 9.22636 7.29186 9.04771 7.2846C8.90142 7.27835 8.73419 7.27882 8.56711 7.27882C8.39988 7.27882 8.12816 7.34124 7.89849 7.59007C7.66859 7.83913 7.02075 8.441 7.02075 9.66514C7.02075 10.8893 7.91936 12.0724 8.04463 12.2386C8.17005 12.4044 9.7794 14.9969 12.3282 15.9943C14.4465 16.8231 14.8776 16.6583 15.3373 16.6167C15.7971 16.5753 16.821 16.015 17.0299 15.434C17.2389 14.853 17.2389 14.3551 17.1763 14.251C17.1136 14.1473 16.9464 14.0851 16.6956 13.9607C16.4448 13.8363 15.2119 13.2343 14.9821 13.1512C14.7522 13.0683 14.585 13.0269 14.4178 13.276C14.2505 13.5247 13.7703 14.0851 13.624 14.251C13.4777 14.4173 13.3314 14.438 13.0807 14.3136C12.8298 14.1887 12.0222 13.9263 11.064 13.0787C10.3186 12.4192 9.8153 11.6047 9.66901 11.3556C9.52272 11.1069 9.65334 10.972 9.77908 10.848C9.89175 10.7365 10.0299 10.5575 10.1554 10.4122C10.2805 10.2669 10.3222 10.1633 10.4058 9.99733C10.4895 9.83123 10.4476 9.68592 10.385 9.56147C10.3222 9.43702 9.83491 8.20647 9.61193 7.71452Z" fill="black"/>
</svg>
