<svg width="24" height="24" viewBox="0 0 24 24" fill="none" xmlns="http://www.w3.org/2000/svg">
<path fill-rule="evenodd" clip-rule="evenodd" d="M12.0002 17.4545C15.0127 17.4545 17.4547 15.0124 17.4547 12C17.4547 8.98749 15.0127 6.54541 12.0002 6.54541C8.98774 6.54541 6.54565 8.98749 6.54565 12C6.54565 15.0124 8.98774 17.4545 12.0002 17.4545ZM12.0002 15.6363C14.0085 15.6363 15.6366 14.0082 15.6366 12C15.6366 9.99165 14.0085 8.36359 12.0002 8.36359C9.99189 8.36359 8.36384 9.99165 8.36384 12C8.36384 14.0082 9.99189 15.6363 12.0002 15.6363Z" fill="black"/>
<path d="M17.4547 5.63623C16.9527 5.63623 16.5457 6.04325 16.5457 6.54532C16.5457 7.04739 16.9527 7.45441 17.4547 7.45441C17.9568 7.45441 18.3638 7.04739 18.3638 6.54532C18.3638 6.04325 17.9568 5.63623 17.4547 5.63623Z" fill="black"/>
<path fill-rule="evenodd" clip-rule="evenodd" d="M2.59451 4.97824C2 6.14503 2 7.67245 2 10.7273V13.2727C2 16.3275 2 17.855 2.59451 19.0217C3.11745 20.0481 3.95189 20.8825 4.97824 21.4055C6.14503 22 7.67245 22 10.7273 22H13.2727C16.3275 22 17.855 22 19.0217 21.4055C20.0481 20.8825 20.8825 20.0481 21.4055 19.0217C22 17.855 22 16.3275 22 13.2727V10.7273C22 7.67245 22 6.14503 21.4055 4.97824C20.8825 3.95189 20.0481 3.11745 19.0217 2.59451C17.855 2 16.3275 2 13.2727 2H10.7273C7.67245 2 6.14503 2 4.97824 2.59451C3.95189 3.11745 3.11745 3.95189 2.59451 4.97824ZM13.2727 3.81818H10.7273C9.16986 3.81818 8.11114 3.8196 7.2928 3.88645C6.49567 3.95158 6.08804 4.06963 5.80367 4.21452C5.11945 4.56315 4.56315 5.11945 4.21452 5.80367C4.06963 6.08804 3.95158 6.49567 3.88645 7.2928C3.8196 8.11114 3.81818 9.16986 3.81818 10.7273V13.2727C3.81818 14.8302 3.8196 15.8888 3.88645 16.7072C3.95158 17.5044 4.06963 17.912 4.21452 18.1964C4.56315 18.8805 5.11945 19.4368 5.80367 19.7855C6.08804 19.9304 6.49567 20.0485 7.2928 20.1135C8.11114 20.1804 9.16986 20.1818 10.7273 20.1818H13.2727C14.8302 20.1818 15.8888 20.1804 16.7072 20.1135C17.5044 20.0485 17.912 19.9304 18.1964 19.7855C18.8805 19.4368 19.4368 18.8805 19.7855 18.1964C19.9304 17.912 20.0485 17.5044 20.1135 16.7072C20.1804 15.8888 20.1818 14.8302 20.1818 13.2727V10.7273C20.1818 9.16986 20.1804 8.11114 20.1135 7.2928C20.0485 6.49567 19.9304 6.08804 19.7855 5.80367C19.4368 5.11945 18.8805 4.56315 18.1964 4.21452C17.912 4.06963 17.5044 3.95158 16.7072 3.88645C15.8888 3.8196 14.8302 3.81818 13.2727 3.81818Z" fill="black"/>
</svg>
