<svg width="24" height="24" viewBox="0 0 24 24" fill="none" xmlns="http://www.w3.org/2000/svg">
<path d="M18.3017 22.0001H21.5539C21.6717 22.0001 21.7848 21.9532 21.8681 21.8697C21.9515 21.7862 21.9983 21.673 21.9983 21.555L22 14.6716C22 11.0738 21.2261 8.30843 17.0291 8.30843C15.4337 8.249 13.9291 9.07288 13.1172 10.4486C13.1133 10.4553 13.1072 10.4605 13.1 10.4634C13.0928 10.4663 13.0849 10.4668 13.0774 10.4648C13.0699 10.4628 13.0633 10.4583 13.0585 10.4522C13.0538 10.446 13.0512 10.4385 13.0511 10.4307V9.08579C13.0511 8.96771 13.0043 8.85447 12.9209 8.77097C12.8376 8.68748 12.7245 8.64057 12.6067 8.64057H9.52033C9.40246 8.64057 9.28941 8.68748 9.20606 8.77097C9.12271 8.85447 9.07589 8.96771 9.07589 9.08579V21.5543C9.07589 21.6724 9.12271 21.7856 9.20606 21.8691C9.28941 21.9526 9.40246 21.9995 9.52033 21.9995H12.7723C12.8902 21.9995 13.0033 21.9526 13.0866 21.8691C13.17 21.7856 13.2168 21.6724 13.2168 21.5543V15.3909C13.2168 13.6482 13.5468 11.9605 15.7036 11.9605C17.8297 11.9605 17.8572 13.9546 17.8572 15.5038V21.5548C17.8572 21.6729 17.904 21.7862 17.9874 21.8697C18.0707 21.9532 18.1838 22.0001 18.3017 22.0001ZM2 4.40738C2 5.72792 3.08522 6.81449 4.40356 6.81449C5.72156 6.81437 6.80611 5.72714 6.80611 4.40683C6.80589 3.08652 5.72122 2.00006 4.40311 2.00006C3.08467 2.00006 2 3.08685 2 4.40738ZM2.77322 22.0001H6.02956C6.14743 22.0001 6.26048 21.9532 6.34383 21.8697C6.42718 21.7862 6.474 21.6729 6.474 21.5548V9.08579C6.474 8.96771 6.42718 8.85447 6.34383 8.77097C6.26048 8.68748 6.14743 8.64057 6.02956 8.64057H2.77322C2.65535 8.64057 2.5423 8.68748 2.45895 8.77097C2.3756 8.85447 2.32878 8.96771 2.32878 9.08579V21.5548C2.32878 21.6729 2.3756 21.7862 2.45895 21.8697C2.5423 21.9532 2.65535 22.0001 2.77322 22.0001Z" fill="black"/>
</svg>
