<svg width="24" height="24" viewBox="0 0 24 24" fill="none" xmlns="http://www.w3.org/2000/svg">
<path d="M2.08359 11.91C2.08305 13.6566 2.54141 15.3617 3.41281 16.8646L2 22L7.27898 20.622C8.73352 21.4115 10.3712 21.8278 12.0376 21.8284H12.0419C17.53 21.8284 21.9977 17.3821 22 11.9179C22.0009 9.26977 20.9659 6.7796 19.0859 4.90635C17.2057 3.03334 14.7057 2.00109 12.0419 2C6.55281 2 2.08578 6.44571 2.08359 11.91ZM5.22742 16.6058L5.03031 16.2943C4.20172 14.9827 3.76437 13.467 3.765 11.9106C3.76672 7.36884 7.47953 3.67375 12.045 3.67375C14.2559 3.67468 16.3337 4.53271 17.8966 6.08949C19.4593 7.64642 20.3192 9.71605 20.3187 11.9173C20.3166 16.459 16.6037 20.1546 12.0419 20.1546H12.0386C10.5532 20.1538 9.09641 19.7567 7.82594 19.0062L7.52359 18.8277L4.39094 19.6454L5.22742 16.6058Z" fill="black"/>
<path d="M9.61205 7.71452C9.42419 7.30022 9.22648 7.29186 9.04783 7.2846C8.90154 7.27835 8.73431 7.27882 8.56723 7.27882C8.4 7.27882 8.12828 7.34124 7.89861 7.59007C7.66871 7.83913 7.02087 8.441 7.02087 9.66514C7.02087 10.8893 7.91948 12.0724 8.04475 12.2386C8.17017 12.4044 9.77952 14.9969 12.3283 15.9943C14.4466 16.8231 14.8777 16.6583 15.3374 16.6167C15.7973 16.5753 16.8211 16.015 17.03 15.434C17.2391 14.853 17.2391 14.3551 17.1764 14.251C17.1137 14.1473 16.9465 14.0851 16.6957 13.9607C16.4449 13.8363 15.212 13.2343 14.9822 13.1512C14.7523 13.0683 14.5851 13.0269 14.4179 13.276C14.2507 13.5247 13.7705 14.0851 13.6241 14.251C13.4779 14.4173 13.3315 14.438 13.0808 14.3136C12.8299 14.1887 12.0223 13.9263 11.0642 13.0787C10.3187 12.4192 9.81542 11.6047 9.66913 11.3556C9.52284 11.1069 9.65347 10.972 9.77921 10.848C9.89188 10.7365 10.0301 10.5575 10.1556 10.4122C10.2806 10.2669 10.3223 10.1633 10.4059 9.99733C10.4896 9.83123 10.4477 9.68592 10.3852 9.56147C10.3223 9.43702 9.83503 8.20647 9.61205 7.71452Z" fill="black"/>
</svg>
