<svg width="24" height="24" viewBox="0 0 24 24" fill="none" xmlns="http://www.w3.org/2000/svg">
<mask id="mask0_2473_9595" style="mask-type:alpha" maskUnits="userSpaceOnUse" x="0" y="0" width="24" height="24">
<rect width="24" height="24" fill="#212121"/>
</mask>
<g mask="url(#mask0_2473_9595)">
<path d="M8.83168 13.0444C8.53245 13.0444 8.28163 12.9443 8.07921 12.7441C7.87679 12.544 7.77558 12.2959 7.77558 12V5.55091L5.79538 7.50914C5.60176 7.70061 5.35974 7.79634 5.06931 7.79634C4.77888 7.79634 4.52805 7.70061 4.31683 7.50914C4.10561 7.30026 4 7.05222 4 6.76501C4 6.47781 4.10561 6.22977 4.31683 6.02089L8.09241 2.28721C8.19802 2.18277 8.31243 2.10879 8.43564 2.06527C8.55886 2.02176 8.69087 2 8.83168 2C8.9725 2 9.10451 2.02176 9.22772 2.06527C9.35094 2.10879 9.46535 2.18277 9.57096 2.28721L13.3729 6.047C13.5842 6.25587 13.6854 6.49956 13.6766 6.77807C13.6678 7.05657 13.5578 7.30026 13.3465 7.50914C13.1353 7.70061 12.8889 7.8007 12.6073 7.8094C12.3256 7.8181 12.0792 7.71802 11.868 7.50914L9.88779 5.55091V12C9.88779 12.2959 9.78658 12.544 9.58416 12.7441C9.38174 12.9443 9.13091 13.0444 8.83168 13.0444ZM15.1683 22C15.0275 22 14.8955 21.9782 14.7723 21.9347C14.6491 21.8912 14.5347 21.8172 14.429 21.7128L10.6271 17.953C10.4158 17.7441 10.3146 17.5004 10.3234 17.2219C10.3322 16.9434 10.4422 16.6997 10.6535 16.4909C10.8647 16.2994 11.1111 16.1993 11.3927 16.1906C11.6744 16.1819 11.9208 16.282 12.132 16.4909L14.1122 18.4491L14.1122 12C14.1122 11.7041 14.2134 11.456 14.4158 11.2559C14.6183 11.0557 14.8691 10.9556 15.1683 10.9556C15.4675 10.9556 15.7184 11.0557 15.9208 11.2559C16.1232 11.456 16.2244 11.7041 16.2244 12V18.4491L18.2046 16.4909C18.3982 16.2994 18.6403 16.2037 18.9307 16.2037C19.2211 16.2037 19.4719 16.2994 19.6832 16.4909C19.8944 16.6997 20 16.9478 20 17.235C20 17.5222 19.8944 17.7702 19.6832 17.9791L15.9076 21.7128C15.802 21.8172 15.6876 21.8912 15.5644 21.9347C15.4411 21.9782 15.3091 22 15.1683 22Z" fill="black"/>
</g>
</svg>
