<svg width="24" height="24" viewBox="0 0 24 24" fill="none" xmlns="http://www.w3.org/2000/svg">
<path d="M11.8174 4.1416C11.888 3.9841 12.1118 3.98424 12.1826 4.1416L14.415 9.12402C14.5343 9.39024 14.7893 9.57091 15.0801 9.59473L20.7451 10.0576C20.9242 10.0722 20.9943 10.297 20.8555 10.4111L16.6025 13.9082C16.365 14.1035 16.2599 14.4181 16.333 14.7168L17.6123 19.9404C17.6541 20.111 17.4708 20.2491 17.3184 20.1621L12.3975 17.3477C12.1514 17.207 11.8486 17.207 11.6025 17.3477L6.68359 20.1602C6.53102 20.2474 6.34877 20.1101 6.39062 19.9395L7.67578 14.7178C7.74947 14.4185 7.64446 14.1037 7.40625 13.9082L3.14746 10.4131C3.00839 10.2989 3.07945 10.073 3.25879 10.0586L8.91895 9.60352C9.21021 9.58 9.46563 9.39956 9.58496 9.13281L11.8174 4.1416Z" fill="black" stroke="black" stroke-width="0.6"/>
</svg>
