<svg width="24" height="24" viewBox="0 0 24 24" fill="none" xmlns="http://www.w3.org/2000/svg">
<path d="M21.8032 10.448C22.1793 10.1246 21.9885 9.48698 21.5032 9.44553L15.045 8.89381L12.4947 2.94151C12.3033 2.49478 11.6968 2.49496 11.5056 2.9418L8.95475 8.90454L2.50089 9.447C2.01503 9.48784 1.82377 10.1264 2.20056 10.4498L7.08 14.6376L5.605 20.9015C5.49111 21.3852 5.98657 21.7761 6.40008 21.5289L11.9999 18.1805L17.6018 21.5302C18.015 21.7772 18.5102 21.3871 18.3971 20.9036L16.9306 14.6376L21.8032 10.448ZM11.9999 16.1728L8.36444 18.3472C8.199 18.4462 8.00077 18.2897 8.04641 18.0962L9.00893 14.0149L5.82441 11.2781C5.67398 11.1488 5.75021 10.8938 5.94427 10.8771L10.1576 10.5149L11.8022 6.65254C11.8785 6.47339 12.1216 6.47323 12.1981 6.65228L13.853 10.5257L18.0663 10.8878C18.2604 10.9045 18.3366 11.1595 18.1862 11.2888L15.0016 14.0256L15.964 18.1064C16.0097 18.3 15.8113 18.4565 15.6459 18.3574L11.9999 16.1728Z" fill="black"/>
</svg>
