<svg width="24" height="24" viewBox="0 0 24 24" fill="none" xmlns="http://www.w3.org/2000/svg">
<path d="M21.8032 10.4287C22.1792 10.1224 21.9884 9.51829 21.5032 9.47902L15.3643 8.98218C15.1673 8.96624 14.9947 8.84532 14.9139 8.66665L12.4947 3.31731C12.3033 2.8941 11.6967 2.89427 11.5056 3.31759L9.08581 8.67613C9.00496 8.85517 8.83198 8.97627 8.63463 8.99199L2.50083 9.48041C2.01497 9.5191 1.82371 10.1241 2.20049 10.4304L6.81588 14.1831C6.97722 14.3143 7.04816 14.5256 6.99826 14.7264L5.60494 20.3321C5.49105 20.7903 5.9865 21.1607 6.40002 20.9264L11.7309 17.9066C11.8975 17.8122 12.1021 17.8122 12.2688 17.9066L17.6017 20.9276C18.0149 21.1617 18.5102 20.792 18.397 20.334L17.0115 14.7257C16.962 14.5253 17.0328 14.3145 17.1937 14.1834L21.8032 10.4287Z" fill="black"/>
</svg>
