<svg width="24" height="24" viewBox="0 0 24 24" fill="none" xmlns="http://www.w3.org/2000/svg">
<path d="M11.8174 4.1416C11.888 3.9841 12.1118 3.98424 12.1826 4.1416L14.5361 9.39453L14.6084 9.55566L14.7852 9.57031L20.7451 10.0576C20.9242 10.0722 20.9943 10.297 20.8555 10.4111L16.3594 14.1084L16.2139 14.2285L16.2588 14.4111L17.6123 19.9404C17.6541 20.111 17.4708 20.2491 17.3184 20.1621L12.1484 17.2061L12 17.1211L11.8516 17.2061L6.68359 20.1602C6.53102 20.2474 6.34877 20.1101 6.39062 19.9395L7.75098 14.4121L7.79688 14.2285L7.65039 14.1084L3.14746 10.4131C3.00839 10.2989 3.07945 10.073 3.25879 10.0586L9.21387 9.58008L9.3916 9.56543L9.46387 9.40332L11.8174 4.1416ZM12.4189 7.10156C12.225 6.79955 11.7744 6.79999 11.5811 7.10254L11.5439 7.17188L10.0977 10.417L6.3877 10.7227C5.94001 10.7595 5.76429 11.3222 6.11133 11.6074L8.90234 13.9014L8.06055 17.3203C7.95545 17.747 8.41239 18.092 8.79395 17.874L11.999 16.04L15.2158 17.8828C15.5974 18.101 16.0545 17.756 15.9492 17.3291L15.1064 13.9121L17.8994 11.6172C18.2463 11.3321 18.0704 10.7696 17.623 10.7324L13.9111 10.4258L12.457 7.1709L12.4189 7.10156Z" fill="black" stroke="black" stroke-width="0.6"/>
</svg>
