<svg width="24" height="24" viewBox="0 0 24 24" fill="none" xmlns="http://www.w3.org/2000/svg">
<path d="M12.3799 7.74011C12.3799 7.5452 12.5932 7.42509 12.7598 7.52625L20.2031 12.0458C20.3631 12.1432 20.3632 12.3752 20.2031 12.4725L12.7598 16.9921C12.5932 17.0932 12.3799 16.9731 12.3799 16.7782V7.74011Z" stroke="black" stroke-width="1.5" stroke-linecap="round" stroke-linejoin="round"/>
<path d="M9.22447 3.41608C9.18665 3.41608 9.18665 3.41608 9.14882 3.41608C9.111 3.1513 8.88405 3 8.58146 3H6.38764C6.12287 3 5.89592 3.18913 5.82027 3.41608C5.78245 3.41608 5.78245 3.41608 5.74462 3.41608C5.7068 3.1513 5.47985 3 5.17725 3H3.09691C2.83214 3 2.60519 3.18913 2.52954 3.41608C2.22695 3.4539 2 3.68085 2 3.98345V20.2482C2 20.5508 2.26477 20.7778 2.56737 20.7778C2.86996 20.7778 3.13473 20.5508 3.13473 20.2482V4.09693H5.2529C5.29073 4.09693 5.29073 4.09693 5.32855 4.09693V20.2482C5.32855 20.5508 5.59332 20.7778 5.89592 20.7778C6.19851 20.7778 6.46329 20.5508 6.46329 20.2482V4.09693H8.61928H8.6571V20.2482C8.6571 20.5508 8.92188 20.7778 9.22447 20.7778C9.52707 20.7778 9.79184 20.5508 9.79184 20.2482V3.98345C9.79184 3.68085 9.56489 3.41608 9.22447 3.41608Z" fill="black"/>
</svg>
