<svg width="24" height="24" viewBox="0 0 24 24" fill="none" xmlns="http://www.w3.org/2000/svg">
<path d="M21.8818 13.3316C21.6895 12.7547 21.3172 12.3709 21.2749 12.3294L11.1713 2.22563C11.0128 2.0664 10.7897 1.98409 10.5682 2.00256L3.27142 2.56409C2.89296 2.59332 2.59297 2.89408 2.56374 3.27177L2.00221 10.5686C1.98529 10.7924 2.06606 11.0124 2.22528 11.1717L12.3289 21.2762C12.9274 21.8746 13.5428 22 13.9535 22C14.9096 22 15.5873 21.35 15.6619 21.2762L21.2749 15.6632C21.9441 14.9939 22.1595 14.1655 21.8818 13.3316ZM4.04679 4.04715L10.3336 3.56331L12.9074 6.13712L6.13674 12.9078L3.56295 10.334L4.04679 4.04715ZM20.1872 14.5755L14.5812 20.1816C14.4997 20.26 14.2266 20.4616 13.9543 20.4616C13.8889 20.4616 13.6904 20.4616 13.4174 20.1885L7.22518 13.9963L13.9958 7.22557L20.1819 13.4124C20.4418 13.6847 20.6534 14.1086 20.1872 14.5755Z" fill="black"/>
<path d="M10.543 1.70411C10.8534 1.67824 11.1635 1.79241 11.3838 2.01368L21.4854 12.1152L21.586 12.2246C21.7356 12.3977 22.0057 12.7558 22.166 13.2363C22.4827 14.1876 22.2289 15.1332 21.4873 15.875L15.8731 21.4893C15.7894 21.5721 15.0362 22.2998 13.9531 22.2998C13.4765 22.2997 12.7806 22.1516 12.1172 21.4883L2.01271 11.3838C1.7914 11.1623 1.67968 10.8562 1.70314 10.5459L2.26467 3.24903C2.30528 2.72423 2.72204 2.3054 3.24807 2.26466L10.543 1.70411ZM3.29494 2.86329C3.06418 2.88111 2.88115 3.06445 2.8633 3.29493L2.30178 10.5918C2.29157 10.7289 2.34066 10.8631 2.43752 10.96L12.541 21.0645C13.074 21.5973 13.6084 21.7001 13.9531 21.7002C14.5751 21.7002 15.0697 21.3778 15.3057 21.1895L15.4512 21.0625L21.0625 15.4512C21.6589 14.8547 21.836 14.1428 21.5977 13.4268C21.4269 12.9145 21.0915 12.5696 21.0645 12.543L10.959 2.43751C10.8624 2.34047 10.7254 2.29072 10.5928 2.30177H10.5908L3.29494 2.86329ZM20.3985 13.2051C20.5484 13.3621 20.7144 13.5921 20.7539 13.8799C20.796 14.1875 20.6859 14.5001 20.3994 14.7871L14.7891 20.3975C14.7279 20.4563 14.6166 20.5424 14.4805 20.6152C14.3461 20.6871 14.1594 20.7617 13.9541 20.7617C13.9065 20.7617 13.7995 20.7611 13.6592 20.709C13.5216 20.6579 13.3679 20.5632 13.2051 20.4004L6.8008 13.9961L13.7832 7.01368L13.9961 6.80177L20.3985 13.2051ZM7.64943 13.9961L13.6299 19.9766C13.74 20.0866 13.822 20.1293 13.8682 20.1465C13.9113 20.1625 13.9363 20.1611 13.9541 20.1611C14.021 20.1611 14.1069 20.1352 14.1973 20.0869C14.2858 20.0396 14.3524 19.9857 14.3731 19.9658L19.9746 14.3633C20.154 14.1836 20.1713 14.051 20.1592 13.9619C20.1446 13.8548 20.0769 13.7386 19.9697 13.625L13.9951 7.64942L7.64943 13.9961ZM13.1192 5.92481L13.3321 6.13673L6.13674 13.332L3.25295 10.4483L3.74807 4.02442L3.7676 3.76759L10.3106 3.26466L10.4483 3.25391L13.1192 5.92481ZM4.32521 4.32618L3.87209 10.2188L6.13674 12.4834L12.4824 6.13673L10.2178 3.87208L4.32521 4.32618Z" fill="black"/>
<path d="M6.32703 7.73414C6.32703 8.11006 6.4731 8.46313 6.73894 8.72898C7.00478 8.99482 7.35716 9.1409 7.73308 9.1409C8.10899 9.1409 8.46206 8.99413 8.72859 8.72828C9.27689 8.17998 9.27689 7.28761 8.72859 6.73931C8.19691 6.20832 7.26993 6.20832 6.73963 6.73931C6.4731 7.00515 6.32703 7.35822 6.32703 7.73414Z" fill="black"/>
</svg>
