<svg width="24" height="24" viewBox="0 0 24 24" fill="none" xmlns="http://www.w3.org/2000/svg">
<path d="M21.8818 13.3316C21.6895 12.7547 21.3172 12.3709 21.2749 12.3294L11.1713 2.22563C11.0128 2.0664 10.7897 1.98409 10.5682 2.00256L3.27142 2.56409C2.89296 2.59332 2.59297 2.89408 2.56374 3.27177L2.00221 10.5686C1.98529 10.7924 2.06606 11.0124 2.22528 11.1717L12.3289 21.2762C12.9274 21.8746 13.5428 22 13.9535 22C14.9096 22 15.5873 21.35 15.6619 21.2762L21.2749 15.6632C21.9441 14.9939 22.1595 14.1655 21.8818 13.3316ZM4.04679 4.04715L10.3336 3.56331L12.9074 6.13712L6.13674 12.9078L3.56295 10.334L4.04679 4.04715ZM20.1872 14.5755L14.5812 20.1816C14.4997 20.26 14.2266 20.4616 13.9543 20.4616C13.8889 20.4616 13.6904 20.4616 13.4174 20.1885L7.22518 13.9963L13.9958 7.22557L20.1819 13.4124C20.4418 13.6847 20.6534 14.1086 20.1872 14.5755Z" fill="black" stroke="black" stroke-width="0.6"/>
<path d="M6.32715 7.73414C6.32715 8.11006 6.47322 8.46313 6.73906 8.72898C7.0049 8.99482 7.35728 9.1409 7.7332 9.1409C8.10911 9.1409 8.46218 8.99413 8.72872 8.72828C9.27701 8.17998 9.27701 7.28761 8.72872 6.73931C8.19703 6.20832 7.27005 6.20832 6.73976 6.73931C6.47322 7.00515 6.32715 7.35822 6.32715 7.73414Z" fill="black"/>
</svg>
