<svg width="24" height="24" viewBox="0 0 24 24" fill="none" xmlns="http://www.w3.org/2000/svg">
<path d="M21.073 18.9871C21.073 18.812 21.0263 18.6397 20.9379 18.488L20.9359 18.4841L12.8609 4.49487L12.8589 4.49194C12.771 4.33853 12.6439 4.21066 12.49 4.12183C12.3358 4.03291 12.1603 3.98608 11.982 3.98608C11.8036 3.98609 11.6281 4.03291 11.4739 4.12183C11.32 4.21066 11.1929 4.33854 11.105 4.49194L11.103 4.49487L3.02797 18.4841L3.026 18.488C2.93709 18.6405 2.89046 18.814 2.89086 18.99C2.89127 19.166 2.9384 19.339 3.02797 19.491C3.1175 19.6429 3.24643 19.7683 3.40085 19.8552C3.55543 19.9422 3.73108 19.9877 3.90887 19.9861H20.0659C20.2425 19.9858 20.416 19.9397 20.569 19.8523C20.7221 19.7646 20.8495 19.6378 20.9379 19.4861C21.0263 19.3343 21.0731 19.1622 21.073 18.9871ZM23.0933 18.9871C23.0934 19.513 22.9532 20.0295 22.6879 20.4851C22.4225 20.9408 22.0409 21.3194 21.5811 21.5828C21.1211 21.8461 20.5992 21.9855 20.0679 21.9861H3.91775V21.9851C3.38683 21.9883 2.86422 21.8543 2.40256 21.5945C1.93841 21.3333 1.55199 20.9553 1.28295 20.4988C1.01389 20.0422 0.871795 19.5225 0.870612 18.9939C0.869498 18.4654 1.0091 17.9457 1.27604 17.488L9.34912 3.50269C9.61315 3.04293 9.99533 2.66064 10.4569 2.39429C10.9198 2.12725 11.4462 1.98609 11.982 1.98608C12.5177 1.98608 13.0441 2.12724 13.507 2.39429C13.9686 2.66063 14.3507 3.04292 14.6148 3.50269L22.6879 17.488L22.7816 17.6619C22.9863 18.0732 23.0932 18.5268 23.0933 18.9871Z" fill="black"/>
<path d="M11 13V9C11 8.44772 11.4477 8 12 8C12.5523 8 13 8.44772 13 9V13C13 13.5523 12.5523 14 12 14C11.4477 14 11 13.5523 11 13Z" fill="black"/>
<path d="M12.0098 16C12.5621 16 13.0098 16.4477 13.0098 17C13.0098 17.5523 12.5621 18 12.0098 18H12C11.4477 18 11 17.5523 11 17C11 16.4477 11.4477 16 12 16H12.0098Z" fill="black"/>
</svg>
