<svg width="24" height="24" viewBox="0 0 24 24" fill="none" xmlns="http://www.w3.org/2000/svg">
<path d="M7.85971 16.1403H9.62441V9.62441H11.9321L14.3529 16.1403H16.1629L19.2624 7.85971H17.1132L15.2579 13.1879L13.4253 7.85971H4.60176V9.62441H7.85971V16.1403ZM4.12676 22C3.53245 22 3.02941 21.7941 2.61765 21.3824C2.20588 20.9706 2 20.4675 2 19.8732V4.12676C2 3.53245 2.20588 3.02941 2.61765 2.61765C3.02941 2.20588 3.53245 2 4.12676 2H19.8732C20.4675 2 20.9706 2.20588 21.3824 2.61765C21.7941 3.02941 22 3.53245 22 4.12676V19.8732C22 20.4675 21.7941 20.9706 21.3824 21.3824C20.9706 21.7941 20.4675 22 19.8732 22H4.12676ZM4.12676 20.2353H19.8732C19.9638 20.2353 20.0468 20.1975 20.1221 20.1221C20.1975 20.0468 20.2353 19.9638 20.2353 19.8732V4.12676C20.2353 4.03618 20.1975 3.95323 20.1221 3.87794C20.0468 3.80245 19.9638 3.76471 19.8732 3.76471H4.12676C4.03618 3.76471 3.95324 3.80245 3.87794 3.87794C3.80245 3.95323 3.76471 4.03618 3.76471 4.12676V19.8732C3.76471 19.9638 3.80245 20.0468 3.87794 20.1221C3.95324 20.1975 4.03618 20.2353 4.12676 20.2353Z" fill="black"/>
</svg>
