<svg width="24" height="24" viewBox="0 0 24 24" fill="none" xmlns="http://www.w3.org/2000/svg">
<path d="M4.22222 22C3.61111 22 3.08796 21.7824 2.65278 21.3472C2.21759 20.912 2 20.3889 2 19.7778V4.22222C2 3.61111 2.21759 3.08796 2.65278 2.65278C3.08796 2.21759 3.61111 2 4.22222 2H19.7778C20.3889 2 20.912 2.21759 21.3472 2.65278C21.7824 3.08796 22 3.61111 22 4.22222V19.7778C22 20.3889 21.7824 20.912 21.3472 21.3472C20.912 21.7824 20.3889 22 19.7778 22H4.22222ZM7.55556 9.77778V15.3333C7.55556 15.6481 7.66204 15.912 7.875 16.125C8.08796 16.338 8.35185 16.4444 8.66667 16.4444C8.98148 16.4444 9.24537 16.338 9.45833 16.125C9.6713 15.912 9.77778 15.6481 9.77778 15.3333V9.77778H11.7222L13.9722 15.7778C14.0463 15.9815 14.1713 16.1435 14.3472 16.2639C14.5231 16.3843 14.7222 16.4444 14.9444 16.4444H15.7222C15.9444 16.4444 16.1435 16.3843 16.3194 16.2639C16.4954 16.1435 16.6204 15.9815 16.6944 15.7778L19.1389 9.27778C19.287 8.85185 19.2361 8.45833 18.9861 8.09722C18.7361 7.73611 18.3889 7.55556 17.9444 7.55556C17.6667 7.55556 17.412 7.63889 17.1806 7.80556C16.9491 7.97222 16.787 8.18519 16.6944 8.44444L15.3333 12.5556L13.9167 8.30556C13.8426 8.08333 13.7083 7.90278 13.5139 7.76389C13.3194 7.625 13.1019 7.55556 12.8611 7.55556H5.33333C5.01852 7.55556 4.75463 7.66204 4.54167 7.875C4.3287 8.08796 4.22222 8.35185 4.22222 8.66667C4.22222 8.98148 4.3287 9.24537 4.54167 9.45833C4.75463 9.6713 5.01852 9.77778 5.33333 9.77778H7.55556Z" fill="black"/>
</svg>
