<svg width="24" height="24" viewBox="0 0 24 24" fill="none" xmlns="http://www.w3.org/2000/svg">
<path d="M12 4.5C13.375 4.5 14.5 5.625 14.5 7C14.5 8.375 13.375 9.5 12 9.5C10.625 9.5 9.5 8.375 9.5 7C9.5 5.625 10.625 4.5 12 4.5ZM12 15.75C15.375 15.75 19.25 17.3625 19.5 18.25V19.5H4.5V18.2625C4.75 17.3625 8.625 15.75 12 15.75ZM12 2C9.2375 2 7 4.2375 7 7C7 9.7625 9.2375 12 12 12C14.7625 12 17 9.7625 17 7C17 4.2375 14.7625 2 12 2ZM12 13.25C8.6625 13.25 2 14.925 2 18.25V22H22V18.25C22 14.925 15.3375 13.25 12 13.25Z" fill="black"/>
</svg>
