<svg width="24" height="24" viewBox="0 0 24 24" fill="none" xmlns="http://www.w3.org/2000/svg">
<path d="M9 14.375C6.66 14.375 2 15.6286 2 18.125V20H16V18.125C16 15.6286 11.34 14.375 9 14.375ZM4.34 17.8571C5.18 17.2357 7.21 16.5179 9 16.5179C10.79 16.5179 12.82 17.2357 13.66 17.8571H4.34ZM9 12.5C10.93 12.5 12.5 10.8179 12.5 8.75C12.5 6.68214 10.93 5 9 5C7.07 5 5.5 6.68214 5.5 8.75C5.5 10.8179 7.07 12.5 9 12.5ZM9 7.14286C9.83 7.14286 10.5 7.86071 10.5 8.75C10.5 9.63929 9.83 10.3571 9 10.3571C8.17 10.3571 7.5 9.63929 7.5 8.75C7.5 7.86071 8.17 7.14286 9 7.14286ZM16.04 14.4393C17.2 15.3393 18 16.5393 18 18.125V20H22V18.125C22 15.9607 18.5 14.7286 16.04 14.4393ZM15 12.5C16.93 12.5 18.5 10.8179 18.5 8.75C18.5 6.68214 16.93 5 15 5C14.46 5 13.96 5.13929 13.5 5.375C14.13 6.32857 14.5 7.49643 14.5 8.75C14.5 10.0036 14.13 11.1714 13.5 12.125C13.96 12.3607 14.46 12.5 15 12.5Z" fill="black"/>
</svg>
