<svg width="24" height="24" viewBox="0 0 24 24" fill="none" xmlns="http://www.w3.org/2000/svg">
<path d="M14 4.70398C13.9998 4.56469 13.9583 4.42859 13.8809 4.31284C13.8034 4.19709 13.6934 4.10688 13.5647 4.05361C13.436 4.00033 13.2944 3.98637 13.1577 4.01349C13.0211 4.04061 12.8956 4.10759 12.797 4.20598L9.413 7.58898C9.2824 7.72036 9.12703 7.82451 8.95589 7.89541C8.78475 7.9663 8.60124 8.00252 8.416 8.00198H6C5.73478 8.00198 5.48043 8.10734 5.29289 8.29487C5.10536 8.48241 5 8.73676 5 9.00198V15.002C5 15.2672 5.10536 15.5216 5.29289 15.7091C5.48043 15.8966 5.73478 16.002 6 16.002H8.416C8.60124 16.0014 8.78475 16.0377 8.95589 16.1086C9.12703 16.1795 9.2824 16.2836 9.413 16.415L12.796 19.799C12.8946 19.8978 13.0203 19.9651 13.1572 19.9924C13.2941 20.0196 13.436 20.0057 13.5649 19.9522C13.6939 19.8988 13.804 19.8083 13.8815 19.6922C13.959 19.5761 14.0002 19.4396 14 19.3V4.70398Z" stroke="black" stroke-width="2" stroke-linecap="round" stroke-linejoin="round"/>
<path d="M19 9.00195C19.6491 9.86743 20 10.9201 20 12.002C20 13.0838 19.6491 14.1365 19 15.002" stroke="black" stroke-width="2" stroke-linecap="round" stroke-linejoin="round"/>
</svg>
