<svg width="24" height="24" viewBox="0 0 24 24" fill="none" xmlns="http://www.w3.org/2000/svg">
<path d="M13.0879 3.01268C13.3373 2.98215 13.5904 3.00719 13.8291 3.08592L13.9473 3.12987L14.0615 3.18163C14.2861 3.29463 14.4828 3.45628 14.6377 3.65428L14.7119 3.75682L14.7783 3.86424C14.9228 4.11916 14.9995 4.4077 15 4.70213V19.2988L14.9951 19.4248C14.9738 19.7178 14.8777 20.0014 14.7139 20.2471C14.5266 20.5278 14.2599 20.7467 13.9482 20.876C13.6364 21.0052 13.2929 21.0386 12.9619 20.9726C12.6309 20.9067 12.3263 20.7447 12.0879 20.5058L8.7041 17.1201C8.66679 17.0826 8.62214 17.0525 8.57324 17.0322C8.52435 17.012 8.47186 17.0018 8.41895 17.0019H6C5.46957 17.0019 4.96101 16.7911 4.58594 16.416C4.21087 16.0409 4 15.5324 4 15.0019V9.00194C4.00001 8.47151 4.21087 7.96294 4.58594 7.58787C4.96101 7.21281 5.46957 7.00194 6 7.00194H8.41895C8.47187 7.00209 8.52435 6.99192 8.57324 6.97166C8.62214 6.95141 8.66679 6.92131 8.7041 6.88377L12.0908 3.49803C12.3292 3.26018 12.6326 3.09779 12.9629 3.03221L13.0879 3.01268ZM6 15.0019H8.41602C8.73258 15.0014 9.04639 15.0634 9.33887 15.1846C9.63129 15.3057 9.8967 15.4838 10.1201 15.708L13 18.5879V5.416L10.1201 8.29588C9.89671 8.5201 9.6313 8.69815 9.33887 8.81932C9.04639 8.94048 8.73258 9.0015 8.41602 9.00096L6 9.00194V15.0019Z" fill="black"/>
<path d="M19 12.002C19 11.1365 18.7195 10.294 18.2002 9.60159C17.869 9.15977 17.9586 8.5335 18.4004 8.20217C18.8422 7.87094 19.4685 7.96059 19.7998 8.40237C20.5787 9.44091 21 10.7038 21 12.002C21 13.3001 20.5787 14.563 19.7998 15.6016C19.4685 16.0434 18.8422 16.133 18.4004 15.8018C17.9586 15.4704 17.869 14.8442 18.2002 14.4024C18.7195 13.71 19 12.8675 19 12.002Z" fill="black"/>
</svg>
