<svg width="24" height="24" viewBox="0 0 24 24" fill="none" xmlns="http://www.w3.org/2000/svg">
<path d="M10.0879 3.01073C10.3373 2.9802 10.5904 3.00524 10.8291 3.08397L10.9473 3.12791L11.0615 3.17967C11.2861 3.29268 11.4828 3.45433 11.6377 3.65233L11.7119 3.75487L11.7783 3.86229C11.9228 4.1172 11.9995 4.40575 12 4.70018V19.2969L11.9951 19.4228C11.9738 19.7159 11.8777 19.9995 11.7139 20.2451C11.5266 20.5258 11.2599 20.7447 10.9482 20.874C10.6364 21.0032 10.2929 21.0366 9.96191 20.9707C9.6309 20.9047 9.32634 20.7428 9.08789 20.5039L5.7041 17.1181C5.66679 17.0806 5.62214 17.0505 5.57324 17.0303C5.52435 17.01 5.47186 16.9998 5.41895 17H3C2.46957 17 1.96101 16.7891 1.58594 16.414C1.21087 16.039 1 15.5304 1 15V8.99998C1.00001 8.46956 1.21087 7.96099 1.58594 7.58592C1.96101 7.21086 2.46957 6.99998 3 6.99998H5.41895C5.47187 7.00014 5.52435 6.98996 5.57324 6.96971C5.62214 6.94946 5.66679 6.91936 5.7041 6.88182L9.09082 3.49608C9.32922 3.25823 9.63258 3.09584 9.96289 3.03026L10.0879 3.01073ZM3 15H5.41602C5.73258 14.9994 6.04639 15.0614 6.33887 15.1826C6.63129 15.3038 6.8967 15.4818 7.12012 15.706L10 18.5859V5.41405L7.12012 8.29393C6.89671 8.51815 6.6313 8.6962 6.33887 8.81737C6.04639 8.93852 5.73258 8.99955 5.41602 8.99901L3 8.99998V15Z" fill="black"/>
<path d="M21.293 8.29295C21.6835 7.90243 22.3166 7.90243 22.7071 8.29295C23.0976 8.68348 23.0976 9.31649 22.7071 9.70702L16.7071 15.707C16.3166 16.0975 15.6835 16.0975 15.293 15.707C14.9025 15.3165 14.9025 14.6835 15.293 14.293L21.293 8.29295Z" fill="black"/>
<path d="M15.293 8.29295C15.6835 7.90243 16.3166 7.90243 16.7071 8.29295L22.7071 14.293C23.0976 14.6835 23.0976 15.3165 22.7071 15.707C22.3166 16.0975 21.6835 16.0975 21.293 15.707L15.293 9.70702C14.9025 9.31649 14.9025 8.68348 15.293 8.29295Z" fill="black"/>
</svg>
