<svg width="94" height="30" viewBox="0 0 94 30" fill="none" xmlns="http://www.w3.org/2000/svg">
<path d="M25.5739 1.00046L25.2712 1.00756H23.4659C22.8883 1.00756 22.5598 1.19411 22.3194 1.58853C22.2744 1.68803 22.2312 1.79818 22.1914 1.92788L20.1284 9.73632C20.0956 9.81983 20.0471 9.85181 19.9987 9.85181H19.9175C19.869 9.85181 19.8206 9.81805 19.7878 9.73632L17.5034 2.10377C17.2596 1.29005 16.8549 1.00756 16.0456 1.00756H14.1365C13.4725 1.00756 13.0194 1.23853 12.7773 2.10377L10.5639 9.73632C10.531 9.81983 10.4826 9.85181 10.4497 9.85181H10.3685C10.3028 9.85181 10.2716 9.81805 10.2561 9.73632L8.25532 2.45377L8.11697 1.95275C8.07547 1.82305 8.0357 1.72356 7.99247 1.62229C7.75729 1.20833 7.42873 1.01645 6.8598 1.00756H4.78815L4.92822 1.45706L7.70022 11.1665C8.04089 12.38 8.41268 12.6465 9.23754 12.6465H11.4406C12.1531 12.6465 12.492 12.348 12.8465 11.1665L15.0115 3.91774C15.0271 3.83424 15.06 3.80226 15.1239 3.80226H15.1897C15.2554 3.80226 15.2709 3.83602 15.2865 3.91774L17.4256 11.1665C17.7663 12.348 18.1225 12.6465 18.8332 12.6465H21.1003C21.7799 12.6465 22.1672 12.348 22.5234 11.1665L25.4338 1.45706L25.5739 1.00046Z" fill="black"/>
<path d="M88.0046 1.00033L87.702 1.00743H85.8966C85.319 1.00743 84.9905 1.19398 84.7501 1.5884C84.7052 1.6879 84.6619 1.79805 84.6222 1.92775L82.5592 9.73619C82.5263 9.8197 82.4779 9.85168 82.4295 9.85168H82.3482C82.2998 9.85168 82.2513 9.81792 82.2185 9.73619L79.9341 2.10364C79.6903 1.28992 79.2857 1.00743 78.4764 1.00743H76.5673C75.9032 1.00743 75.4502 1.2384 75.2081 2.10364L72.9946 9.73619C72.9618 9.8197 72.9133 9.85168 72.8805 9.85168H72.7992C72.7335 9.85168 72.7024 9.81792 72.6868 9.73619L70.686 2.45364L70.5477 1.95262C70.5062 1.82292 70.4664 1.72343 70.4232 1.62216C70.188 1.20642 69.8595 1.01454 69.2905 1.00566H67.2189L67.3589 1.45515L70.131 11.1646C70.4716 12.3781 70.8434 12.6446 71.6683 12.6446H73.8713C74.5838 12.6446 74.9227 12.3461 75.2772 11.1646L77.4423 3.91584C77.4578 3.83233 77.4907 3.80035 77.5547 3.80035H77.6204C77.6861 3.80035 77.7017 3.83411 77.7172 3.91584L79.8563 11.1646C80.197 12.3461 80.5532 12.6446 81.2639 12.6446H83.531C84.2106 12.6446 84.5979 12.3461 84.9542 11.1646L87.8628 1.45515L88.0029 0.99855L88.0046 1.00033Z" fill="black"/>
<path d="M26.5159 1.00046V1.43396L26.5211 12.2077V12.6358L26.9395 12.6412H29.4643L29.4591 1.43752L29.4643 1.00401H29.0389L26.5159 1.00046Z" fill="black"/>
<path d="M31.0974 1.00579V8.25636C31.0974 11.449 32.3615 12.6447 35.6782 12.6447H40.579V10.9711C40.5582 10.2569 40.1882 9.86602 39.5068 9.83049H35.7889C34.3813 9.83049 34.0406 9.44851 34.0406 7.95255V2.13042C34.0147 1.41087 33.6325 1.02178 32.9287 1.00046H31.5159L31.0957 1.00401L31.0974 1.00579Z" fill="black"/>
<path d="M41.7534 1.00579V8.25636C41.7534 11.449 43.0175 12.6447 46.3343 12.6447H51.235V10.9711C51.2142 10.2569 50.8442 9.86602 50.1628 9.83049H46.4449C45.0373 9.83049 44.6966 9.44851 44.6966 7.95255V2.13042C44.6707 1.41087 44.2885 1.02178 43.5847 1.00046H42.1719L41.7517 1.00401L41.7534 1.00579Z" fill="black"/>
<path d="M57.0739 3.80735H61.8968C63.3045 3.80735 63.6451 4.17157 63.6451 5.68529V8.07845C63.6451 9.59217 63.3079 9.97416 61.8986 9.97416H57.0757C55.668 9.97416 55.3274 9.5904 55.3274 8.07845V5.68529C55.3274 4.17157 55.6663 3.80735 57.0739 3.80735ZM56.9598 1.06418C53.6431 1.06418 52.3824 2.26165 52.3824 5.45432V8.31475C52.3824 11.5074 53.6465 12.7031 56.9633 12.7031H62.0127C65.3294 12.7031 66.5918 11.5056 66.5918 8.31475V5.45432C66.5918 2.26165 65.326 1.06418 62.0092 1.06418H56.9598Z" fill="black"/>
<path d="M28.1979 22.5028C28.4005 22.3863 28.6405 22.3281 28.9177 22.3281C29.4186 22.3281 29.7715 22.5086 29.9765 22.8697C30.1838 23.2308 30.2269 23.6967 30.1058 24.2675C29.98 24.8592 29.7354 25.3496 29.372 25.7386C29.0109 26.1276 28.5799 26.3222 28.079 26.3222C27.7645 26.3222 27.5258 26.2593 27.3627 26.1335C27.2648 26.0589 27.1693 25.9285 27.0762 25.7421L26.9748 26.2208H25.9999L27.0901 21.0771H28.0825L27.6947 22.9081C27.8577 22.7311 28.0255 22.596 28.1979 22.5028ZM28.6521 25.19C28.8385 24.9827 28.9678 24.7101 29.04 24.3723C29.0982 24.1021 29.1111 23.8784 29.0784 23.7014C29.0155 23.3659 28.8059 23.1982 28.4494 23.1982C28.0884 23.1982 27.8053 23.3624 27.6003 23.6909C27.4931 23.8656 27.4104 24.0916 27.3522 24.3688C27.2823 24.6949 27.2963 24.9652 27.3941 25.1795C27.4943 25.3938 27.6923 25.501 27.9882 25.501C28.2444 25.501 28.4658 25.3973 28.6521 25.19Z" fill="black"/>
<path d="M31.3777 26.3886L30.8256 22.4119H31.9334L32.1675 25.2214L33.5513 22.4119H34.6101L32.5064 26.1579C32.1011 26.8801 31.8064 27.3274 31.6224 27.4998C31.4406 27.6745 31.1296 27.7619 30.6894 27.7619C30.6008 27.7619 30.5298 27.7607 30.4762 27.7584C30.4226 27.7584 30.3434 27.7549 30.2386 27.7479L30.4063 26.9512L30.5321 26.9582C30.6276 26.9628 30.7208 26.9593 30.8117 26.9477C30.9025 26.936 30.9829 26.9092 31.0528 26.8673C31.1203 26.8277 31.1925 26.745 31.2694 26.6192C31.3463 26.4934 31.3824 26.4165 31.3777 26.3886Z" fill="black"/>
<path d="M50.5597 19.4778C51.8703 19.4778 53.1271 19.9984 54.0538 20.925C54.9805 21.8518 55.502 23.1086 55.5021 24.4192C55.5021 25.7299 54.9806 26.9875 54.0538 27.9143C53.1271 28.8409 51.8702 29.3616 50.5597 29.3616C49.2492 29.3616 47.9923 28.8409 47.0656 27.9143C46.1388 26.9875 45.6183 25.7299 45.6183 24.4192C45.6184 23.1086 46.1388 21.8518 47.0656 20.925C47.9923 19.9984 49.2491 19.4778 50.5597 19.4778ZM45.9376 25.4846C45.9692 25.8695 46.0431 26.2498 46.1583 26.6184C46.0903 26.295 46.0504 25.9663 46.0392 25.636L45.9376 25.4846ZM51.3878 21.4124L50.6642 26.5022H51.5099L51.7023 26.1594C51.9261 26.4441 52.2925 26.5745 52.8243 26.5745L52.8331 26.5891C53.9464 26.5891 54.4987 26.0075 54.6847 24.6936C54.8706 23.38 54.4754 22.7992 53.3624 22.7991C52.9586 22.7758 52.5586 22.8903 52.2286 23.1243L52.4698 21.4124H51.3878ZM38.9933 22.7913C40.1528 22.7914 40.6327 23.2132 40.6036 24.2043H39.5216C39.5042 23.7683 39.3122 23.5793 38.882 23.5793C38.2689 23.5795 37.9583 23.9138 37.8507 24.6868C37.7431 25.46 37.958 25.7942 38.5714 25.7942C38.7603 25.8056 38.9467 25.7484 39.0968 25.6331C39.2469 25.5177 39.3503 25.3518 39.3878 25.1663H40.4669C40.2198 26.1604 39.6237 26.5822 38.4611 26.5823C37.089 26.5823 36.5856 26.0007 36.7716 24.6868C36.9577 23.3729 37.6212 22.7913 38.9933 22.7913ZM56.9962 24.8323C56.9003 25.5096 57.0486 25.7942 57.5021 25.7942C57.9553 25.794 58.2079 25.5324 58.295 24.9221L58.5861 22.8674H59.6583L59.1466 26.5129H58.3009V26.5042L58.2111 26.2131C57.8968 26.4723 57.4955 26.6021 57.089 26.5764C56.089 26.5764 55.731 26.0532 55.9025 24.8323L56.1935 22.8645H57.2716L56.9962 24.8323ZM48.795 22.7844C47.4231 22.7845 46.7575 23.366 46.5714 24.6799C46.3856 25.9934 46.8883 26.5743 48.2599 26.5745C49.4196 26.5745 50.0186 26.1533 50.2687 25.1594H49.1876C49.1506 25.345 49.0475 25.5108 48.8976 25.6262C48.7474 25.7416 48.5602 25.7993 48.3712 25.7874C47.7609 25.7874 47.5451 25.4528 47.6525 24.6799C47.76 23.9067 48.0714 23.5716 48.6818 23.5715C49.1119 23.5715 49.3068 23.7607 49.3243 24.1965H50.4025C50.4343 23.2055 49.9577 22.7844 48.795 22.7844ZM45.3761 22.8762L44.8624 26.5208H43.7833L44.295 22.8762H45.3761ZM63.4142 22.8616L63.3273 23.4661L61.1154 25.7913H63.0656L62.9611 26.5208H59.7228L59.8097 25.9163L62.0304 23.5911H60.2052L60.3097 22.8616H63.4142ZM43.7687 22.803L43.6407 23.7131H43.1095C42.563 23.7131 42.2894 24.0067 42.1906 24.6897L41.9347 26.5159H40.8566L41.3683 22.8674H42.214L42.3126 23.2102C42.4285 23.0777 42.5722 22.972 42.7335 22.9016C42.8948 22.8313 43.0703 22.7977 43.2462 22.803H43.7687ZM67.0656 23.4543L64.8507 25.7795H66.8126L66.7111 26.51H63.4728L63.5568 25.9045L65.7775 23.5793H63.9552L64.0568 22.8499H67.1495L67.0656 23.4543ZM45.8273 25.2346C45.8639 25.4311 45.9127 25.6251 45.9728 25.8157C45.9377 25.6536 45.9109 25.4894 45.8937 25.3245L45.8849 25.3391L45.8273 25.2346ZM52.9581 23.5715C53.5191 23.5716 53.7112 23.9067 53.6036 24.6799L53.6124 24.6877C53.5049 25.461 53.2106 25.7874 52.6466 25.7874C52.083 25.7872 51.8917 25.4527 51.9991 24.6799C52.1067 23.9067 52.3971 23.5715 52.9581 23.5715ZM45.963 24.5198C45.9458 24.6931 45.9376 24.867 45.9347 25.0461V25.177L46.0538 25.3508C46.0562 25.1663 46.0691 24.9822 46.0919 24.7991L45.963 24.5198ZM45.757 24.7434L45.8507 24.9153V24.4524L45.757 24.2317V24.7434ZM45.963 24.5198C45.9631 24.5188 45.9639 24.5178 45.964 24.5168L45.9581 24.5081L45.963 24.5198ZM46.132 23.5256C46.0735 23.7281 46.0277 23.934 45.9933 24.1418L46.13 24.4319C46.1678 24.2272 46.2156 24.0241 46.2745 23.8245L46.132 23.5256ZM45.88 23.3215C45.8391 23.5038 45.8073 23.6886 45.7863 23.8743L45.9083 24.1038C45.9316 23.9352 45.9613 23.7724 45.9962 23.6125L45.88 23.3215ZM46.5245 22.595C46.4129 22.8111 46.3165 23.0348 46.2345 23.2639L46.3771 23.5549C46.4465 23.3568 46.527 23.162 46.6183 22.9729L46.5245 22.595ZM46.173 22.427C46.0992 22.5937 46.0344 22.7642 45.9786 22.9377L46.0978 23.2288C46.1501 23.0602 46.2106 22.8974 46.2775 22.7375L46.173 22.427ZM47.0743 21.7434C46.9265 21.9276 46.7911 22.1216 46.67 22.3245L46.7599 22.6995C46.8616 22.5157 46.975 22.3386 47.0978 22.1682L47.0743 21.7434ZM46.7198 21.5081C46.5743 21.7007 46.443 21.9036 46.3273 22.1155L46.4288 22.427C46.5287 22.2338 46.6411 22.0467 46.7657 21.8684L46.7198 21.5081ZM45.0509 21.2454C45.4899 21.2454 45.6706 21.4254 45.6124 21.8381C45.5543 22.2509 45.3385 22.4192 44.9025 22.4192C44.4666 22.4191 44.2984 22.2537 44.3566 21.8381C44.4147 21.4224 44.6266 21.2571 45.0626 21.2571L45.0509 21.2454ZM47.7745 20.9963C47.5882 21.1561 47.4139 21.3294 47.2521 21.5139L47.2716 21.9182C47.4207 21.7324 47.5817 21.5555 47.7521 21.3889L47.7745 20.9963ZM47.3849 20.7874C47.2238 20.9301 47.0724 21.0834 46.9318 21.2463L46.9728 21.5862C47.0968 21.4322 47.229 21.285 47.3683 21.1448L47.3849 20.7874ZM48.5597 20.4407C48.3629 20.5563 48.1738 20.6848 47.9933 20.8245L47.9698 21.1907C48.125 21.0557 48.2871 20.9284 48.4552 20.8098L48.5597 20.4407ZM48.045 20.302C47.8891 20.3979 47.7388 20.5024 47.5948 20.6155L47.5802 20.9465C47.7122 20.8273 47.8515 20.7159 47.9962 20.6125L48.045 20.302ZM49.2804 20.0862C49.1177 20.154 48.9578 20.2265 48.8009 20.304L48.7081 20.6389C48.865 20.5489 49.0015 20.4615 49.1554 20.386L49.2804 20.0862ZM48.8302 19.9182C48.6447 19.9897 48.4638 20.0732 48.2892 20.1682L48.2433 20.4583C48.3968 20.3592 48.556 20.2686 48.7198 20.1877L48.8302 19.9182ZM49.5509 20.0022L49.4406 20.2668C49.5743 20.2087 49.7053 20.1561 49.8419 20.1067L49.9318 19.8918C49.8039 19.9238 49.6759 19.9615 49.5509 20.0022ZM49.4962 19.7112C49.3392 19.749 49.1816 19.7926 49.0304 19.842L48.9318 20.0803C49.0916 20.0106 49.2544 19.95 49.42 19.8948L49.4962 19.7112ZM50.6466 19.7522C50.4868 19.7696 50.3298 19.7925 50.173 19.8245L50.0948 20.0168C50.2576 19.9674 50.4204 19.9267 50.589 19.8918L50.6466 19.7522ZM50.8595 19.7317L50.8097 19.8625C50.9289 19.8422 51.0803 19.8127 51.2198 19.8127L51.255 19.7317H50.8595ZM49.6642 19.6819L49.5948 19.8479C49.7198 19.8101 49.8479 19.7813 49.9757 19.7551L50.0275 19.6272C49.9055 19.6417 49.7833 19.6586 49.6642 19.6819ZM52.1525 19.802L52.1437 19.7932H52.089C52.1101 19.7965 52.1314 19.7985 52.1525 19.802ZM51.4552 19.7932H52.089C51.8877 19.7622 51.6851 19.7404 51.4816 19.7317L51.4552 19.7932ZM50.1241 19.7112C50.2461 19.6909 50.3714 19.674 50.4962 19.6624L50.5304 19.5979H50.17L50.1241 19.7112ZM50.6183 19.6653H51.3624C51.1268 19.627 50.8882 19.6042 50.6495 19.5979H50.6437L50.6183 19.6653Z" fill="black"/>
</svg>
