<svg width="93" height="30" viewBox="0 0 93 30" fill="none" xmlns="http://www.w3.org/2000/svg">
<path d="M25.5738 1.00049L25.2712 1.00759H23.4658C22.8883 1.00759 22.5597 1.19414 22.3193 1.58856C22.2744 1.68806 22.2311 1.79821 22.1914 1.92791L20.1284 9.73635C20.0955 9.81986 20.0471 9.85184 19.9987 9.85184H19.9174C19.869 9.85184 19.8206 9.81808 19.7877 9.73635L17.5033 2.1038C17.2595 1.29008 16.8549 1.00759 16.0456 1.00759H14.1365C13.4724 1.00759 13.0194 1.23856 12.7773 2.1038L10.5638 9.73635C10.531 9.81986 10.4825 9.85184 10.4497 9.85184H10.3684C10.3027 9.85184 10.2716 9.81808 10.256 9.73635L8.25525 2.4538L8.11691 1.95278C8.07541 1.82308 8.03564 1.72359 7.99241 1.62232C7.75723 1.20836 7.42867 1.01648 6.85974 1.00759H4.78809L4.92816 1.45709L7.70016 11.1666C8.04083 12.38 8.41262 12.6465 9.23747 12.6465H11.4406C12.153 12.6465 12.4919 12.3481 12.8464 11.1666L15.0115 3.91777C15.027 3.83427 15.0599 3.80229 15.1239 3.80229H15.1896C15.2553 3.80229 15.2709 3.83605 15.2864 3.91777L17.4255 11.1666C17.7662 12.3481 18.1224 12.6465 18.8331 12.6465H21.1002C21.7798 12.6465 22.1672 12.3481 22.5234 11.1666L25.4337 1.45709L25.5738 1.00049Z" fill="black"/>
<path d="M88.0047 1.00031L87.7021 1.00742H85.8967C85.3192 1.00742 84.9906 1.19397 84.7502 1.58839C84.7053 1.68788 84.6621 1.79803 84.6223 1.92773L82.5593 9.73618C82.5264 9.81968 82.478 9.85166 82.4296 9.85166H82.3483C82.2999 9.85166 82.2515 9.8179 82.2186 9.73618L79.9343 2.10362C79.6904 1.28991 79.2858 1.00742 78.4765 1.00742H76.5674C75.9033 1.00742 75.4503 1.23839 75.2082 2.10362L72.9947 9.73618C72.9619 9.81968 72.9135 9.85166 72.8806 9.85166H72.7993C72.7336 9.85166 72.7025 9.8179 72.6869 9.73618L70.6862 2.45362L70.5478 1.9526C70.5063 1.82291 70.4665 1.72341 70.4233 1.62214C70.1881 1.20641 69.8596 1.01453 69.2907 1.00564H67.219L67.3591 1.45514L70.1311 11.1646C70.4717 12.3781 70.8435 12.6446 71.6684 12.6446H73.8715C74.5839 12.6446 74.9229 12.3461 75.2774 11.1646L77.4424 3.91582C77.458 3.83232 77.4908 3.80034 77.5548 3.80034H77.6205C77.6862 3.80034 77.7018 3.83409 77.7173 3.91582L79.8564 11.1646C80.1971 12.3461 80.5533 12.6446 81.2641 12.6446H83.5311C84.2107 12.6446 84.5981 12.3461 84.9543 11.1646L87.8629 1.45514L88.003 0.998535L88.0047 1.00031Z" fill="black"/>
<path d="M26.5159 1.00049V1.43399L26.5211 12.2077V12.6359L26.9395 12.6412H29.4643L29.4591 1.43755L29.4643 1.00404H29.0389L26.5159 1.00049Z" fill="black"/>
<path d="M31.0974 1.00582V8.25639C31.0974 11.4491 32.3615 12.6448 35.6782 12.6448H40.579V10.9711C40.5582 10.2569 40.1882 9.86605 39.5068 9.83052H35.7889C34.3813 9.83052 34.0406 9.44854 34.0406 7.95258V2.13045C34.0147 1.4109 33.6325 1.02181 32.9287 1.00049H31.5159L31.0957 1.00404L31.0974 1.00582Z" fill="black"/>
<path d="M41.7534 1.00582V8.25639C41.7534 11.4491 43.0175 12.6448 46.3343 12.6448H51.235V10.9711C51.2142 10.2569 50.8442 9.86605 50.1628 9.83052H46.4449C45.0373 9.83052 44.6966 9.44854 44.6966 7.95258V2.13045C44.6707 1.4109 44.2885 1.02181 43.5847 1.00049H42.1719L41.7517 1.00404L41.7534 1.00582Z" fill="black"/>
<path d="M57.0738 3.80738H61.8967C63.3043 3.80738 63.645 4.1716 63.645 5.68532V8.07849C63.645 9.59221 63.3078 9.97419 61.8984 9.97419H57.0755C55.6679 9.97419 55.3273 9.59043 55.3273 8.07849V5.68532C55.3273 4.1716 55.6662 3.80738 57.0738 3.80738ZM56.9597 1.06421C53.643 1.06421 52.3823 2.26168 52.3823 5.45435V8.31478C52.3823 11.5075 53.6464 12.7031 56.9631 12.7031H62.0126C65.3293 12.7031 66.5917 11.5057 66.5917 8.31478V5.45435C66.5917 2.26168 65.3258 1.06421 62.0091 1.06421H56.9597Z" fill="black"/>
<path d="M26.7099 22.5027C26.9126 22.3863 27.1526 22.328 27.4298 22.328C27.9306 22.328 28.2836 22.5086 28.4886 22.8696C28.6959 23.2307 28.739 23.6967 28.6179 24.2674C28.4921 24.8591 28.2475 25.3495 27.8841 25.7385C27.523 26.1276 27.092 26.3221 26.5911 26.3221C26.2766 26.3221 26.0378 26.2592 25.8748 26.1334C25.7769 26.0589 25.6814 25.9284 25.5882 25.742L25.4869 26.2208H24.512L25.6022 21.077H26.5946L26.2067 22.9081C26.3698 22.731 26.5375 22.5959 26.7099 22.5027ZM27.1642 25.1899C27.3506 24.9826 27.4799 24.71 27.5521 24.3722C27.6103 24.102 27.6231 23.8784 27.5905 23.7013C27.5276 23.3659 27.318 23.1981 26.9615 23.1981C26.6004 23.1981 26.3174 23.3624 26.1124 23.6908C26.0052 23.8656 25.9225 24.0915 25.8643 24.3687C25.7944 24.6949 25.8084 24.9651 25.9062 25.1794C26.0064 25.3938 26.2044 25.5009 26.5003 25.5009C26.7565 25.5009 26.9778 25.3973 27.1642 25.1899Z" fill="black"/>
<path d="M29.8898 26.3885L29.3377 22.4119H30.4454L30.6796 25.2214L32.0633 22.4119H33.1221L31.0185 26.1579C30.6132 26.88 30.3185 27.3273 30.1344 27.4997C29.9527 27.6744 29.6417 27.7618 29.2014 27.7618C29.1129 27.7618 29.0419 27.7606 28.9883 27.7583C28.9347 27.7583 28.8555 27.7548 28.7507 27.7478L28.9184 26.9511L29.0442 26.9581C29.1397 26.9627 29.2329 26.9593 29.3237 26.9476C29.4146 26.936 29.495 26.9092 29.5649 26.8672C29.6324 26.8276 29.7046 26.7449 29.7815 26.6191C29.8584 26.4933 29.8945 26.4165 29.8898 26.3885Z" fill="black"/>
<path d="M49.0718 19.4778C50.3824 19.4778 51.6392 19.9984 52.5659 20.925C53.4926 21.8518 54.0141 23.1086 54.0142 24.4192C54.0142 25.7299 53.4927 26.9875 52.5659 27.9143C51.6392 28.8409 50.3823 29.3616 49.0718 29.3616C47.7613 29.3616 46.5044 28.8409 45.5776 27.9143C44.6509 26.9875 44.1304 25.7299 44.1304 24.4192C44.1305 23.1086 44.6509 21.8518 45.5776 20.925C46.5044 19.9984 47.7612 19.4778 49.0718 19.4778ZM44.4497 25.4846C44.4813 25.8695 44.5552 26.2498 44.6704 26.6184C44.6023 26.295 44.5625 25.9663 44.5513 25.636L44.4497 25.4846ZM49.8999 21.4124L49.1763 26.5022H50.022L50.2144 26.1594C50.4382 26.4441 50.8046 26.5745 51.3364 26.5745L51.3452 26.5891C52.4585 26.5891 53.0107 26.0075 53.1968 24.6936C53.3827 23.38 52.9875 22.7992 51.8745 22.7991C51.4707 22.7758 51.0707 22.8903 50.7407 23.1243L50.9819 21.4124H49.8999ZM37.5054 22.7913C38.6649 22.7914 39.1448 23.2132 39.1157 24.2043H38.0337C38.0162 23.7683 37.8243 23.5793 37.394 23.5793C36.781 23.5795 36.4704 23.9138 36.3628 24.6868C36.2552 25.46 36.4701 25.7942 37.0835 25.7942C37.2724 25.8056 37.4588 25.7484 37.6089 25.6331C37.759 25.5177 37.8624 25.3518 37.8999 25.1663H38.979C38.7319 26.1604 38.1358 26.5822 36.9731 26.5823C35.601 26.5823 35.0976 26.0007 35.2837 24.6868C35.4698 23.3729 36.1333 22.7913 37.5054 22.7913ZM55.5083 24.8323C55.4124 25.5096 55.5607 25.7942 56.0142 25.7942C56.4674 25.794 56.7199 25.5324 56.8071 24.9221L57.0981 22.8674H58.1704L57.6587 26.5129H56.813V26.5042L56.7231 26.2131C56.4088 26.4723 56.0076 26.6021 55.6011 26.5764C54.6011 26.5764 54.243 26.0532 54.4146 24.8323L54.7056 22.8645H55.7837L55.5083 24.8323ZM47.3071 22.7844C45.9352 22.7845 45.2695 23.366 45.0835 24.6799C44.8977 25.9934 45.4004 26.5743 46.772 26.5745C47.9317 26.5745 48.5307 26.1533 48.7808 25.1594H47.6997C47.6627 25.345 47.5596 25.5108 47.4097 25.6262C47.2595 25.7416 47.0723 25.7993 46.8833 25.7874C46.273 25.7874 46.0572 25.4528 46.1646 24.6799C46.2721 23.9067 46.5834 23.5716 47.1938 23.5715C47.624 23.5715 47.8189 23.7607 47.8364 24.1965H48.9146C48.9464 23.2055 48.4698 22.7844 47.3071 22.7844ZM43.8882 22.8762L43.3745 26.5208H42.2954L42.8071 22.8762H43.8882ZM61.9263 22.8616L61.8394 23.4661L59.6274 25.7913H61.5776L61.4731 26.5208H58.2349L58.3218 25.9163L60.5425 23.5911H58.7173L58.8218 22.8616H61.9263ZM42.2808 22.803L42.1528 23.7131H41.6216C41.0751 23.7131 40.8015 24.0067 40.7026 24.6897L40.4468 26.5159H39.3687L39.8804 22.8674H40.7261L40.8247 23.2102C40.9405 23.0777 41.0843 22.972 41.2456 22.9016C41.4069 22.8313 41.5824 22.7977 41.7583 22.803H42.2808ZM65.5776 23.4543L63.3628 25.7795H65.3247L65.2231 26.51H61.9849L62.0688 25.9045L64.2896 23.5793H62.4673L62.5688 22.8499H65.6616L65.5776 23.4543ZM44.3394 25.2346C44.376 25.4311 44.4247 25.6251 44.4849 25.8157C44.4498 25.6536 44.4229 25.4894 44.4058 25.3245L44.397 25.3391L44.3394 25.2346ZM51.4702 23.5715C52.0312 23.5716 52.2233 23.9067 52.1157 24.6799L52.1245 24.6877C52.017 25.461 51.7226 25.7874 51.1587 25.7874C50.5951 25.7872 50.4038 25.4527 50.5112 24.6799C50.6188 23.9067 50.9092 23.5715 51.4702 23.5715ZM44.4751 24.5198C44.4579 24.6931 44.4497 24.867 44.4468 25.0461V25.177L44.5659 25.3508C44.5683 25.1663 44.5812 24.9822 44.604 24.7991L44.4751 24.5198ZM44.269 24.7434L44.3628 24.9153V24.4524L44.269 24.2317V24.7434ZM44.4751 24.5198C44.4752 24.5188 44.476 24.5178 44.4761 24.5168L44.4702 24.5081L44.4751 24.5198ZM44.644 23.5256C44.5856 23.7281 44.5398 23.934 44.5054 24.1418L44.6421 24.4319C44.6799 24.2272 44.7276 24.0241 44.7866 23.8245L44.644 23.5256ZM44.3921 23.3215C44.3511 23.5038 44.3194 23.6886 44.2983 23.8743L44.4204 24.1038C44.4437 23.9352 44.4734 23.7724 44.5083 23.6125L44.3921 23.3215ZM45.0366 22.595C44.925 22.8111 44.8285 23.0348 44.7466 23.2639L44.8892 23.5549C44.9586 23.3568 45.0391 23.162 45.1304 22.9729L45.0366 22.595ZM44.6851 22.427C44.6113 22.5937 44.5464 22.7642 44.4907 22.9377L44.6099 23.2288C44.6622 23.0602 44.7227 22.8974 44.7896 22.7375L44.6851 22.427ZM45.5864 21.7434C45.4385 21.9276 45.3032 22.1216 45.1821 22.3245L45.272 22.6995C45.3737 22.5157 45.4871 22.3386 45.6099 22.1682L45.5864 21.7434ZM45.2319 21.5081C45.0864 21.7007 44.9551 21.9036 44.8394 22.1155L44.9409 22.427C45.0408 22.2338 45.1532 22.0467 45.2778 21.8684L45.2319 21.5081ZM43.563 21.2454C44.0019 21.2454 44.1826 21.4254 44.1245 21.8381C44.0664 22.2509 43.8506 22.4192 43.4146 22.4192C42.9787 22.4191 42.8105 22.2537 42.8687 21.8381C42.9268 21.4224 43.1387 21.2571 43.5747 21.2571L43.563 21.2454ZM46.2866 20.9963C46.1003 21.1561 45.926 21.3294 45.7642 21.5139L45.7837 21.9182C45.9328 21.7324 46.0938 21.5555 46.2642 21.3889L46.2866 20.9963ZM45.897 20.7874C45.7359 20.9301 45.5845 21.0834 45.4438 21.2463L45.4849 21.5862C45.6088 21.4322 45.7411 21.285 45.8804 21.1448L45.897 20.7874ZM47.0718 20.4407C46.875 20.5563 46.6859 20.6848 46.5054 20.8245L46.4819 21.1907C46.6371 21.0557 46.7992 20.9284 46.9673 20.8098L47.0718 20.4407ZM46.5571 20.302C46.4012 20.3979 46.2509 20.5024 46.1069 20.6155L46.0923 20.9465C46.2243 20.8273 46.3635 20.7159 46.5083 20.6125L46.5571 20.302ZM47.7925 20.0862C47.6298 20.154 47.4699 20.2265 47.313 20.304L47.2202 20.6389C47.3771 20.5489 47.5135 20.4615 47.6675 20.386L47.7925 20.0862ZM47.3423 19.9182C47.1568 19.9897 46.9758 20.0732 46.8013 20.1682L46.7554 20.4583C46.9089 20.3592 47.0681 20.2686 47.2319 20.1877L47.3423 19.9182ZM48.063 20.0022L47.9526 20.2668C48.0864 20.2087 48.2174 20.1561 48.354 20.1067L48.4438 19.8918C48.316 19.9238 48.1879 19.9615 48.063 20.0022ZM48.0083 19.7112C47.8513 19.749 47.6936 19.7926 47.5425 19.842L47.4438 20.0803C47.6036 20.0106 47.7665 19.95 47.9321 19.8948L48.0083 19.7112ZM49.1587 19.7522C48.9989 19.7696 48.8419 19.7925 48.6851 19.8245L48.6069 20.0168C48.7697 19.9674 48.9325 19.9267 49.1011 19.8918L49.1587 19.7522ZM49.3716 19.7317L49.3218 19.8625C49.441 19.8422 49.5924 19.8127 49.7319 19.8127L49.7671 19.7317H49.3716ZM48.1763 19.6819L48.1069 19.8479C48.2319 19.8101 48.36 19.7813 48.4878 19.7551L48.5396 19.6272C48.4176 19.6417 48.2954 19.6586 48.1763 19.6819ZM50.6646 19.802L50.6558 19.7932H50.6011C50.6222 19.7965 50.6435 19.7985 50.6646 19.802ZM49.9673 19.7932H50.6011C50.3998 19.7622 50.1972 19.7404 49.9937 19.7317L49.9673 19.7932ZM48.6362 19.7112C48.7582 19.6909 48.8835 19.674 49.0083 19.6624L49.0425 19.5979H48.6821L48.6362 19.7112ZM49.1304 19.6653H49.8745C49.6389 19.627 49.4003 19.6042 49.1616 19.5979H49.1558L49.1304 19.6653Z" fill="black"/>
</svg>
